SplineFontDB: 3.0
FontName: LinLibertineDisplaySlantedO
FullName: Linux Libertine Display Slanted O
FamilyName: Linux Libertine Display Slanted O
Weight: Book
Copyright: Linux Libertine by Philipp H. Poll,\nOpen Font under Terms of following Free Software Licenses:\nGPL (General Public License) with font-exception and OFL (Open Font License).\nCreated with FontForge (http://fontforge.sf.net)\nSept 2003, 2004, 2005, 2006, 2007, 2008, 2009, 2010, 2011
UComments: "2003-08-29: Created.+AAoA-2004-07-25: v(1.0) release candidate+AAoA-2005-12-28: v(1.1.0) stable+AAoA-2006-01-01: v(2.0.0) stable+AAoA-2006-09-05: v(2.2.0) stable+AAoA-2006-12-04: v(2.3.0) stable+AAoA-2007-03-11: v(2.4.0) stable+AAoA-2007-12-00: v(2.7.0) stable+AAoA-2008-06-00: v(2.8.14) stable+AAoA" 
Version: 5.0.9
ItalicAngle: 0
UnderlinePosition: -98
UnderlineWidth: 40
Ascent: 754
Descent: 246
LayerCount: 2
Layer: 0 0 "Back"  1
Layer: 1 0 "Fore"  0
NeedsXUIDChange: 1
XUID: [1021 993 1524925707 2876416]
FSType: 0
OS2Version: 0
OS2_WeightWidthSlopeOnly: 0
OS2_UseTypoMetrics: 1
CreationTime: 1156455862
ModificationTime: 1305486616
PfmFamily: 17
TTFWeight: 400
TTFWidth: 5
LineGap: 0
VLineGap: 0
OS2TypoAscent: 894
OS2TypoAOffset: 0
OS2TypoDescent: -246
OS2TypoDOffset: 0
OS2TypoLinegap: 0
OS2WinAscent: 894
OS2WinAOffset: 0
OS2WinDescent: 246
OS2WinDOffset: 0
HheadAscent: 894
HheadAOffset: 0
HheadDescent: -246
HheadDOffset: 0
OS2FamilyClass: 261
OS2Vendor: 'PfEd'
Lookup: 3 0 0 "'aalt' Alle Alternativen zeigen"  {"'aalt' Alle Alternativen zeigen 1"  } ['aalt' ('DFLT' <'dflt' > 'cyrl' <'dflt' > 'grek' <'dflt' > 'latn' <'AZE ' 'CRT ' 'DEU ' 'MOL ' 'ROM ' 'TRK ' 'dflt' > ) ]
Lookup: 1 0 0 "'locl' Localized Forms Romaenisch"  {"'locl' Localized Forms Romaenisch 1"  } ['locl' ('latn' <'MOL ' 'ROM ' > ) ]
Lookup: 1 0 0 "'smcp' Gemeine nach Kapitaelchen i > i.sc"  {"'smcp' Gemeine nach Kapitaelchen i > i.sc 1"  } ['smcp' ('DFLT' <'dflt' > 'cyrl' <'dflt' > 'grek' <'dflt' > 'latn' <'DEU ' 'MOL ' 'ROM ' 'dflt' > ) ]

StartChar: exclam
Encoding: 33 33 0
Width: 288
VWidth: 999
Flags: HW
HStem: -5 100<105.006 183.198> 638 20G<132.5 155.5>
VStem: 93 102<404.035 646.654> 94 100<6.12776 83.2822>
LayerCount: 2
Fore
SplineSet
283.862304688 658 m 0
 306.862304688 658 330.823242188 639 319.345703125 585 c 0
 305.529296875 520 283.6015625 478 255.322265625 392 c 0
 220.366210938 284 206.612304688 224 201.63671875 210 c 0
 198.298828125 199 194.385742188 190 184.385742188 190 c 0
 174.385742188 190 173.874023438 197 174.149414062 203 c 0
 176.612304688 224 189.743164062 314 198.322265625 392 c 0
 208.02734375 480 202.466796875 515 217.345703125 585 c 0
 228.823242188 639 260.862304688 658 283.862304688 658 c 0
103.990234375 47 m 0
 109.091796875 71 142.193359375 95 166.193359375 95 c 0
 193.193359375 95 208.241210938 67 203.139648438 43 c 0
 198.655273438 21.900390625 168.9375 -5 140.9375 -5 c 0
 116.9375 -5 98.4638671875 21 103.990234375 47 c 0
EndSplineSet
Colour: ff9ccc
EndChar

StartChar: quotedbl
Encoding: 34 34 1
Width: 336
VWidth: 999
Flags: HW
HStem: 426 218<85.8119 118.678> 427 218<211.812 244.678>
VStem: 63 86<487.695 633.98> 189 86<488.695 634.98>
LayerCount: 2
Fore
SplineSet
305.76171875 427 m 1
 305.76171875 427 313.55859375 586 315.470703125 595 c 0
 320.147460938 617 347.098632812 645 377.098632812 645 c 0
 403.098632812 645 408.485351562 628 405.084960938 612 c 0
 401.68359375 596 333.612304688 431 333.612304688 431 c 1
 305.76171875 427 l 1
179.548828125 426 m 1
 179.548828125 426 187.345703125 585 189.258789062 594 c 0
 193.934570312 616 220.88671875 644 250.88671875 644 c 0
 276.88671875 644 282.2734375 627 278.872070312 611 c 0
 275.470703125 595 207.399414062 430 207.399414062 430 c 1
 179.548828125 426 l 1
EndSplineSet
Colour: ff00ff
EndChar

StartChar: numbersign
Encoding: 35 35 2
Width: 465
VWidth: 487
Flags: HW
HStem: 192 53<34 119 165 269 316 404> 360 53<61 146 191 297 342 430>
DStem2: 91 14 128 14 0.158856 0.987302<5.87769 180.188 239.822 350.344 409.819 585.275> 242 14 280 14 0.155524 0.987832<5.9099 180.033 239.698 350.344 409.697 585.12>
LayerCount: 2
Fore
SplineSet
331.076171875 245 m 1
 373.520507812 360 l 1
 260.520507812 360 l 1
 217.076171875 245 l 1
 331.076171875 245 l 1
411.520507812 360 m 1
 368.076171875 245 l 1
 463.076171875 245 l 1
 444.810546875 192 l 1
 350.810546875 192 l 1
 282.975585938 14 l 1
 244.975585938 14 l 1
 309.810546875 192 l 1
 197.810546875 192 l 1
 130.975585938 14 l 1
 93.9755859375 14 l 1
 159.810546875 192 l 1
 66.810546875 192 l 1
 86.076171875 245 l 1
 180.076171875 245 l 1
 222.520507812 360 l 1
 129.520507812 360 l 1
 148.786132812 413 l 1
 241.786132812 413 l 1
 308.833007812 592 l 1
 346.833007812 592 l 1
 278.786132812 413 l 1
 392.786132812 413 l 1
 458.833007812 592 l 1
 496.833007812 592 l 1
 429.786132812 413 l 1
 525.786132812 413 l 1
 506.520507812 360 l 1
 411.520507812 360 l 1
EndSplineSet
EndChar

StartChar: dollar
Encoding: 36 36 3
Width: 464
VWidth: 999
Flags: HMW
HStem: -11 26<156.098 278.7> 579 25<175.802 261.195>
VStem: 21.3 22.5<131.901 167.627> 49 67<411.842 525.526> 346 77<79.4116 208.812> 380 22.5<443.535 473.014>
DStem2: 181.426 -94.6992 210.335 -96.9912 0.0793315 0.996848<0.00864029 373.112 446.789 773.086>
LayerCount: 2
Fore
SplineSet
232.587890625 15 m 0
 271.587890625 15 355.352539062 44 374.482421875 134 c 0
 393.166015625 221.900390625 335.708984375 250.799804688 296.094726562 267.200195312 c 1
 222.53125 15.2001953125 l 1
 225.809570312 15.099609375 229.188476562 15 232.587890625 15 c 0
194.290039062 18.2998046875 m 1
 270.254882812 278.299804688 l 1
 213.71484375 305.400390625 122.884765625 347.599609375 145.288085938 453 c 0
 166.331054688 552 276.383789062 604 359.784179688 604 c 0
 361.684570312 604 363.484375 604 365.383789062 604 c 1
 386.48828125 676 l 1
 414.899414062 673.700195312 l 1
 394.171875 603 l 1
 456.821289062 599 458.811523438 583.900390625 507.245117188 577 c 1
 506.379882812 524 504.427734375 496 497.725585938 448 c 1
 487.237304688 441 485.4921875 442.200195312 473.950195312 442 c 1
 468.874023438 498.099609375 450.885742188 557.900390625 385.9140625 574.5 c 1
 319.1875 346.200195312 l 1
 374.383789062 323.599609375 480.87890625 272.299804688 458.072265625 165 c 0
 450.419921875 129 405.662109375 -11 218.662109375 -11 c 0
 217.362304688 -11 216.162109375 -11 214.862304688 -11 c 1
 189.681640625 -97 l 1
 161.270507812 -94.7001953125 l 1
 186.095703125 -9.900390625 l 1
 122.973632812 -5.2998046875 98.3505859375 12 43.8505859375 12 c 1
 42.265625 61 43.7919921875 87 56.1591796875 164 c 1
 66.84375 169.099609375 67.84765625 171 79.296875 167 c 1
 80.1083984375 81.900390625 123.33203125 31.2001953125 194.290039062 18.2998046875 c 1
293.388671875 357.5 m 1
 358.006835938 578.700195312 l 1
 354.44921875 578.900390625 350.870117188 579 347.0703125 579 c 0
 290.0703125 579 229.29296875 533 214.4140625 463 c 0
 203.254882812 410.5 255.420898438 376 293.388671875 357.5 c 1
EndSplineSet
EndChar

StartChar: percent
Encoding: 37 37 4
Width: 637
VWidth: 999
Flags: HW
HStem: -12 23<453.781 507.794> 233 23<494.671 548.501> 303 23<131.893 186.047> 484 27<304.293 445.975> 548 23<172.879 228.08>
VStem: 57 54<339.893 483.813> 252 25<417.895 504.302> 378 55<26.2672 167.861> 573 25<101.088 208.212>
DStem2: 109 3 134 -12 0.583255 0.812289<2.39704 615.533 646.536 704.93>
LayerCount: 2
Fore
SplineSet
450.642578125 83 m 0
 439.588867188 31 460.337890625 11 479.337890625 11 c 0
 534.337890625 11 595.956054688 108 607.859375 164 c 0
 618.912109375 216 586.525390625 233 572.525390625 233 c 0
 523.525390625 233 462.970703125 141 450.642578125 83 c 0
398.830078125 98 m 0
 416.259765625 180 492.4140625 256 566.4140625 256 c 0
 606.4140625 256 648.588867188 238 633.072265625 165 c 0
 618.830078125 98 551.44921875 -12 468.44921875 -12 c 0
 407.44921875 -12 387.565429688 45 398.830078125 98 c 0
472.616210938 511 m 0
 514.616210938 511 590.7421875 521 643.219726562 575 c 1
 662.819335938 559 l 1
 131.44921875 -12 l 1
 109.637695312 3 l 1
 574.916015625 503 l 1
 533.727539062 488 491.876953125 484 456.876953125 484 c 0
 433.876953125 484 398.002929688 494 381.340820312 505 c 1
 381.853515625 498 380.940429688 489 379.02734375 480 c 0
 365.423828125 416 297.404296875 303 213.404296875 303 c 0
 151.404296875 303 133.733398438 361 144.573242188 412 c 0
 163.299804688 500.099609375 239.370117188 571 311.370117188 571 c 0
 339.370117188 571 365.606445312 558 373.055664062 546 c 1
 421.7421875 521 433.616210938 511 472.616210938 511 c 0
195.59765625 398 m 0
 184.544921875 346 206.29296875 326 224.29296875 326 c 0
 279.29296875 326 341.486328125 421 353.814453125 479 c 0
 364.442382812 529 335.481445312 548 317.481445312 548 c 0
 268.481445312 548 207.92578125 456 195.59765625 398 c 0
EndSplineSet
EndChar

StartChar: parenleft
Encoding: 40 40 5
Width: 298
VWidth: 999
Flags: HW
VStem: 44 76<97.6984 405.148>
LayerCount: 2
Fore
SplineSet
97.564453125 252 m 0
 137.099609375 438 265.596679688 605 406.27734375 707 c 1
 417.5078125 706.200195312 415.241210938 699.299804688 416.451171875 689 c 1
 376.799804688 653 229.466796875 515 173.564453125 252 c 0
 117.662109375 -11 205.329101562 -149 230.251953125 -187 c 1
 225.551757812 -195 223.063476562 -202 212.638671875 -204 c 1
 42.8984375 -24 87.9990234375 207 97.564453125 252 c 0
EndSplineSet
Substitution2: "'c2sc' Versale nach Kapitaelchen 1" parenleft.sc
AlternateSubs2: "'aalt' Alle Alternativen zeigen 1" parenleft.sc
Substitution2: "'sinf' Wissenschaftliche Indices 1" parenleft.inferior
Substitution2: "'sups' Hochgestellte 1" parenleft.superior
Substitution2: "'case' Versalformen 1" parenleft.sc
EndChar

StartChar: parenright
Encoding: 41 41 6
Width: 298
VWidth: 999
Flags: HW
VStem: 178 76<98.8522 406.302>
LayerCount: 2
Fore
SplineSet
307.564453125 252 m 0
 268.028320312 66 139.532226562 -101 -1.1494140625 -203 c 1
 -12.37890625 -202.200195312 -10.1123046875 -195.299804688 -11.3232421875 -185 c 1
 28.3291015625 -149 175.662109375 -11 231.564453125 252 c 0
 287.466796875 515 199.799804688 653 174.876953125 691 c 1
 179.577148438 699 182.064453125 706 192.490234375 708 c 1
 362.229492188 528 317.12890625 297 307.564453125 252 c 0
EndSplineSet
Substitution2: "'c2sc' Versale nach Kapitaelchen 1" parenright.sc
AlternateSubs2: "'aalt' Alle Alternativen zeigen 1" parenright.sc
Substitution2: "'sinf' Wissenschaftliche Indices 1" parenright.inferior
Substitution2: "'sups' Hochgestellte 1" parenright.superior
Substitution2: "'case' Versalformen 1" parenright.sc
Colour: ff00ff
EndChar

StartChar: asterisk
Encoding: 42 42 7
Width: 369
VWidth: 999
Flags: HMW
LayerCount: 2
Fore
SplineSet
284.268554688 547 m 1
 271.90625 550 258.119140625 551 243.119140625 551 c 0
 194.119140625 551 163.606445312 558 169.983398438 588 c 0
 172.958984375 602 185.360351562 618 209.360351562 618 c 0
 243.360351562 618 254.345703125 585 294.51953125 567 c 1
 298.809570312 606 285.547851562 633 291.075195312 659 c 0
 295.538085938 680 311.364257812 698 329.364257812 698 c 0
 347.364257812 698 360.026367188 687 354.924804688 663 c 0
 349.185546875 636 323.68359375 596 315.306640625 566 c 1
 365.55859375 586 388.360351562 618 421.360351562 618 c 0
 448.360351562 618 451.108398438 598 448.983398438 588 c 0
 442.606445312 558 406.119140625 551 372.119140625 551 c 0
 353.119140625 551 334.90625 550 316.268554688 547 c 1
 342.404296875 510 389.278320312 500 380.776367188 460 c 0
 376.950195312 442 359.612304688 431 345.612304688 431 c 0
 306.612304688 431 313.427734375 496 296.717773438 535 c 1
 262.15234375 490 242.612304688 431 204.612304688 431 c 0
 187.612304688 431 178.375 444 181.563476562 459 c 0
 190.703125 502 243.404296875 510 284.268554688 547 c 1
EndSplineSet
EndChar

StartChar: plus
Encoding: 43 43 8
Width: 527
VWidth: 999
Flags: HMW
HStem: 210 44<66 239 285 461>
VStem: 239 46<34 210 254 431>
LayerCount: 2
Fore
SplineSet
338.989257812 254 m 1
 514.989257812 254 l 1
 505.63671875 210 l 1
 329.63671875 210 l 1
 292.2265625 34 l 1
 246.2265625 34 l 1
 283.63671875 210 l 1
 110.63671875 210 l 1
 119.989257812 254 l 1
 292.989257812 254 l 1
 330.612304688 431 l 1
 376.612304688 431 l 1
 338.989257812 254 l 1
EndSplineSet
AlternateSubs2: "'aalt' Alle Alternativen zeigen 1" plus.superior plus.inferior uni2098
Substitution2: "'sinf' Wissenschaftliche Indices 1" plus.inferior
Substitution2: "'sups' Hochgestellte 1" plus.superior
EndChar

StartChar: slash
Encoding: 47 47 9
Width: 317
VWidth: 999
Flags: HMW
HStem: 626 20G<245.277 293>
DStem2: 15 -59 56 -59 0.318647 0.947874<13.0645 743.77>
LayerCount: 2
Fore
SplineSet
425.311523438 646 m 1
 38.458984375 -59 l 1
 2.458984375 -59 l 1
 389.311523438 646 l 1
 425.311523438 646 l 1
EndSplineSet
Substitution2: "'sups' Hochgestellte 1" fraction
Ligature2: "'frac' Brueche 1" uni2215
AlternateSubs2: "'aalt' Alle Alternativen zeigen 1" uni2215
EndChar

StartChar: one
Encoding: 49 49 10
Width: 465
VWidth: 999
Flags: HW
HStem: -5 23<123.133 190.563 308.437 375.867> 590 20G<257.333 286.75>
VStem: 215.5 68<32.4207 512.708>
LayerCount: 2
Fore
SplineSet
308.168945312 109 m 0
 293.326171875 26 306.463867188 21 375.826171875 18 c 1
 380.55078125 12 378.212890625 1 370.9375 -5 c 1
 321.149414062 -4 299.5 0 253 0 c 0
 203.799804688 0 175.149414062 -4 125.9375 -5 c 1
 121.212890625 1 123.55078125 12 130.826171875 18 c 1
 201.463867188 21 216.7265625 26 237.168945312 109 c 0
 244.544921875 139 259.98828125 209.299804688 274.909179688 279.5 c 0
 289.831054688 349.700195312 305.336914062 425 310.712890625 455 c 0
 316.83984375 489 319.541992188 513 303.041992188 513 c 0
 284.041992188 513 260.266601562 507 210.727539062 488 c 1
 203.024414062 494.099609375 199.581054688 498.599609375 200.404296875 510 c 1
 297.119140625 551 352.068359375 575.700195312 414.659179688 610 c 1
 418.159179688 610 420.6171875 609.799804688 419.596679688 605 c 0
 415.133789062 592 399.8671875 531 385.114257812 471 c 0
 377.737304688 441 361.189453125 365.5 345.141601562 290 c 0
 329.09375 214.5 313.544921875 139 308.168945312 109 c 0
EndSplineSet
Substitution2: "'case' Versalformen 1" one.cap
AlternateSubs2: "'aalt' Alle Alternativen zeigen 1" one.oldstyle one.superior one.fitted
Substitution2: "'sups' Hochgestellte 1" one.superior
Substitution2: "'sinf' Wissenschaftliche Indices 1" one.inferior
Substitution2: "'pnum' Proportionalziffern 1" one.fitted
Substitution2: "'onum' Minuskelziffern 1" one.taboldstyle
EndChar

StartChar: two
Encoding: 50 50 11
Width: 465
VWidth: 487
Flags: HW
HStem: 0 55<135 362.002> 436 21G<90.5 109.5> 585 25<169.348 265.667>
VStem: 61 70<55 86.125 453.596 533.813> 322 88<375.443 534.727> 393 19<127.576 160.756>
LayerCount: 2
Fore
SplineSet
160.4765625 468 m 0
 173.229492188 528 249.659179688 610 360.659179688 610 c 0
 441.659179688 610 530.306640625 566 507.350585938 458 c 0
 491.196289062 382 438.84375 338 370.153320312 283 c 2
 248.53515625 186 l 2
 242.47265625 181 156.893554688 103 146.690429688 55 c 1
 334.690429688 55 l 2
 370.690429688 55 395.129882812 90 427.221679688 161 c 1
 437.646484375 163 440.221679688 161 445.159179688 156 c 1
 437.782226562 126 411.840820312 51 387.575195312 -2 c 1
 387.575195312 -2 342 0 310 0 c 2
 135 0 l 2
 103 0 61.5751953125 -2 61.5751953125 -2 c 1
 74.1162109375 57 100.318359375 105 219.57421875 205 c 1
 309.090820312 278 l 1
 380.84375 338 404.897460938 390 418.500976562 454 c 0
 438.90625 550 385.345703125 585 349.345703125 585 c 0
 276.345703125 585 245.568359375 539 240.25390625 514 c 0
 238.553710938 506 242.640625 497 243.15234375 490 c 0
 243.665039062 483 244.6015625 478 242.901367188 470 c 0
 238.86328125 451 210.674804688 436 193.674804688 436 c 0
 172.674804688 436 156.012695312 447 160.4765625 468 c 0
EndSplineSet
Substitution2: "'case' Versalformen 1" two.cap
AlternateSubs2: "'aalt' Alle Alternativen zeigen 1" two.oldstyle two.superior two.fitted
Substitution2: "'sups' Hochgestellte 1" two.superior
Substitution2: "'sinf' Wissenschaftliche Indices 1" two.inferior
Substitution2: "'pnum' Proportionalziffern 1" two.fitted
Substitution2: "'onum' Minuskelziffern 1" two.taboldstyle
EndChar

StartChar: three
Encoding: 51 51 12
Width: 465
VWidth: 487
Flags: HW
HStem: -11 25<162.154 247.227> 317 22<158.409 191.321> 585 25<173.36 262.941>
VStem: 51 73<451.833 536.318> 309 71<432.513 551.843> 335 82<108.579 271.424>
LayerCount: 2
Fore
SplineSet
343.345703125 585 m 0
 317.345703125 585 243.668945312 563 230.065429688 499 c 0
 226.02734375 480 209.012695312 447 180.012695312 447 c 0
 156.012695312 447 150.263671875 467 153.239257812 481 c 0
 160.25390625 514 222.659179688 610 369.659179688 610 c 0
 471.659179688 610 496.055664062 546 487.12890625 504 c 0
 479.901367188 470 465.124023438 424 357.370117188 364 c 1
 357.9453125 362 l 1
 414.8203125 352 483.10546875 311 459.936523438 202 c 0
 431.87890625 70 308.662109375 -11 189.662109375 -11 c 0
 129.662109375 -11 51.4013671875 16 59.9033203125 56 c 0
 63.3037109375 72 88.3427734375 91 109.342773438 91 c 0
 129.342773438 91 139.791992188 79 146.81640625 65 c 0
 154.990234375 47 156.975585938 14 207.975585938 14 c 0
 242.975585938 14 346.690429688 55 374.9609375 188 c 0
 398.979492188 301 327.805664062 319 270.805664062 319 c 0
 257.805664062 319 244.805664062 319 227.380859375 317 c 1
 227.056640625 339 l 1
 320.032226562 353 402.524414062 440 412.940429688 489 c 0
 426.119140625 551 387.345703125 585 343.345703125 585 c 0
EndSplineSet
Substitution2: "'case' Versalformen 1" three.cap
AlternateSubs2: "'aalt' Alle Alternativen zeigen 1" three.oldstyle three.superior three.fitted
Substitution2: "'sups' Hochgestellte 1" three.superior
Substitution2: "'sinf' Wissenschaftliche Indices 1" three.inferior
Substitution2: "'pnum' Proportionalziffern 1" three.fitted
Substitution2: "'onum' Minuskelziffern 1" three.taboldstyle
EndChar

StartChar: four
Encoding: 52 52 13
Width: 465
VWidth: 487
Flags: HW
HStem: -5 23<186.133 248.62 355.309 413.867> 172 37<64.2572 272.229 338.768 437.733> 590 20G<311.5 342>
VStem: 271 69<29.9697 172 209 514.017>
DStem2: 28 214 63 209 0.57767 0.81627<16.1371 385.269>
LayerCount: 2
Fore
SplineSet
316.82421875 209 m 1
 342.518554688 328 374.709960938 481.799804688 380.25390625 514 c 1
 291.231445312 419.799804688 176.196289062 291.200195312 107.424804688 209 c 1
 316.82421875 209 l 1
467.424804688 209 m 2
 478.424804688 209 481.149414062 203 479.0234375 193 c 0
 476.47265625 181 459.559570312 172 445.559570312 172 c 2
 375.359375 172 l 1
 365.166015625 123.099609375 357.33984375 84.400390625 354.87890625 70 c 0
 346.7890625 23 365.67578125 22 413.826171875 18 c 1
 418.55078125 12 416.212890625 1 408.9375 -5 c 1
 377.149414062 -4 347.400390625 0 308 0 c 0
 262 0 221.149414062 -4 188.9375 -5 c 1
 184.212890625 1 186.55078125 12 193.826171875 18 c 1
 237.463867188 21 274.301757812 24 285.87890625 70 c 0
 289.540039062 84.400390625 298.14453125 123 308.759765625 172 c 1
 103.559570312 172 l 2
 73.5595703125 172 73.298828125 199 73.4873046875 214 c 1
 195.3828125 357 346.848632812 521.5 426.321289062 599 c 0
 430.977539062 603.5 437.659179688 610 444.659179688 610 c 2
 469.659179688 610 l 1
 471.234375 608 l 1
 467.875976562 600.200195312 461.244140625 561 448.616210938 511 c 0
 440.493164062 478.900390625 407.706054688 327 383.024414062 209 c 1
 467.424804688 209 l 2
EndSplineSet
Substitution2: "'case' Versalformen 1" four.cap
AlternateSubs2: "'aalt' Alle Alternativen zeigen 1" four.oldstyle four.superior four.fitted
Substitution2: "'sups' Hochgestellte 1" four.superior
Substitution2: "'sinf' Wissenschaftliche Indices 1" four.inferior
Substitution2: "'pnum' Proportionalziffern 1" four.fitted
Substitution2: "'onum' Minuskelziffern 1" four.taboldstyle
EndChar

StartChar: five
Encoding: 53 53 14
Width: 465
VWidth: 487
Flags: HMW
HStem: -11 25<173.394 247.945> 351 40<121.777 264.656> 543 57<140.42 373.874>
VStem: 325 83<105.802 288.445>
DStem2: 76 327 121 375 0.121398 0.992604<53.1079 231.492>
LayerCount: 2
Fore
SplineSet
365.172851562 189 m 0
 388.341796875 298 342.607421875 351 277.607421875 351 c 0
 241.607421875 351 202.756835938 347 145.505859375 327 c 1
 238.596679688 605 l 1
 272.958984375 602 308.534179688 600 345.534179688 600 c 0
 398.534179688 600 453.596679688 605 511.872070312 611 c 1
 518.021484375 607 l 1
 489.693359375 549 l 1
 447.84375 545 413.41796875 543 383.41796875 543 c 0
 335.41796875 543 294.481445312 548 258.331054688 552 c 1
 200.708984375 375 l 1
 220.196289062 382 269.109375 391 312.109375 391 c 0
 424.109375 391 472.6171875 304 451.999023438 207 c 0
 425.216796875 81 317.662109375 -11 193.662109375 -11 c 0
 136.662109375 -11 58.888671875 23 67.603515625 64 c 0
 71.8544921875 84 93.193359375 95 112.193359375 95 c 0
 133.193359375 95 147.004882812 80 156.390625 63 c 0
 167.139648438 43 173.975585938 14 211.975585938 14 c 0
 271.975585938 14 344.98046875 94 365.172851562 189 c 0
EndSplineSet
Substitution2: "'case' Versalformen 1" five.cap
AlternateSubs2: "'aalt' Alle Alternativen zeigen 1" five.oldstyle five.superior five.fitted
Substitution2: "'sups' Hochgestellte 1" five.superior
Substitution2: "'sinf' Wissenschaftliche Indices 1" five.inferior
Substitution2: "'pnum' Proportionalziffern 1" five.fitted
Substitution2: "'onum' Minuskelziffern 1" five.taboldstyle
EndChar

StartChar: six
Encoding: 54 54 15
Width: 465
VWidth: 487
Flags: HW
HStem: -11 25<203.442 291.149> 345 25<178.862 279.141> 591 20G<305.5 360>
VStem: 44 77<108.251 349.574> 351 77<101.831 275.878>
LayerCount: 2
Fore
SplineSet
195.877929688 310.400390625 m 1
 183.100585938 280.400390625 174.649414062 252.400390625 169.67578125 229 c 0
 133.328125 58 194.975585938 14 257.975585938 14 c 0
 306.975585938 14 366.516601562 73 389.897460938 183 c 0
 400.525390625 233 399.33203125 345 301.33203125 345 c 0
 281.232421875 345 240.528320312 343.099609375 195.877929688 310.400390625 c 1
209.056640625 339 m 1
 243.48046875 358.400390625 296.24609375 370 327.645507812 370 c 0
 463.645507812 370 489.215820312 288 470.936523438 202 c 0
 452.65625 116 372.662109375 -11 241.662109375 -11 c 0
 164.662109375 -11 50.1640625 29 93.3134765625 232 c 0
 110.10546875 311 160.447265625 402 237.751953125 474 c 0
 307.568359375 539 378.495117188 581 485.872070312 611 c 1
 492.809570312 606 488.896484375 597 486.345703125 585 c 1
 340.490234375 534.400390625 254.912109375 431 209.056640625 339 c 1
EndSplineSet
Substitution2: "'case' Versalformen 1" six.cap
AlternateSubs2: "'aalt' Alle Alternativen zeigen 1" six.oldstyle six.superior six.fitted
Substitution2: "'sups' Hochgestellte 1" six.superior
Substitution2: "'sinf' Wissenschaftliche Indices 1" six.inferior
Substitution2: "'pnum' Proportionalziffern 1" six.fitted
Substitution2: "'onum' Minuskelziffern 1" six.taboldstyle
EndChar

StartChar: seven
Encoding: 55 55 16
Width: 465
VWidth: 487
Flags: HW
HStem: -13 21G<127 195> 545 55<109.953 360.901> 591 20G<399.5 424>
VStem: 51 22<448.946 478.14>
LayerCount: 2
Fore
SplineSet
275.84375 545 m 2
 243.84375 545 207.229492188 528 168.225585938 448 c 1
 156.94921875 446.700195312 157.104492188 447.900390625 146.86328125 451 c 1
 165.916015625 503 189.668945312 563 200.872070312 611 c 0
 201.509765625 614 202.509765625 614 205.509765625 614 c 0
 222.659179688 610 218.534179688 600 252.534179688 600 c 2
 458.534179688 600 l 2
 496.534179688 600 519.809570312 606 537.872070312 611 c 1
 551.321289062 599 l 1
 381.29296875 326 286.008789062 160 192.874023438 -10 c 1
 132.236328125 -13 l 1
 125.724609375 -6 l 1
 226.033203125 146 358.607421875 351 477.84375 545 c 1
 275.84375 545 l 2
EndSplineSet
Substitution2: "'case' Versalformen 1" seven.cap
AlternateSubs2: "'aalt' Alle Alternativen zeigen 1" seven.oldstyle seven.superior seven.fitted
Substitution2: "'sups' Hochgestellte 1" seven.superior
Substitution2: "'sinf' Wissenschaftliche Indices 1" seven.inferior
Substitution2: "'pnum' Proportionalziffern 1" seven.fitted
Substitution2: "'onum' Minuskelziffern 1" seven.taboldstyle
EndChar

StartChar: nine
Encoding: 57 57 17
Width: 465
VWidth: 487
Flags: HW
HStem: -12 20<111 165.5> 229 25<191.859 292.138> 585 25<179.851 267.558>
VStem: 43 77<323.122 497.169> 350 77<249.426 490.749>
LayerCount: 2
Fore
SplineSet
402.443359375 288.599609375 m 1
 415.220703125 318.599609375 423.671875 346.599609375 428.645507812 370 c 0
 464.993164062 541 403.345703125 585 340.345703125 585 c 0
 291.345703125 585 231.8046875 526 208.423828125 416 c 0
 197.795898438 366 198.989257812 254 296.989257812 254 c 0
 317.08984375 254 357.79296875 255.900390625 402.443359375 288.599609375 c 1
389.264648438 260 m 1
 354.840820312 240.599609375 302.075195312 229 270.67578125 229 c 0
 134.67578125 229 109.10546875 311 127.384765625 397 c 0
 145.665039062 483 225.659179688 610 356.659179688 610 c 0
 433.659179688 610 548.157226562 570 505.0078125 367 c 0
 488.215820312 288 437.874023438 197 360.569335938 125 c 0
 290.752929688 60 219.826171875 18 112.44921875 -12 c 1
 105.51171875 -7 109.424804688 2 111.975585938 14 c 1
 257.831054688 64.599609375 343.409179688 168 389.264648438 260 c 1
EndSplineSet
Substitution2: "'case' Versalformen 1" nine.cap
AlternateSubs2: "'aalt' Alle Alternativen zeigen 1" nine.oldstyle nine.superior nine.fitted
Substitution2: "'sups' Hochgestellte 1" nine.superior
Substitution2: "'sinf' Wissenschaftliche Indices 1" nine.inferior
Substitution2: "'pnum' Proportionalziffern 1" nine.fitted
Substitution2: "'onum' Minuskelziffern 1" nine.taboldstyle
Colour: ff00ff
EndChar

StartChar: colon
Encoding: 58 58 18
Width: 256
VWidth: 999
Flags: HW
HStem: 44 100<104.006 182.198> 307 100<104.006 182.198>
VStem: 93 100<55.1278 132.282 318.128 395.282>
LayerCount: 2
Fore
SplineSet
169.307617188 359 m 0
 174.409179688 383 207.510742188 407 231.510742188 407 c 0
 258.510742188 407 273.55859375 379 268.458007812 355 c 0
 263.97265625 333.900390625 234.254882812 307 206.254882812 307 c 0
 182.254882812 307 163.78125 333 169.307617188 359 c 0
113.405273438 96 m 0
 118.506835938 120 151.608398438 144 175.608398438 144 c 0
 202.608398438 144 217.65625 116 212.555664062 92 c 0
 208.0703125 70.900390625 178.352539062 44 150.352539062 44 c 0
 126.352539062 44 107.87890625 70 113.405273438 96 c 0
EndSplineSet
Colour: ff00ff
EndChar

StartChar: less
Encoding: 60 60 19
Width: 487
VWidth: 999
Flags: HW
HStem: 73 331
DStem2: 49 263 122 239 0.940425 0.34<60.4911 410.859> 122 239 49 215 0.939653 -0.34213<0 350.736>
LayerCount: 2
Fore
SplineSet
172.80078125 239 m 1
 465.14453125 123 l 1
 475.168945312 109 469.791992188 79 454.516601562 73 c 1
 94.69921875 215 l 1
 88.5244140625 229.700195312 91.9248046875 245.700195312 104.90234375 263 c 1
 524.873046875 404 l 1
 537.59765625 398 530.220703125 368 514.245117188 354 c 1
 172.80078125 239 l 1
EndSplineSet
EndChar

StartChar: equal
Encoding: 61 61 20
Width: 527
VWidth: 999
Flags: HW
HStem: 144 49<66 461> 269 49<66 461>
LayerCount: 2
Fore
SplineSet
528.592773438 318 m 1
 518.177734375 269 l 1
 123.177734375 269 l 1
 133.592773438 318 l 1
 528.592773438 318 l 1
502.0234375 193 m 1
 491.608398438 144 l 1
 96.6083984375 144 l 1
 107.0234375 193 l 1
 502.0234375 193 l 1
EndSplineSet
AlternateSubs2: "'aalt' Alle Alternativen zeigen 1" equal.superior
Substitution2: "'sinf' Wissenschaftliche Indices 1" equal.inferior
Substitution2: "'sups' Hochgestellte 1" equal.superior
EndChar

StartChar: greater
Encoding: 62 62 21
Width: 487
VWidth: 999
Flags: HW
HStem: 71 331
DStem2: 366 236 439 260 0.939653 -0.34213<-350.736 0> 439 212 366 236 0.940425 0.34<-410.859 -60.4911>
LayerCount: 2
Fore
SplineSet
416.163085938 236 m 1
 123.8203125 352 l 1
 113.795898438 366 119.172851562 396 134.447265625 402 c 1
 494.264648438 260 l 1
 500.440429688 245.299804688 497.0390625 229.299804688 484.061523438 212 c 1
 64.091796875 71 l 1
 51.3671875 77 58.7431640625 107 74.7197265625 121 c 1
 416.163085938 236 l 1
EndSplineSet
Colour: ff00ff
EndChar

StartChar: question
Encoding: 63 63 22
Width: 420
VWidth: 487
Flags: HW
HStem: -5 100<149.006 227.198> 634 25<147.398 237.915>
VStem: 44 65<506.606 592.641> 138 100<6.12777 83.2822> 173 31<174.009 299.829> 295 76<432.41 583.607>
LayerCount: 2
Fore
SplineSet
230.58203125 572 m 0
 227.393554688 557 227.119140625 551 230.055664062 546 c 0
 232.993164062 541 233.717773438 535 230.954101562 522 c 0
 226.065429688 499 204.514648438 487 186.514648438 487 c 0
 171.514648438 487 149.215820312 495 156.655273438 530 c 0
 164.732421875 568 189.68359375 596 223.78515625 620 c 1
 257.098632812 645 300.075195312 659 351.075195312 659 c 0
 448.075195312 659 498.321289062 599 478.978515625 508 c 0
 462.186523438 429 393.833984375 385 341.607421875 351 c 0
 315.994140625 334 293.592773438 318 280.979492188 301 c 0
 263.666015625 276 257.564453125 252 252.462890625 228 c 2
 243.110351562 184 l 2
 241.622070312 177 232.984375 174 224.984375 174 c 0
 216.984375 174 210.622070312 177 212.110351562 184 c 2
 221.887695312 230 l 2
 231.028320312 273 247.568359375 332 322.109375 391 c 0
 367.974609375 428 392.138671875 457 402.12890625 504 c 0
 415.944335938 569 389.760742188 634 335.760742188 634 c 0
 281.760742188 634 236.958984375 602 230.58203125 572 c 0
147.990234375 47 m 0
 153.091796875 71 186.193359375 95 210.193359375 95 c 0
 237.193359375 95 252.241210938 67 247.139648438 43 c 0
 242.655273438 21.900390625 212.9375 -5 184.9375 -5 c 0
 160.9375 -5 142.463867188 21 147.990234375 47 c 0
EndSplineSet
Colour: ff9ccc
EndChar

StartChar: at
Encoding: 64 64 23
Width: 895
VWidth: 999
Flags: HMW
HStem: -158 28<371.372 562.268> 27 35<379.946 447.029 549.503 668.313> 379 31<448.008 547.566> 585 26<369.743 538.693>
VStem: 59 74<106.415 345.19> 273 67<93.363 252.641> 515 62<62.2365 153.555> 765 74<177.345 388.73>
DStem2: 582 367 650 399 0.226513 0.974008<0 25.9358>
LayerCount: 2
Fore
SplineSet
636.16796875 316 m 0
 644.245117188 354 620.55859375 379 584.55859375 379 c 0
 567.55859375 379 519.645507812 370 483.056640625 339 c 0
 421.215820312 288 387.612304688 224 374.434570312 162 c 0
 364.231445312 114 375.454101562 68 438.454101562 68 c 0
 480.75390625 68 557.688476562 155.200195312 599.7578125 230.799804688 c 0
 615.430664062 258.900390625 631.024414062 291.799804688 636.16796875 316 c 0
592.729492188 74 m 0
 590.603515625 64 599.178710938 62 601.178710938 62 c 0
 703.178710938 62 788.168945312 109 823.453125 275 c 0
 867.239257812 481 708.345703125 585 583.345703125 585 c 0
 431.345703125 585 234.6015625 478 184.2265625 241 c 0
 152.342773438 91 187.3671875 -130 445.3671875 -130 c 0
 530.3671875 -130 598.319335938 -102 661.458984375 -59 c 1
 670.6328125 -77 l 1
 600.85546875 -123 533.416015625 -158 420.416015625 -158 c 0
 181.416015625 -158 61.1259765625 10 106.400390625 223 c 0
 152.099609375 438 373.872070312 611 598.872070312 611 c 0
 813.872070312 611 938.689453125 469 898.94140625 282 c 0
 874.709960938 168 774.739257812 27 556.739257812 27 c 0
 527.739257812 27 526.052734375 52 529.454101562 68 c 0
 532.642578125 83 544.53125 106 557.844726562 131 c 1
 556.057617188 132 l 1
 496.328125 58 435.739257812 27 400.739257812 27 c 0
 300.739257812 27 297.018554688 113 305.521484375 153 c 0
 335.916992188 296 487.1484375 410 593.1484375 410 c 0
 626.1484375 410 655.53515625 393 660.0078125 367 c 1
 672.322265625 392 l 1
 720.873046875 404 l 1
 734.810546875 399 l 1
 619.970703125 141 l 2
 607.953125 114.099609375 594.110351562 80.5 592.729492188 74 c 0
EndSplineSet
EndChar

StartChar: A
Encoding: 65 65 24
Width: 699
VWidth: 999
Flags: HW
HStem: -5 23<5.63281 58.3144 161.826 220.367 436.633 506.769 639.689 696.367> 246 32<235.325 439.5> 638 20G<386 400.682>
DStem2: 109.484 92 147.5 69 0.391092 0.920352<-35.0279 195.03 229.853 516.471> 393.5 658 343.5 555 0.337975 -0.941155<80.0402 373.186 407.189 629.822>
AnchorPoint: "unten_punkt" 129.219 -110 basechar 0
AnchorPoint: "unten_anhang" -38.3369 5 basechar 0
AnchorPoint: "top_akzent" 379.273 850 basechar 0
LayerCount: 2
Fore
SplineSet
319.590820312 278 m 2
 498.590820312 278 l 1
 461.46875 555 l 1
 458.46875 555 l 1
 298.280273438 296.299804688 l 2
 291.912109375 286.099609375 297.590820312 278 319.590820312 278 c 2
162.166015625 69 m 2
 137.102539062 27.2998046875 183.278320312 20.599609375 220.326171875 18 c 1
 225.05078125 12 222.712890625 1 215.4375 -5 c 1
 178.649414062 -4 149.5 0 108.5 0 c 0
 69.5 0 45.6494140625 -4 8.4375 -5 c 1
 3.712890625 1 6.05078125 12 13.326171875 18 c 1
 57.4638671875 21 90.3525390625 31.2998046875 129.055664062 92 c 2
 477.111328125 638 l 1
 490.111328125 638 516.44921875 649 533.362304688 658 c 1
 618.654296875 76 l 2
 625.813476562 25 658.26953125 21.5 696.326171875 18 c 1
 701.05078125 12 698.712890625 1 691.4375 -5 c 1
 654.649414062 -4 612.5 0 571.5 0 c 0
 532.5 0 476.649414062 -4 439.4375 -5 c 1
 434.712890625 1 437.05078125 12 444.326171875 18 c 1
 492.6484375 21.400390625 533.063476562 21 527.678710938 62 c 2
 503.2890625 246 l 1
 294.7890625 246 l 2
 270.7890625 246 262.875976562 237 255.112304688 224 c 2
 162.166015625 69 l 2
EndSplineSet
Position2: "'cpsp' Versalabstaende 1" dx=2 dy=0 dh=5 dv=0
Substitution2: "'c2sc' Versale nach Kapitaelchen 1" a.sc
EndChar

StartChar: B
Encoding: 66 66 25
Width: 584
VWidth: 999
Flags: HW
HStem: -5 23<15.6328 83.4176 219.612 361.594> 337 24<187.549 333.596> 626 24<15.9888 84.9103 197.412 327.964>
VStem: 108.5 79<35.6889 337 360.997 612.475> 409.5 75<425.884 562.652> 456.5 87<94.8138 251.999>
AnchorPoint: "mittelpunkt" 184.823 185 basechar 0
AnchorPoint: "top_rechts" 664.092 732 basechar 0
AnchorPoint: "unten_punkt" 244.119 -110 basechar 0
AnchorPoint: "unten_anhang" 249.5 0 basechar 0
AnchorPoint: "top_akzent" 447.173 850 basechar 0
LayerCount: 2
Fore
SplineSet
264.233398438 361 m 1
 341.233398438 361 l 2
 424.233398438 361 493.672851562 396 511.739257812 481 c 0
 533.420898438 583 466.560546875 626 410.560546875 626 c 0
 323.560546875 626 320.934570312 616 313.420898438 583 c 0
 297.419921875 512.900390625 279.928710938 433.900390625 264.233398438 361 c 1
284.598632812 645 m 0
 327.598632812 645 375.662109375 650 410.662109375 650 c 0
 596.662109375 650 603.53125 560 589.290039062 493 c 0
 577.749023438 438.700195312 524.944335938 387.400390625 469.4453125 362 c 1
 469.020507812 360 l 1
 550.706054688 335 603.015625 280 582.610351562 184 c 0
 564.330078125 98 492.4375 -5 293.4375 -5 c 0
 204.4375 -5 191.5 0 148.5 0 c 0
 97.7998046875 0 67.6494140625 -4 18.4375 -5 c 1
 13.712890625 1 16.05078125 12 23.326171875 18 c 1
 93.9638671875 21 110.177734375 25.2998046875 129.668945312 109 c 0
 149.010742188 192 159.088867188 238 176.73046875 321 c 0
 194.373046875 404 204.087890625 453 220.430664062 536 c 0
 236.708984375 618.700195312 222.135742188 624 152.7734375 627 c 1
 148.047851562 633 150.38671875 644 157.662109375 650 c 1
 207.44921875 649 234.298828125 645 284.598632812 645 c 0
207.567382812 85 m 0
 201.252929688 52 207.326171875 18 277.326171875 18 c 0
 429.326171875 18 476.055664062 92 491.572265625 165 c 0
 510.702148438 255 468.131835938 337 331.131835938 337 c 2
 259.131835938 337 l 1
 258.004882812 331.700195312 256.899414062 326.5 255.793945312 321.299804688 c 0
 238.15234375 238.299804688 223.509765625 168 207.567382812 85 c 0
EndSplineSet
Position2: "'cpsp' Versalabstaende 1" dx=2 dy=0 dh=5 dv=0
Substitution2: "'c2sc' Versale nach Kapitaelchen 1" b.sc
EndChar

StartChar: C
Encoding: 67 67 26
Width: 648
VWidth: 999
Flags: HW
HStem: -10 31<284.171 446.689> 631 27<291.137 434.708>
VStem: 37 88<203.394 443.076> 578 23<454.584 484.514>
AnchorPoint: "mittelpunkt" 414.955 315 basechar 0
AnchorPoint: "top_rechts" 766.592 732 basechar 0
AnchorPoint: "unten_punkt" 341.619 -110 basechar 0
AnchorPoint: "unten_anhang" 356.512 -7 basechar 0
AnchorPoint: "top_akzent" 522.673 850 basechar 0
LayerCount: 2
Fore
SplineSet
356.874023438 -10 m 0
 141.874023438 -10 69.7333984375 154 103.955078125 315 c 0
 126.125 419.299804688 185.471679688 512.200195312 264.794921875 573 c 0
 335.2734375 627 414.862304688 658 499.862304688 658 c 0
 622.862304688 658 659.360351562 618 709.296875 613 c 1
 706.606445312 558 704.404296875 510 698.350585938 458 c 1
 690.130859375 453.200195312 683.318359375 452.200195312 674.288085938 453 c 1
 666.568359375 539 627.123046875 631 489.123046875 631 c 0
 437.123046875 631 361.346679688 601 298.780273438 540 c 0
 252.736328125 495.099609375 214.337890625 420.299804688 195.994140625 334 c 0
 164.9609375 188 207.463867188 21 362.463867188 21 c 0
 455.463867188 21 532.178710938 62 619.7578125 140 c 1
 630.7578125 140 636.482421875 134 639.569335938 125 c 1
 552.65234375 36 453.874023438 -10 356.874023438 -10 c 0
EndSplineSet
Position2: "'cpsp' Versalabstaende 1" dx=2 dy=0 dh=5 dv=0
Substitution2: "'c2sc' Versale nach Kapitaelchen 1" c.sc
EndChar

StartChar: D
Encoding: 68 68 27
Width: 705
VWidth: 999
Flags: HW
HStem: -5 24<16.4888 84.7557 227.239 401.619> 626 24<16.4888 84.7557 216.684 366.266>
VStem: 110 78<42.91 609.13> 579 90<178.393 416.821>
AnchorPoint: "mittelpunkt" 416.955 315 basechar 0
AnchorPoint: "top_rechts" 778.592 732 basechar 0
AnchorPoint: "unten_punkt" 259.619 -110 basechar 0
AnchorPoint: "unten_anhang" 283.213 1 basechar 0
AnchorPoint: "top_akzent" 490.673 850 basechar 0
LayerCount: 2
Fore
SplineSet
215.168945312 109 m 0
 203.990234375 47 205.0390625 19 313.0390625 19 c 0
 454.0390625 19 596.4296875 82 639.366210938 284 c 0
 672.099609375 438 633.060546875 626 417.060546875 626 c 0
 325.060546875 626 321.108398438 598 305.930664062 536 c 0
 286.075195312 452 273.66015625 403 256.018554688 320 c 0
 238.375976562 237 229.598632812 191 215.168945312 109 c 0
285.098632812 645 m 0
 323.098632812 645 392.162109375 650 460.162109375 650 c 0
 652.162109375 650 774.002929688 494 734.467773438 308 c 0
 682.178710938 62 479.9375 -5 338.9375 -5 c 0
 235.9375 -5 186 0 150 0 c 0
 99 0 68.1494140625 -4 18.9375 -5 c 1
 14.212890625 1 16.55078125 12 23.826171875 18 c 1
 94.4638671875 21 109.526367188 26 129.168945312 109 c 0
 148.810546875 192 160.588867188 238 178.23046875 321 c 0
 195.873046875 404 204.288085938 453 219.930664062 536 c 0
 235.572265625 619 222.635742188 624 153.2734375 627 c 1
 148.547851562 633 150.88671875 644 158.162109375 650 c 1
 207.94921875 649 235.098632812 645 285.098632812 645 c 0
EndSplineSet
Position2: "'cpsp' Versalabstaende 1" dx=2 dy=0 dh=5 dv=0
Substitution2: "'c2sc' Versale nach Kapitaelchen 1" d.sc
EndChar

StartChar: E
Encoding: 69 69 28
Width: 567
VWidth: 999
Flags: HMW
HStem: -5 23<16.1328 83.0803> 0 26<199.007 431.875> 328 28<188 375.75> 618 27<199.375 434.686> 627 23<16.1328 83.0803> 632 20G<483.5 493.5>
VStem: 108 79<30.3808 328 356 614.619> 396 22<256.032 304.748 375.022 427.968> 494 24<497.515 529.972>
AnchorPoint: "top_rechts" 447.592 732 basechar 0
AnchorPoint: "unten_anhang" 53.8506 4 basechar 0
AnchorPoint: "unten_punkt" 33.6191 -110 basechar 0
AnchorPoint: "top_akzent" 226.673 850 basechar 0
LayerCount: 2
Fore
SplineSet
379.8828125 357 m 2
 465.03125 357.700195312 471.43359375 369 486.124023438 424 c 1
 493.399414062 430 503.399414062 430 508.124023438 424 c 1
 500.747070312 394 492.986328125 371.599609375 485.84375 338 c 0
 479.361328125 307.5 479.704101562 295 473.264648438 260 c 1
 465.989257812 254 455.989257812 254 451.264648438 260 c 1
 457.830078125 305 458.357421875 326.299804688 373.505859375 327 c 2
 256.71875 328 l 1
 256.71875 328 218.521484375 153 203.666015625 69 c 0
 198.927734375 42 209.526367188 26 231.526367188 26 c 2
 387.526367188 26 l 2
 463.526367188 26 514.830078125 98 550.134765625 170 c 1
 563.772460938 173 564.34765625 171 573.072265625 165 c 1
 554.231445312 114 525.565429688 45 500.9375 -5 c 1
 500.9375 -5 422 0 374 0 c 2
 152 0 l 2
 122 0 68.1494140625 -4 18.9375 -5 c 1
 14.212890625 1 16.55078125 12 23.826171875 18 c 1
 94.4638671875 21 108.526367188 26 129.168945312 109 c 0
 148.598632812 191 158.588867188 238 176.23046875 321 c 0
 193.873046875 404 204.500976562 454 219.930664062 536 c 0
 234.572265625 619 222.635742188 624 153.2734375 627 c 1
 148.547851562 633 150.88671875 644 158.162109375 650 c 1
 207.94921875 649 257.098632812 645 287.098632812 645 c 2
 579.098632812 645 l 2
 603.098632812 645 612.94921875 649 630.586914062 652 c 0
 633.586914062 652 634.374023438 651 633.94921875 649 c 0
 634.249023438 641 628.206054688 542 624.491210938 501 c 1
 613.427734375 496 611.002929688 494 599.427734375 496 c 1
 592.094726562 565 588.360351562 618 513.360351562 618 c 2
 357.360351562 618 l 2
 333.360351562 618 317.108398438 598 311.0078125 574 c 0
 290.578125 492 262.669921875 356 262.669921875 356 c 1
 379.8828125 357 l 2
EndSplineSet
Position2: "'cpsp' Versalabstaende 1" dx=2 dy=0 dh=5 dv=0
Substitution2: "'c2sc' Versale nach Kapitaelchen 1" e.sc
EndChar

StartChar: F
Encoding: 70 70 29
Width: 497
VWidth: 999
Flags: HMW
HStem: -5 23<15.6328 83.144 222.846 299.3> 318 28<184.5 371.843> 618 27<195.829 400.398> 627 23<15.6328 83.134> 632 20G<449 459>
VStem: 108 79<39.9098 318 346 614.498> 391.5 23<246.133 295.939 363.908 417.867> 460.5 23<497.558 529.198>
AnchorPoint: "top_rechts" 447.592 732 basechar 0
AnchorPoint: "unten_anhang" 53.8506 4 basechar 0
AnchorPoint: "unten_punkt" 28.6191 -110 basechar 0
AnchorPoint: "top_akzent" 226.673 850 basechar 0
LayerCount: 2
Fore
SplineSet
212.168945312 109 m 0
 196.526367188 26 233.463867188 21 302.826171875 18 c 1
 307.55078125 12 305.212890625 1 297.9375 -5 c 1
 249.149414062 -4 209.400390625 0 152 0 c 0
 100.5 0 68.1494140625 -4 18.9375 -5 c 1
 14.212890625 1 16.55078125 12 23.826171875 18 c 1
 94.4638671875 21 108.526367188 26 129.168945312 109 c 0
 148.598632812 191 158.588867188 238 176.23046875 321 c 0
 193.873046875 404 204.500976562 454 219.930664062 536 c 0
 234.572265625 619 222.635742188 624 153.2734375 627 c 1
 148.547851562 633 150.88671875 644 158.162109375 650 c 1
 207.94921875 649 287.098632812 645 287.098632812 645 c 1
 549.098632812 645 l 2
 573.098632812 645 582.94921875 649 600.586914062 652 c 0
 603.586914062 652 604.374023438 651 603.94921875 649 c 0
 604.249023438 641 598.206054688 542 594.491210938 501 c 1
 583.427734375 496 581.002929688 494 569.427734375 496 c 1
 562.094726562 565 558.360351562 618 483.360351562 618 c 2
 357.360351562 618 l 2
 333.360351562 618 317.108398438 598 311.0078125 574 c 0
 290.578125 492 260.544921875 346 260.544921875 346 c 1
 377.756835938 347 l 2
 462.90625 347.700195312 469.307617188 359 483.998046875 414 c 1
 491.2734375 420 501.2734375 420 505.998046875 414 c 1
 498.622070312 384 490.860351562 361.599609375 483.71875 328 c 0
 477.235351562 297.5 477.579101562 285 471.138671875 250 c 1
 463.864257812 244 453.864257812 244 449.138671875 250 c 1
 455.704101562 295 456.231445312 316.299804688 371.380859375 317 c 2
 254.592773438 318 l 1
 254.592773438 318 227.0234375 193 212.168945312 109 c 0
EndSplineSet
Position2: "'cpsp' Versalabstaende 1" dx=2 dy=0 dh=5 dv=0
Substitution2: "'c2sc' Versale nach Kapitaelchen 1" f.sc
EndChar

StartChar: G
Encoding: 71 71 30
Width: 710
VWidth: 999
Flags: HMW
HStem: -10 26<314.464 460.634> 284 26<454.361 523.245 630.397 668.639> 631 27<292.38 445.195>
VStem: 32 87<214.802 432.033> 540 79<83.4212 274.003>
AnchorPoint: "mittelpunkt" 230.807 335 basechar 0
AnchorPoint: "top_rechts" 638.191 732 basechar 0
AnchorPoint: "unten_anhang" 219.025 2 basechar 0
AnchorPoint: "unten_punkt" 195.219 -110 basechar 0
AnchorPoint: "top_akzent" 397.273 850 basechar 0
LayerCount: 2
Fore
SplineSet
513.862304688 658 m 0
 635.862304688 658 662.296875 613 722.296875 613 c 1
 721.844726562 577 718.323242188 527.5 711.563476562 459 c 1
 703.094726562 453.5 696.288085938 453 686.288085938 453 c 1
 678.568359375 539 639.123046875 631 494.123046875 631 c 0
 367.123046875 631 225.703125 502 188.505859375 327 c 0
 160.448242188 195 217.401367188 16 395.401367188 16 c 0
 449.401367188 16 514.927734375 42 555.729492188 74 c 1
 590.163085938 236 l 2
 598.686523438 276.099609375 572.373046875 279.799804688 518.366210938 284 c 1
 513.641601562 290 516.6171875 304 523.892578125 310 c 1
 570.6796875 309 607.830078125 305 646.830078125 305 c 0
 686.830078125 305 700.6796875 309 730.892578125 310 c 1
 735.6171875 304 732.641601562 290 725.366210938 284 c 1
 695.728515625 281 676.645507812 271.200195312 669.163085938 236 c 2
 642.59375 111 l 2
 640.255859375 100 643.555664062 92 652.642578125 83 c 1
 572.313476562 25 484.874023438 -10 366.874023438 -10 c 0
 165.874023438 -10 60.482421875 134 97.2548828125 307 c 0
 144.017578125 527 341.862304688 658 513.862304688 658 c 0
EndSplineSet
Position2: "'cpsp' Versalabstaende 1" dx=2 dy=0 dh=5 dv=0
Substitution2: "'c2sc' Versale nach Kapitaelchen 1" g.sc
EndChar

StartChar: grave
Encoding: 96 96 31
Width: 392
VWidth: 999
Flags: HW
LayerCount: 2
Fore
SplineSet
315.524414062 647 m 1
 358.7421875 521 l 2
 361.616210938 511 361.12890625 504 359.640625 497 c 0
 358.578125 492 350.302734375 486 342.302734375 486 c 0
 336.302734375 486 330.365234375 491 317.553710938 506 c 2
 226.72265625 615 l 1
 231.060546875 626 l 1
 240.3359375 632 266.94921875 649 300.94921875 649 c 0
 305.94921875 649 311.736328125 648 315.524414062 647 c 1
EndSplineSet
Substitution2: "'case' Versalformen 1" uni0358
Colour: ff00ff
EndChar

StartChar: ograve
Encoding: 242 242 32
Width: 482
VWidth: 999
Flags: HW
HStem: -10 22<207.901 294.241> 397 22<183.865 273.526>
VStem: 39 76<110.22 300.9> 365 76<102.387 301.282>
AnchorPoint: "top_akzent" 432.272 834 basechar 0
AnchorPoint: "komb_OR" 504.173 396 basechar 0
LayerCount: 2
Fore
SplineSet
363.4375 656 m 1
 406.655273438 530 l 2
 409.529296875 520 409.041992188 513 407.553710938 506 c 0
 406.491210938 501 398.215820312 495 390.215820312 495 c 0
 384.215820312 495 378.278320312 500 365.466796875 515 c 2
 274.635742188 624 l 1
 278.973632812 635 l 1
 288.249023438 641 314.862304688 658 348.862304688 658 c 0
 353.862304688 658 359.649414062 657 363.4375 656 c 1
81.4482421875 195 m 0
 94.2021484375 255 124.10546875 311 167.8203125 352 c 0
 211.53515625 393 268.061523438 419 331.061523438 419 c 0
 477.061523438 419 506.404296875 303 485.361328125 204 c 0
 473.033203125 146 441.280273438 86 389.352539062 44 c 0
 349.55078125 12 298.874023438 -10 237.874023438 -10 c 0
 102.874023438 -10 60.830078125 98 81.4482421875 195 c 0
312.172851562 396 m 0
 226.172851562 396 179.766601562 300 162.125 217 c 0
 146.608398438 144 157.763671875 13 256.763671875 13 c 0
 301.763671875 13 377.478515625 54 402.984375 174 c 0
 432.10546875 311 394.172851562 396 312.172851562 396 c 0
EndSplineSet
Substitution2: "'smcp' Gemeine nach Kapitaelchen 1" ograve.sc
AlternateSubs2: "'aalt' Alle Alternativen zeigen 1" ograve.sc
Colour: ff00ff
EndChar

StartChar: oacute
Encoding: 243 243 33
Width: 482
VWidth: 999
Flags: HW
HStem: -10 22<207.901 294.241> 397 22<183.865 273.526>
VStem: 39 76<110.22 300.9> 365 76<102.387 301.282>
AnchorPoint: "top_akzent" 432.272 834 basechar 0
AnchorPoint: "komb_OR" 504.173 396 basechar 0
LayerCount: 2
Fore
SplineSet
409.4375 656 m 1
 412.649414062 657 418.862304688 658 423.862304688 658 c 0
 430.262695312 658 455.649414062 657 473.973632812 635 c 1
 474.635742188 624 l 1
 336.466796875 515 l 2
 318.278320312 500 309.427734375 496 302.427734375 496 c 0
 295.427734375 496 289.703125 502 291.19140625 509 c 0
 293.572265625 520.200195312 297.721679688 524.200195312 308.54296875 537 c 2
 409.4375 656 l 1
81.4482421875 195 m 0
 94.2021484375 255 124.10546875 311 167.8203125 352 c 0
 211.53515625 393 268.061523438 419 331.061523438 419 c 0
 477.061523438 419 506.404296875 303 485.361328125 204 c 0
 473.033203125 146 441.280273438 86 389.352539062 44 c 0
 349.55078125 12 298.874023438 -10 237.874023438 -10 c 0
 102.874023438 -10 60.830078125 98 81.4482421875 195 c 0
312.172851562 396 m 0
 226.172851562 396 179.766601562 300 162.125 217 c 0
 146.608398438 144 157.763671875 13 256.763671875 13 c 0
 301.763671875 13 377.478515625 54 402.984375 174 c 0
 432.10546875 311 394.172851562 396 312.172851562 396 c 0
EndSplineSet
Substitution2: "'smcp' Gemeine nach Kapitaelchen 1" oacute.sc
AlternateSubs2: "'aalt' Alle Alternativen zeigen 1" oacute.sc
Colour: ff00ff
EndChar

StartChar: ocircumflex
Encoding: 244 244 34
Width: 482
VWidth: 999
Flags: HW
HStem: -10 22<208.901 295.241> 397 22<184.865 274.526>
VStem: 40 76<110.22 300.9> 115 253<539 539> 366 76<102.387 301.282>
AnchorPoint: "top_akzent" 432.06 833 basechar 0
AnchorPoint: "komb_OR" 504.173 396 basechar 0
LayerCount: 2
Fore
SplineSet
397.4375 656 m 1
 416.447265625 609 449.181640625 556 476.678710938 516 c 1
 470.19140625 509 459.869140625 500.900390625 450.065429688 499 c 1
 417.166992188 523 388.119140625 551 364.708007812 582 c 1
 325.90625 550 286.7421875 521 243.065429688 499 c 1
 234.491210938 501 228.766601562 507 224.678710938 516 c 1
 269.181640625 556 326.659179688 610 365.4375 656 c 1
 376.625976562 658.299804688 387.168945312 658.5 397.4375 656 c 1
81.4482421875 195 m 0
 94.2021484375 255 124.10546875 311 167.8203125 352 c 0
 211.53515625 393 268.061523438 419 331.061523438 419 c 0
 477.061523438 419 506.404296875 303 485.361328125 204 c 0
 473.033203125 146 441.280273438 86 389.352539062 44 c 0
 349.55078125 12 298.874023438 -10 237.874023438 -10 c 0
 102.874023438 -10 60.830078125 98 81.4482421875 195 c 0
312.172851562 396 m 0
 226.172851562 396 179.766601562 300 162.125 217 c 0
 146.608398438 144 157.763671875 13 256.763671875 13 c 0
 301.763671875 13 377.478515625 54 402.984375 174 c 0
 432.10546875 311 394.172851562 396 312.172851562 396 c 0
EndSplineSet
Substitution2: "'smcp' Gemeine nach Kapitaelchen 1" ocircumflex.sc
AlternateSubs2: "'aalt' Alle Alternativen zeigen 1" ocircumflex.sc
Colour: ff00ff
EndChar

StartChar: otilde
Encoding: 245 245 35
Width: 482
VWidth: 999
Flags: HW
HStem: -10 22<207.901 294.241> 397 22<183.865 273.526> 526 44<253 340> 574 46<135 226> 613 10
VStem: 39 76<110.22 300.9> 365 76<102.387 301.282>
AnchorPoint: "top_akzent" 432.272 834 basechar 0
AnchorPoint: "komb_OR" 504.173 396 basechar 0
LayerCount: 2
Fore
SplineSet
430.470703125 595 m 0
 452.470703125 595 465.596679688 605 488.524414062 647 c 1
 499.736328125 648 509.098632812 645 514.249023438 641 c 1
 489.495117188 581 452.206054688 542 406.206054688 542 c 0
 384.206054688 542 367.03125 560 349.0078125 574 c 0
 333.345703125 585 316.045898438 593 299.045898438 593 c 0
 273.045898438 593 259.857421875 578 242.84375 545 c 1
 231.41796875 543 221.630859375 544 216.90625 550 c 1
 243.447265625 609 274.736328125 648 317.736328125 648 c 0
 347.736328125 648 365.485351562 628 382.509765625 614 c 0
 395.958984375 602 411.470703125 595 430.470703125 595 c 0
81.4482421875 195 m 0
 94.2021484375 255 124.10546875 311 167.8203125 352 c 0
 211.53515625 393 268.061523438 419 331.061523438 419 c 0
 477.061523438 419 506.404296875 303 485.361328125 204 c 0
 473.033203125 146 441.280273438 86 389.352539062 44 c 0
 349.55078125 12 298.874023438 -10 237.874023438 -10 c 0
 102.874023438 -10 60.830078125 98 81.4482421875 195 c 0
312.172851562 396 m 0
 226.172851562 396 179.766601562 300 162.125 217 c 0
 146.608398438 144 157.763671875 13 256.763671875 13 c 0
 301.763671875 13 377.478515625 54 402.984375 174 c 0
 432.10546875 311 394.172851562 396 312.172851562 396 c 0
EndSplineSet
Substitution2: "'smcp' Gemeine nach Kapitaelchen 1" otilde.sc
AlternateSubs2: "'aalt' Alle Alternativen zeigen 1" otilde.sc
Colour: ff00ff
EndChar

StartChar: odieresis
Encoding: 246 246 36
Width: 482
VWidth: 999
Flags: HW
HStem: -10 22<207.901 294.241> 397 22<183.865 273.526> 528 95<118.016 195.984 287.016 364.984>
VStem: 39 76<110.22 300.9> 110 94<535.394 615.312> 279 94<535.394 615.312> 365 76<102.387 301.282>
AnchorPoint: "top_akzent" 432.272 834 basechar 0
LayerCount: 2
Fore
SplineSet
232.219726562 575 m 0
 237.74609375 601 263.422851562 623 289.422851562 623 c 0
 315.422851562 623 331.74609375 601 326.219726562 575 c 0
 320.693359375 549 295.229492188 528 269.229492188 528 c 0
 243.229492188 528 226.693359375 549 232.219726562 575 c 0
401.219726562 575 m 0
 406.74609375 601 432.422851562 623 458.422851562 623 c 0
 484.422851562 623 500.74609375 601 495.219726562 575 c 0
 489.693359375 549 464.229492188 528 438.229492188 528 c 0
 412.229492188 528 395.693359375 549 401.219726562 575 c 0
81.4482421875 195 m 0
 94.2021484375 255 124.10546875 311 167.8203125 352 c 0
 211.53515625 393 268.061523438 419 331.061523438 419 c 0
 477.061523438 419 506.404296875 303 485.361328125 204 c 0
 473.033203125 146 441.280273438 86 389.352539062 44 c 0
 349.55078125 12 298.874023438 -10 237.874023438 -10 c 0
 102.874023438 -10 60.830078125 98 81.4482421875 195 c 0
312.172851562 396 m 0
 226.172851562 396 179.766601562 300 162.125 217 c 0
 146.608398438 144 157.763671875 13 256.763671875 13 c 0
 301.763671875 13 377.478515625 54 402.984375 174 c 0
 432.10546875 311 394.172851562 396 312.172851562 396 c 0
EndSplineSet
Substitution2: "'smcp' Gemeine nach Kapitaelchen 1" odieresis.sc
AlternateSubs2: "'aalt' Alle Alternativen zeigen 1" odieresis.sc
Colour: ff00ff
EndChar

StartChar: divide
Encoding: 247 247 37
Width: 527
VWidth: 999
Flags: HW
HStem: 53.6 88.8<229.666 300.725> 208 49<66 461> 321.6 88.8<229.666 300.725>
VStem: 220.8 88.8<62.5104 133.57 330.51 401.57>
LayerCount: 2
Fore
SplineSet
301.818359375 369.400390625 m 0
 306.090820312 389.5 333.86328125 409.599609375 353.962890625 409.599609375 c 0
 376.563476562 409.599609375 389.16796875 386.099609375 384.895507812 366 c 0
 381.133789062 348.299804688 356.250976562 325.799804688 332.750976562 325.799804688 c 0
 312.651367188 325.799804688 297.184570312 347.599609375 301.818359375 369.400390625 c 0
244.853515625 101.400390625 m 0
 249.125976562 121.5 276.8984375 141.599609375 296.998046875 141.599609375 c 0
 319.59765625 141.599609375 332.203125 118.099609375 327.930664062 98 c 0
 324.16796875 80.2998046875 299.286132812 57.7998046875 275.786132812 57.7998046875 c 0
 255.685546875 57.7998046875 240.219726562 79.599609375 244.853515625 101.400390625 c 0
514.989257812 254 m 1
 505.63671875 210 l 1
 110.63671875 210 l 1
 119.989257812 254 l 1
 514.989257812 254 l 1
EndSplineSet
Colour: ff00ff
EndChar

StartChar: ugrave
Encoding: 249 249 38
Width: 507
VWidth: 999
Flags: HW
HStem: -10 35<190.4 275.97> 29 15<452.884 495.46> 391 23<21.1328 66.3358 289.133 334.746>
VStem: 84 69<60.6264 382.51> 352 69<75.2625 382.611>
AnchorPoint: "top_akzent" 432.272 834 basechar 0
LayerCount: 2
Fore
SplineSet
358.4375 656 m 1
 401.655273438 530 l 2
 404.529296875 520 404.041992188 513 402.553710938 506 c 0
 401.491210938 501 393.215820312 495 385.215820312 495 c 0
 379.215820312 495 373.278320312 500 360.466796875 515 c 2
 269.635742188 624 l 1
 273.973632812 635 l 1
 283.249023438 641 309.862304688 658 343.862304688 658 c 0
 348.862304688 658 354.649414062 657 358.4375 656 c 1
194.874023438 -10 m 0
 100.874023438 -10 92.8994140625 54.099609375 109.506835938 120 c 0
 122.134765625 170 142.540039062 266 151.16796875 316 c 0
 161.846679688 378 153.259765625 387 108.109375 391 c 1
 103.384765625 397 105.72265625 408 112.998046875 414 c 1
 147.786132812 413 172.573242188 412 203.573242188 412 c 0
 217.573242188 412 231.786132812 413 236.998046875 414 c 0
 241.998046875 414 244.360351562 411 243.72265625 408 c 2
 243.72265625 408 228.381835938 349 221.018554688 320 c 0
 208.390625 270 189.897460938 183 181.270507812 133 c 0
 166.624023438 48.099609375 171.213867188 25 230.313476562 25 c 0
 254.313476562 25 306.627929688 50 348.216796875 81 c 0
 363.767578125 93 364.4296875 90 368.956054688 108 c 0
 381.583984375 158 404.115234375 264 412.743164062 314 c 0
 423.612304688 376.900390625 416.471679688 388 370.109375 391 c 1
 365.384765625 397 367.72265625 408 374.998046875 414 c 1
 409.786132812 413 434.573242188 412 465.573242188 412 c 0
 479.573242188 412 494.786132812 413 499.998046875 414 c 0
 504.998046875 414 506.360351562 411 505.72265625 408 c 2
 505.72265625 408 490.381835938 349 483.018554688 320 c 0
 470.390625 270 447.859375 164 439.231445312 114 c 0
 431.141601562 67 434.415039062 49 494.352539062 44 c 1
 499.077148438 38 498.439453125 35 491.1640625 29 c 1
 431.67578125 22 401.48828125 7 376.874023438 -10 c 1
 369.44921875 -12 365.236328125 -13 358.874023438 -10 c 1
 358.874023438 -10 355.313476562 25 359.990234375 47 c 0
 361.478515625 54 352.052734375 52 346.203125 48 c 0
 291.125976562 10 231.874023438 -10 194.874023438 -10 c 0
EndSplineSet
Substitution2: "'smcp' Gemeine nach Kapitaelchen 1" ugrave.sc
AlternateSubs2: "'aalt' Alle Alternativen zeigen 1" ugrave.sc
Colour: ff00ff
EndChar

StartChar: uacute
Encoding: 250 250 39
Width: 507
VWidth: 999
Flags: HW
HStem: -10 35<190.4 275.97> 29 15<452.884 495.46> 391 23<21.1328 66.3358 289.133 334.746>
VStem: 84 69<60.6264 382.51> 352 69<75.2625 382.611>
AnchorPoint: "top_akzent" 432.272 834 basechar 0
LayerCount: 2
Fore
SplineSet
436.4375 656 m 1
 439.649414062 657 445.862304688 658 450.862304688 658 c 0
 457.262695312 658 482.649414062 657 500.973632812 635 c 1
 501.635742188 624 l 1
 363.466796875 515 l 2
 345.278320312 500 336.427734375 496 329.427734375 496 c 0
 322.427734375 496 316.703125 502 318.19140625 509 c 0
 320.572265625 520.200195312 324.721679688 524.200195312 335.54296875 537 c 2
 436.4375 656 l 1
194.874023438 -10 m 0
 100.874023438 -10 92.8994140625 54.099609375 109.506835938 120 c 0
 122.134765625 170 142.540039062 266 151.16796875 316 c 0
 161.846679688 378 153.259765625 387 108.109375 391 c 1
 103.384765625 397 105.72265625 408 112.998046875 414 c 1
 147.786132812 413 172.573242188 412 203.573242188 412 c 0
 217.573242188 412 231.786132812 413 236.998046875 414 c 0
 241.998046875 414 244.360351562 411 243.72265625 408 c 2
 243.72265625 408 228.381835938 349 221.018554688 320 c 0
 208.390625 270 189.897460938 183 181.270507812 133 c 0
 166.624023438 48.099609375 171.213867188 25 230.313476562 25 c 0
 254.313476562 25 306.627929688 50 348.216796875 81 c 0
 363.767578125 93 364.4296875 90 368.956054688 108 c 0
 381.583984375 158 404.115234375 264 412.743164062 314 c 0
 423.612304688 376.900390625 416.471679688 388 370.109375 391 c 1
 365.384765625 397 367.72265625 408 374.998046875 414 c 1
 409.786132812 413 434.573242188 412 465.573242188 412 c 0
 479.573242188 412 494.786132812 413 499.998046875 414 c 0
 504.998046875 414 506.360351562 411 505.72265625 408 c 2
 505.72265625 408 490.381835938 349 483.018554688 320 c 0
 470.390625 270 447.859375 164 439.231445312 114 c 0
 431.141601562 67 434.415039062 49 494.352539062 44 c 1
 499.077148438 38 498.439453125 35 491.1640625 29 c 1
 431.67578125 22 401.48828125 7 376.874023438 -10 c 1
 369.44921875 -12 365.236328125 -13 358.874023438 -10 c 1
 358.874023438 -10 355.313476562 25 359.990234375 47 c 0
 361.478515625 54 352.052734375 52 346.203125 48 c 0
 291.125976562 10 231.874023438 -10 194.874023438 -10 c 0
EndSplineSet
Substitution2: "'smcp' Gemeine nach Kapitaelchen 1" uacute.sc
AlternateSubs2: "'aalt' Alle Alternativen zeigen 1" uacute.sc
Colour: ff00ff
EndChar

StartChar: ucircumflex
Encoding: 251 251 40
Width: 507
VWidth: 999
Flags: HW
HStem: -10 35<190.4 275.97> 29 15<452.884 495.46> 391 23<21.1328 66.3358 289.133 334.746>
VStem: 84 69<60.6264 382.51> 120 253<517 517> 352 69<75.2625 382.611>
AnchorPoint: "top_akzent" 424.272 834 basechar 0
LayerCount: 2
Fore
SplineSet
402.4375 656 m 1
 421.447265625 609 454.181640625 556 481.678710938 516 c 1
 475.19140625 509 464.869140625 500.900390625 455.065429688 499 c 1
 422.166992188 523 393.119140625 551 369.708007812 582 c 1
 330.90625 550 291.7421875 521 248.065429688 499 c 1
 239.491210938 501 233.766601562 507 229.678710938 516 c 1
 274.181640625 556 331.659179688 610 370.4375 656 c 1
 381.625976562 658.299804688 392.168945312 658.5 402.4375 656 c 1
194.874023438 -10 m 0
 100.874023438 -10 92.8994140625 54.099609375 109.506835938 120 c 0
 122.134765625 170 142.540039062 266 151.16796875 316 c 0
 161.846679688 378 153.259765625 387 108.109375 391 c 1
 103.384765625 397 105.72265625 408 112.998046875 414 c 1
 147.786132812 413 172.573242188 412 203.573242188 412 c 0
 217.573242188 412 231.786132812 413 236.998046875 414 c 0
 241.998046875 414 244.360351562 411 243.72265625 408 c 2
 243.72265625 408 228.381835938 349 221.018554688 320 c 0
 208.390625 270 189.897460938 183 181.270507812 133 c 0
 166.624023438 48.099609375 171.213867188 25 230.313476562 25 c 0
 254.313476562 25 306.627929688 50 348.216796875 81 c 0
 363.767578125 93 364.4296875 90 368.956054688 108 c 0
 381.583984375 158 404.115234375 264 412.743164062 314 c 0
 423.612304688 376.900390625 416.471679688 388 370.109375 391 c 1
 365.384765625 397 367.72265625 408 374.998046875 414 c 1
 409.786132812 413 434.573242188 412 465.573242188 412 c 0
 479.573242188 412 494.786132812 413 499.998046875 414 c 0
 504.998046875 414 506.360351562 411 505.72265625 408 c 2
 505.72265625 408 490.381835938 349 483.018554688 320 c 0
 470.390625 270 447.859375 164 439.231445312 114 c 0
 431.141601562 67 434.415039062 49 494.352539062 44 c 1
 499.077148438 38 498.439453125 35 491.1640625 29 c 1
 431.67578125 22 401.48828125 7 376.874023438 -10 c 1
 369.44921875 -12 365.236328125 -13 358.874023438 -10 c 1
 358.874023438 -10 355.313476562 25 359.990234375 47 c 0
 361.478515625 54 352.052734375 52 346.203125 48 c 0
 291.125976562 10 231.874023438 -10 194.874023438 -10 c 0
EndSplineSet
Substitution2: "'smcp' Gemeine nach Kapitaelchen 1" ucircumflex.sc
AlternateSubs2: "'aalt' Alle Alternativen zeigen 1" ucircumflex.sc
Colour: ff00ff
EndChar

StartChar: ebreve
Encoding: 277 277 41
Width: 435
VWidth: 999
Flags: HW
HStem: -10 37<193.424 317.5> 230 29<114 320.699> 396 23<190.893 271.698> 482 57<163.292 295.981> 609 20<93 125.5 331 363>
VStem: 35 76<111.738 230 259 294.681> 93 27<594.641 620.111> 321 76<246 346.741> 336 27<593.798 620.111>
AnchorPoint: "ogonek" 369.928 42 basechar 0
AnchorPoint: "unten_anhang" 241.575 -2 basechar 0
AnchorPoint: "unten_punkt" 212.619 -110 basechar 0
AnchorPoint: "top_akzent" 395.982 795 basechar 0
LayerCount: 2
Fore
SplineSet
253.698242188 629 m 1
 253.432617188 576 288.568359375 539 342.568359375 539 c 0
 394.568359375 539 447.370117188 571 469.698242188 629 c 1
 494.147460938 617 l 1
 463.8671875 531 389.452148438 482 330.452148438 482 c 0
 260.452148438 482 220.080078125 532 224.147460938 617 c 1
 253.698242188 629 l 1
169.051757812 259 m 1
 363.115234375 264 l 2
 373.178710938 264.299804688 377.96484375 268 379.877929688 277 c 0
 396.8828125 357 361.172851562 396 315.172851562 396 c 0
 279.172851562 396 210.0078125 367 169.051757812 259 c 1
396.91796875 89 m 1
 407.705078125 88 412.642578125 83 413.516601562 73 c 1
 364.888671875 23 300.874023438 -10 228.874023438 -10 c 0
 159.874023438 -10 114.763671875 13 90.8408203125 51 c 0
 67.4921875 87 64.7578125 140 76.0234375 193 c 0
 106.84375 338 229.9609375 419 320.061523438 419 c 0
 453.061523438 419 467.356445312 331 450.3515625 251 c 0
 448.2265625 241 439.780273438 234.200195312 428.73828125 234 c 2
 159.887695312 230 l 1
 148.197265625 175 148.995117188 127 161.405273438 96 c 0
 180.990234375 47 226.739257812 27 260.739257812 27 c 0
 315.739257812 27 354.265625 53 396.91796875 89 c 1
EndSplineSet
Colour: ff00ff
EndChar

StartChar: Edotaccent
Encoding: 278 278 42
Width: 567
VWidth: 999
Flags: HW
HStem: -5 23<16.1328 83.0803> 0 26<199.007 431.875> 328 28<188 375.75> 618 27<199.375 434.686> 627 23<16.1328 83.0803> 632 20<483.5 493.5> 701 104<262.981 345.897>
VStem: 108 79<30.3808 328 356 614.619> 252.4 104<711.542 794.458> 396 22<256.032 304.748 375.022 427.968> 494 24<497.515 529.972>
LayerCount: 2
Fore
SplineSet
412.455078125 753 m 0
 418.40625 781 447.5078125 805 475.5078125 805 c 0
 503.5078125 805 522.40625 781 516.455078125 753 c 0
 510.50390625 725 481.40234375 701 453.40234375 701 c 0
 425.40234375 701 406.50390625 725 412.455078125 753 c 0
379.8828125 357 m 2
 465.03125 357.700195312 471.43359375 369 486.124023438 424 c 1
 493.399414062 430 503.399414062 430 508.124023438 424 c 1
 500.747070312 394 492.986328125 371.599609375 485.84375 338 c 0
 479.361328125 307.5 479.704101562 295 473.264648438 260 c 1
 465.989257812 254 455.989257812 254 451.264648438 260 c 1
 457.830078125 305 458.357421875 326.299804688 373.505859375 327 c 2
 256.71875 328 l 1
 256.71875 328 218.521484375 153 203.666015625 69 c 0
 198.927734375 42 209.526367188 26 231.526367188 26 c 2
 387.526367188 26 l 2
 463.526367188 26 514.830078125 98 550.134765625 170 c 1
 563.772460938 173 564.34765625 171 573.072265625 165 c 1
 554.231445312 114 525.565429688 45 500.9375 -5 c 1
 500.9375 -5 422 0 374 0 c 2
 152 0 l 2
 122 0 68.1494140625 -4 18.9375 -5 c 1
 14.212890625 1 16.55078125 12 23.826171875 18 c 1
 94.4638671875 21 108.526367188 26 129.168945312 109 c 0
 148.598632812 191 158.588867188 238 176.23046875 321 c 0
 193.873046875 404 204.500976562 454 219.930664062 536 c 0
 234.572265625 619 222.635742188 624 153.2734375 627 c 1
 148.547851562 633 150.88671875 644 158.162109375 650 c 1
 207.94921875 649 257.098632812 645 287.098632812 645 c 2
 579.098632812 645 l 2
 603.098632812 645 612.94921875 649 630.586914062 652 c 0
 633.586914062 652 634.374023438 651 633.94921875 649 c 0
 634.249023438 641 628.206054688 542 624.491210938 501 c 1
 613.427734375 496 611.002929688 494 599.427734375 496 c 1
 592.094726562 565 588.360351562 618 513.360351562 618 c 2
 357.360351562 618 l 2
 333.360351562 618 317.108398438 598 311.0078125 574 c 0
 290.578125 492 262.669921875 356 262.669921875 356 c 1
 379.8828125 357 l 2
EndSplineSet
Position2: "'cpsp' Versalabstaende 1" dx=2 dy=0 dh=5 dv=0
Colour: ff00ff
EndChar

StartChar: edotaccent
Encoding: 279 279 43
Width: 435
VWidth: 999
Flags: HW
HStem: -10 37<193.424 317.5> 230 29<114 320.699> 396 23<190.893 271.698> 547 98<189.385 267.791>
VStem: 35 76<111.738 230 259 294.681> 181 98<557.729 636.615> 321 76<246 346.741>
AnchorPoint: "top_akzent" 398.982 795 basechar 0
AnchorPoint: "ogonek" 369.928 42 basechar 0
AnchorPoint: "unten_anhang" 241.575 -2 basechar 0
AnchorPoint: "unten_punkt" 212.619 -110 basechar 0
LayerCount: 2
Fore
SplineSet
307.321289062 599 m 0
 312.422851562 623 345.524414062 647 369.524414062 647 c 0
 396.524414062 647 411.572265625 619 406.470703125 595 c 0
 401.986328125 573.900390625 372.268554688 547 344.268554688 547 c 0
 320.268554688 547 301.794921875 573 307.321289062 599 c 0
169.051757812 259 m 1
 363.115234375 264 l 2
 373.178710938 264.299804688 377.96484375 268 379.877929688 277 c 0
 396.8828125 357 361.172851562 396 315.172851562 396 c 0
 279.172851562 396 210.0078125 367 169.051757812 259 c 1
396.91796875 89 m 1
 407.705078125 88 412.642578125 83 413.516601562 73 c 1
 364.888671875 23 300.874023438 -10 228.874023438 -10 c 0
 159.874023438 -10 114.763671875 13 90.8408203125 51 c 0
 67.4921875 87 64.7578125 140 76.0234375 193 c 0
 106.84375 338 229.9609375 419 320.061523438 419 c 0
 453.061523438 419 467.356445312 331 450.3515625 251 c 0
 448.2265625 241 439.780273438 234.200195312 428.73828125 234 c 2
 159.887695312 230 l 1
 148.197265625 175 148.995117188 127 161.405273438 96 c 0
 180.990234375 47 226.739257812 27 260.739257812 27 c 0
 315.739257812 27 354.265625 53 396.91796875 89 c 1
EndSplineSet
Colour: ff00ff
EndChar

StartChar: Eogonek
Encoding: 280 280 44
Width: 567
VWidth: 999
Flags: HW
HStem: -200 38<376.958 460.272> -5 23<16.1328 83.0803> -2 17<449.123 475.439> 0 26<199.007 431.875> 328 28<188 375.75> 618 27<199.375 434.686> 627 23<16.1328 83.0803> 632 20<483.5 493.5>
VStem: 108 79<30.3808 328 356 614.619> 307.4 62<-155.299 -63.1465> 396 22<256.032 304.748 375.022 427.968> 494 24<497.515 529.972>
LayerCount: 2
Fore
SplineSet
476.705078125 -135 m 1
 438.139648438 -180 393.888671875 -200 352.888671875 -200 c 0
 302.888671875 -200 269.139648438 -180 280.618164062 -126 c 0
 289.396484375 -84.7001953125 336.955078125 -27.5 402.71484375 -0.400390625 c 1
 392.579101562 -0.099609375 382.799804688 0 374 0 c 2
 152 0 l 2
 122 0 68.1494140625 -4 18.9375 -5 c 1
 14.212890625 1 16.55078125 12 23.826171875 18 c 1
 94.4638671875 21 108.526367188 26 129.168945312 109 c 0
 148.598632812 191 158.588867188 238 176.23046875 321 c 0
 193.873046875 404 204.500976562 454 219.930664062 536 c 0
 234.572265625 619 222.635742188 624 153.2734375 627 c 1
 148.547851562 633 150.88671875 644 158.162109375 650 c 1
 207.94921875 649 257.098632812 645 287.098632812 645 c 2
 579.098632812 645 l 2
 603.098632812 645 612.94921875 649 630.586914062 652 c 0
 633.586914062 652 634.374023438 651 633.94921875 649 c 0
 634.249023438 641 628.206054688 542 624.491210938 501 c 1
 613.427734375 496 611.002929688 494 599.427734375 496 c 1
 592.094726562 565 588.360351562 618 513.360351562 618 c 2
 357.360351562 618 l 2
 333.360351562 618 317.108398438 598 311.0078125 574 c 0
 290.578125 492 262.669921875 356 262.669921875 356 c 1
 379.8828125 357 l 2
 465.03125 357.700195312 471.43359375 369 486.124023438 424 c 1
 493.399414062 430 503.399414062 430 508.124023438 424 c 1
 500.747070312 394 492.986328125 371.599609375 485.84375 338 c 0
 479.361328125 307.5 479.704101562 295 473.264648438 260 c 1
 465.989257812 254 455.989257812 254 451.264648438 260 c 1
 457.830078125 305 458.357421875 326.299804688 373.505859375 327 c 2
 256.71875 328 l 1
 256.71875 328 218.521484375 153 203.666015625 69 c 0
 198.927734375 42 209.526367188 26 231.526367188 26 c 2
 387.526367188 26 l 2
 463.526367188 26 514.830078125 98 550.134765625 170 c 1
 563.772460938 173 564.34765625 171 573.072265625 165 c 1
 554.231445312 114 525.565429688 45 500.9375 -5 c 1
 500.9375 -5 489.006835938 -4.2001953125 471.598632812 -3.2998046875 c 1
 407.958007812 -12.900390625 353.92578125 -72.7998046875 344.956054688 -115 c 0
 339.4296875 -141 347.965820312 -162 384.965820312 -162 c 0
 413.965820312 -162 433.3671875 -146 460.04296875 -124 c 1
 469.04296875 -124 474.192382812 -128 476.705078125 -135 c 1
EndSplineSet
Position2: "'cpsp' Versalabstaende 1" dx=2 dy=0 dh=5 dv=0
Substitution2: "'c2sc' Versale nach Kapitaelchen 1" eogonek.sc
Colour: ff9ccc
EndChar

StartChar: eogonek
Encoding: 281 281 45
Width: 435
VWidth: 999
Flags: HW
HStem: -200 38<244.519 327.833> -10 37<193.424 317.5> 230 29<114 320.699> 396 23<190.893 271.698>
VStem: 35 76<111.738 230 259 294.681> 175 62<-155.299 -67.0619> 321 76<246 346.741>
AnchorPoint: "unten_punkt" 47.0439 -108 basechar 0
AnchorPoint: "top_akzent" 368.099 645 basechar 0
LayerCount: 2
Fore
SplineSet
344.3046875 -135 m 1
 305.740234375 -180 261.48828125 -200 220.48828125 -200 c 0
 170.48828125 -200 136.740234375 -180 148.217773438 -126 c 0
 156.443359375 -87.2998046875 195.573242188 -46.7001953125 248.866210938 -9.099609375 c 1
 242.23828125 -9.7001953125 235.57421875 -10 228.874023438 -10 c 0
 159.874023438 -10 114.763671875 13 90.8408203125 51 c 0
 67.4921875 87 64.7578125 140 76.0234375 193 c 0
 106.84375 338 229.9609375 419 320.061523438 419 c 0
 453.061523438 419 467.356445312 331 450.3515625 251 c 0
 448.2265625 241 439.780273438 234.200195312 428.73828125 234 c 2
 159.887695312 230 l 1
 148.197265625 175 148.995117188 127 161.405273438 96 c 0
 180.990234375 47 226.739257812 27 260.739257812 27 c 0
 315.739257812 27 354.265625 53 396.91796875 89 c 1
 407.705078125 88 412.642578125 83 413.516601562 73 c 1
 386.38671875 45.099609375 354.482421875 22.5 319.100585938 8 c 1
 253.770507812 -40.599609375 221.185546875 -74.400390625 212.555664062 -115 c 0
 207.029296875 -141 215.565429688 -162 252.565429688 -162 c 0
 281.565429688 -162 300.966796875 -146 327.642578125 -124 c 1
 336.642578125 -124 341.79296875 -128 344.3046875 -135 c 1
169.051757812 259 m 1
 363.115234375 264 l 2
 373.178710938 264.299804688 377.96484375 268 379.877929688 277 c 0
 396.8828125 357 361.172851562 396 315.172851562 396 c 0
 279.172851562 396 210.0078125 367 169.051757812 259 c 1
EndSplineSet
AlternateSubs2: "'aalt' Alle Alternativen zeigen 1" eogonek.sc
Substitution2: "'smcp' Gemeine nach Kapitaelchen 1" eogonek.sc
Colour: ff00ff
EndChar

StartChar: Ecaron
Encoding: 282 282 46
Width: 567
VWidth: 999
Flags: HW
HStem: -5 23<16.1328 83.0803> 0 26<199.007 431.875> 328 28<188 375.75> 618 27<199.375 434.686> 627 23<16.1328 83.0803> 632 20<483.5 493.5> 697 115
VStem: 108 79<30.3808 328 356 614.619> 171.4 244 396 22<256.032 304.748 375.022 427.968> 494 24<497.515 529.972>
LayerCount: 2
Fore
SplineSet
420.551757812 697 m 1
 398.416992188 734 369.79296875 764 339.745117188 792 c 1
 359.99609375 812 l 1
 395.3828125 795 425.34375 776 453.030273438 751 c 1
 495.556640625 777 531.594726562 796 572.99609375 812 c 1
 583.745117188 792 l 1
 539.581054688 763 500.779296875 731 463.551757812 697 c 1
 420.551757812 697 l 1
379.8828125 357 m 2
 465.03125 357.700195312 471.43359375 369 486.124023438 424 c 1
 493.399414062 430 503.399414062 430 508.124023438 424 c 1
 500.747070312 394 492.986328125 371.599609375 485.84375 338 c 0
 479.361328125 307.5 479.704101562 295 473.264648438 260 c 1
 465.989257812 254 455.989257812 254 451.264648438 260 c 1
 457.830078125 305 458.357421875 326.299804688 373.505859375 327 c 2
 256.71875 328 l 1
 256.71875 328 218.521484375 153 203.666015625 69 c 0
 198.927734375 42 209.526367188 26 231.526367188 26 c 2
 387.526367188 26 l 2
 463.526367188 26 514.830078125 98 550.134765625 170 c 1
 563.772460938 173 564.34765625 171 573.072265625 165 c 1
 554.231445312 114 525.565429688 45 500.9375 -5 c 1
 500.9375 -5 422 0 374 0 c 2
 152 0 l 2
 122 0 68.1494140625 -4 18.9375 -5 c 1
 14.212890625 1 16.55078125 12 23.826171875 18 c 1
 94.4638671875 21 108.526367188 26 129.168945312 109 c 0
 148.598632812 191 158.588867188 238 176.23046875 321 c 0
 193.873046875 404 204.500976562 454 219.930664062 536 c 0
 234.572265625 619 222.635742188 624 153.2734375 627 c 1
 148.547851562 633 150.88671875 644 158.162109375 650 c 1
 207.94921875 649 257.098632812 645 287.098632812 645 c 2
 579.098632812 645 l 2
 603.098632812 645 612.94921875 649 630.586914062 652 c 0
 633.586914062 652 634.374023438 651 633.94921875 649 c 0
 634.249023438 641 628.206054688 542 624.491210938 501 c 1
 613.427734375 496 611.002929688 494 599.427734375 496 c 1
 592.094726562 565 588.360351562 618 513.360351562 618 c 2
 357.360351562 618 l 2
 333.360351562 618 317.108398438 598 311.0078125 574 c 0
 290.578125 492 262.669921875 356 262.669921875 356 c 1
 379.8828125 357 l 2
EndSplineSet
Position2: "'cpsp' Versalabstaende 1" dx=2 dy=0 dh=5 dv=0
Substitution2: "'c2sc' Versale nach Kapitaelchen 1" ecaron.sc
Colour: ff00ff
EndChar

StartChar: ecaron
Encoding: 283 283 47
Width: 435
VWidth: 999
Flags: HW
HStem: -10 37<193.424 317.5> 230 29<114 320.699> 396 23<190.893 271.698>
VStem: 35 76<111.738 230 259 294.681> 321 76<246 346.741>
LayerCount: 2
Fore
SplineSet
304.853515625 498 m 1
 285.84375 545 258.408203125 590 231.485351562 628 c 1
 254.249023438 641 l 1
 287.084960938 612 314.770507812 587 341.119140625 551 c 1
 386.196289062 589 425.509765625 614 468.249023438 641 c 1
 484.485351562 628 l 1
 441.196289062 589 393.630859375 544 354.853515625 498 c 1
 304.853515625 498 l 1
169.051757812 259 m 1
 363.115234375 264 l 2
 373.178710938 264.299804688 377.96484375 268 379.877929688 277 c 0
 396.8828125 357 361.172851562 396 315.172851562 396 c 0
 279.172851562 396 210.0078125 367 169.051757812 259 c 1
396.91796875 89 m 1
 407.705078125 88 412.642578125 83 413.516601562 73 c 1
 364.888671875 23 300.874023438 -10 228.874023438 -10 c 0
 159.874023438 -10 114.763671875 13 90.8408203125 51 c 0
 67.4921875 87 64.7578125 140 76.0234375 193 c 0
 106.84375 338 229.9609375 419 320.061523438 419 c 0
 453.061523438 419 467.356445312 331 450.3515625 251 c 0
 448.2265625 241 439.780273438 234.200195312 428.73828125 234 c 2
 159.887695312 230 l 1
 148.197265625 175 148.995117188 127 161.405273438 96 c 0
 180.990234375 47 226.739257812 27 260.739257812 27 c 0
 315.739257812 27 354.265625 53 396.91796875 89 c 1
EndSplineSet
AlternateSubs2: "'aalt' Alle Alternativen zeigen 1" ecaron.sc
Substitution2: "'smcp' Gemeine nach Kapitaelchen 1" ecaron.sc
Colour: ff00ff
EndChar

StartChar: Gcircumflex
Encoding: 284 284 48
Width: 710
VWidth: 999
Flags: HW
HStem: -10 26<314.464 460.634> 284 26<454.361 523.245 630.397 668.639> 631 27<292.38 445.195>
VStem: 32 87<214.802 432.033> 244.6 243 540 79<83.4212 274.003>
LayerCount: 2
Fore
SplineSet
556.345703125 808 m 1
 578.693359375 772 608.466796875 738 638.727539062 711 c 1
 633.993164062 701.900390625 628.171875 693.799804688 618.263671875 690 c 1
 583.08984375 708 552.916015625 726 525.229492188 751 c 1
 482.491210938 724 446.877929688 707 405.263671875 690 c 1
 397.5390625 696 395.814453125 702 395.727539062 711 c 1
 438.6796875 739 479.119140625 774 517.345703125 808 c 1
 533.130859375 816.400390625 542.58203125 815.700195312 556.345703125 808 c 1
513.862304688 658 m 0
 635.862304688 658 662.296875 613 722.296875 613 c 1
 721.844726562 577 718.323242188 527.5 711.563476562 459 c 1
 703.094726562 453.5 696.288085938 453 686.288085938 453 c 1
 678.568359375 539 639.123046875 631 494.123046875 631 c 0
 367.123046875 631 225.703125 502 188.505859375 327 c 0
 160.448242188 195 217.401367188 16 395.401367188 16 c 0
 449.401367188 16 514.927734375 42 555.729492188 74 c 1
 590.163085938 236 l 2
 598.686523438 276.099609375 572.373046875 279.799804688 518.366210938 284 c 1
 513.641601562 290 516.6171875 304 523.892578125 310 c 1
 570.6796875 309 607.830078125 305 646.830078125 305 c 0
 686.830078125 305 700.6796875 309 730.892578125 310 c 1
 735.6171875 304 732.641601562 290 725.366210938 284 c 1
 695.728515625 281 676.645507812 271.200195312 669.163085938 236 c 2
 642.59375 111 l 2
 640.255859375 100 643.555664062 92 652.642578125 83 c 1
 572.313476562 25 484.874023438 -10 366.874023438 -10 c 0
 165.874023438 -10 60.482421875 134 97.2548828125 307 c 0
 144.017578125 527 341.862304688 658 513.862304688 658 c 0
EndSplineSet
Position2: "'cpsp' Versalabstaende 1" dx=2 dy=0 dh=5 dv=0
Colour: ff00ff
EndChar

StartChar: gcircumflex
Encoding: 285 285 49
Width: 483
VWidth: 999
Flags: HW
HStem: -246 25<157.852 273.919> -11 52<170.821 350.015> 127 23<178.526 261.741> 396 23<172.904 254.896>
VStem: 29 64<-172.874 -61.5916> 55 57<51.3174 134.562> 60 72<198.018 349.579> 103 253<516 516> 307 72<199.945 352.654> 391 59<-139.244 -48.2085>
LayerCount: 2
Fore
SplineSet
380.547851562 633 m 1
 399.55859375 586 432.29296875 533 459.790039062 493 c 1
 453.302734375 486 442.98046875 477.900390625 433.176757812 476 c 1
 400.278320312 500 371.229492188 528 347.819335938 559 c 1
 309.017578125 527 269.853515625 498 226.176757812 476 c 1
 217.6015625 478 211.876953125 484 207.790039062 493 c 1
 252.29296875 533 309.770507812 587 348.547851562 633 c 1
 359.737304688 635.299804688 370.279296875 635.5 380.547851562 633 c 1
363.540039062 266 m 0
 380.33203125 345 356.172851562 396 296.172851562 396 c 0
 244.172851562 396 207.458007812 355 193.215820312 288 c 0
 180.25 227 175.883789062 150 255.883789062 150 c 0
 290.883789062 150 344.622070312 177 363.540039062 266 c 0
123.874023438 -10 m 1
 88.8603515625 -43 76.6328125 -77 69.8310546875 -109 c 0
 56.015625 -174 100.025390625 -221 164.025390625 -221 c 0
 250.025390625 -221 355.715820312 -166 370.381835938 -97 c 0
 375.696289062 -72 368.584960938 -49 336.048828125 -28 c 0
 311.236328125 -13 279.662109375 -11 231.662109375 -11 c 0
 218.662109375 -11 191.024414062 -14 161.024414062 -14 c 0
 149.024414062 -14 133.236328125 -13 123.874023438 -10 c 1
501.43359375 369 m 0
 491.43359375 369 481.346679688 378 479.046875 386 c 1
 474.959960938 395 469.59765625 398 462.59765625 398 c 0
 450.59765625 398 427.833984375 385 418.708984375 375 c 1
 440.544921875 346 447.23046875 321 437.666015625 276 c 0
 417.897460938 183 329.995117188 127 245.995117188 127 c 0
 208.995117188 127 185.120117188 137 164.883789062 150 c 1
 150.482421875 134 136.018554688 113 131.98046875 94 c 0
 124.541015625 59 155.2265625 34 183.2265625 34 c 0
 188.2265625 34 198.439453125 35 212.65234375 36 c 0
 236.290039062 39 260.71484375 41 277.71484375 41 c 0
 312.71484375 41 379.501953125 40 409.913085938 9 c 0
 433.024414062 -14 441.28515625 -41 434.696289062 -72 c 0
 412.802734375 -175 258.7109375 -246 129.7109375 -246 c 0
 56.7109375 -246 -15.849609375 -211 1.79296875 -128 c 0
 10.5078125 -87 50.7734375 -34 108.362304688 -3 c 1
 81.48828125 7 61.5888671875 31 70.091796875 71 c 0
 78.806640625 112 110.608398438 144 142.497070312 167 c 1
 121.0234375 193 107.400390625 223 118.240234375 274 c 0
 136.9453125 362 224.061523438 419 309.061523438 419 c 0
 365.061523438 419 393.022460938 400 402.322265625 392 c 1
 434.124023438 424 483.524414062 440 508.524414062 440 c 0
 534.524414062 440 549.336914062 425 545.084960938 405 c 0
 541.046875 386 519.43359375 369 501.43359375 369 c 0
EndSplineSet
Colour: ff00ff
EndChar

StartChar: Gbreve
Encoding: 286 286 50
Width: 710
VWidth: 999
Flags: HW
HStem: -10 26<314.464 460.634> 284 26<454.361 523.245 630.397 668.639> 631 27<292.38 445.195> 693 52<284.342 442.092> 786 20<227.604 259.604 468.104 499.604>
VStem: 32 87<214.802 432.033> 227.6 28<781.047 806> 471.6 28<780.76 806> 540 79<83.4212 274.003>
LayerCount: 2
Fore
SplineSet
670.920898438 806 m 1
 649.829101562 735 576.901367188 693 510.901367188 693 c 0
 437.901367188 693 389.041992188 736 398.920898438 806 c 1
 426.920898438 806 l 1
 426.630859375 767 468.955078125 745 521.955078125 745 c 0
 570.955078125 745 627.630859375 767 642.920898438 806 c 1
 670.920898438 806 l 1
513.862304688 658 m 0
 635.862304688 658 662.296875 613 722.296875 613 c 1
 721.844726562 577 718.323242188 527.5 711.563476562 459 c 1
 703.094726562 453.5 696.288085938 453 686.288085938 453 c 1
 678.568359375 539 639.123046875 631 494.123046875 631 c 0
 367.123046875 631 225.703125 502 188.505859375 327 c 0
 160.448242188 195 217.401367188 16 395.401367188 16 c 0
 449.401367188 16 514.927734375 42 555.729492188 74 c 1
 590.163085938 236 l 2
 598.686523438 276.099609375 572.373046875 279.799804688 518.366210938 284 c 1
 513.641601562 290 516.6171875 304 523.892578125 310 c 1
 570.6796875 309 607.830078125 305 646.830078125 305 c 0
 686.830078125 305 700.6796875 309 730.892578125 310 c 1
 735.6171875 304 732.641601562 290 725.366210938 284 c 1
 695.728515625 281 676.645507812 271.200195312 669.163085938 236 c 2
 642.59375 111 l 2
 640.255859375 100 643.555664062 92 652.642578125 83 c 1
 572.313476562 25 484.874023438 -10 366.874023438 -10 c 0
 165.874023438 -10 60.482421875 134 97.2548828125 307 c 0
 144.017578125 527 341.862304688 658 513.862304688 658 c 0
EndSplineSet
Position2: "'cpsp' Versalabstaende 1" dx=2 dy=0 dh=5 dv=0
Substitution2: "'c2sc' Versale nach Kapitaelchen 1" gbreve.sc
Colour: ff00ff
EndChar

StartChar: gbreve
Encoding: 287 287 51
Width: 483
VWidth: 999
Flags: HW
HStem: -246 25<157.852 273.919> -11 52<170.821 350.015> 127 23<178.526 261.741> 396 23<172.904 254.896> 478 57<155.292 287.981> 605 20<85 117.5 323 355>
VStem: 29 64<-172.874 -61.5916> 55 57<51.3174 134.562> 60 72<198.018 349.579> 85 27<590.641 616.111> 307 72<199.945 352.654> 328 27<589.798 616.111> 391 59<-139.244 -48.2085>
LayerCount: 2
Fore
SplineSet
244.84765625 625 m 1
 244.58203125 572 279.717773438 535 333.717773438 535 c 0
 385.717773438 535 438.51953125 567 460.84765625 625 c 1
 485.296875 613 l 1
 455.017578125 527 380.6015625 478 321.6015625 478 c 0
 251.6015625 478 211.229492188 528 215.296875 613 c 1
 244.84765625 625 l 1
363.540039062 266 m 0
 380.33203125 345 356.172851562 396 296.172851562 396 c 0
 244.172851562 396 207.458007812 355 193.215820312 288 c 0
 180.25 227 175.883789062 150 255.883789062 150 c 0
 290.883789062 150 344.622070312 177 363.540039062 266 c 0
123.874023438 -10 m 1
 88.8603515625 -43 76.6328125 -77 69.8310546875 -109 c 0
 56.015625 -174 100.025390625 -221 164.025390625 -221 c 0
 250.025390625 -221 355.715820312 -166 370.381835938 -97 c 0
 375.696289062 -72 368.584960938 -49 336.048828125 -28 c 0
 311.236328125 -13 279.662109375 -11 231.662109375 -11 c 0
 218.662109375 -11 191.024414062 -14 161.024414062 -14 c 0
 149.024414062 -14 133.236328125 -13 123.874023438 -10 c 1
501.43359375 369 m 0
 491.43359375 369 481.346679688 378 479.046875 386 c 1
 474.959960938 395 469.59765625 398 462.59765625 398 c 0
 450.59765625 398 427.833984375 385 418.708984375 375 c 1
 440.544921875 346 447.23046875 321 437.666015625 276 c 0
 417.897460938 183 329.995117188 127 245.995117188 127 c 0
 208.995117188 127 185.120117188 137 164.883789062 150 c 1
 150.482421875 134 136.018554688 113 131.98046875 94 c 0
 124.541015625 59 155.2265625 34 183.2265625 34 c 0
 188.2265625 34 198.439453125 35 212.65234375 36 c 0
 236.290039062 39 260.71484375 41 277.71484375 41 c 0
 312.71484375 41 379.501953125 40 409.913085938 9 c 0
 433.024414062 -14 441.28515625 -41 434.696289062 -72 c 0
 412.802734375 -175 258.7109375 -246 129.7109375 -246 c 0
 56.7109375 -246 -15.849609375 -211 1.79296875 -128 c 0
 10.5078125 -87 50.7734375 -34 108.362304688 -3 c 1
 81.48828125 7 61.5888671875 31 70.091796875 71 c 0
 78.806640625 112 110.608398438 144 142.497070312 167 c 1
 121.0234375 193 107.400390625 223 118.240234375 274 c 0
 136.9453125 362 224.061523438 419 309.061523438 419 c 0
 365.061523438 419 393.022460938 400 402.322265625 392 c 1
 434.124023438 424 483.524414062 440 508.524414062 440 c 0
 534.524414062 440 549.336914062 425 545.084960938 405 c 0
 541.046875 386 519.43359375 369 501.43359375 369 c 0
EndSplineSet
AlternateSubs2: "'aalt' Alle Alternativen zeigen 1" gbreve.sc
Substitution2: "'smcp' Gemeine nach Kapitaelchen 1" gbreve.sc
Colour: ff00ff
EndChar

StartChar: Gdotaccent
Encoding: 288 288 52
Width: 710
VWidth: 999
Flags: HW
HStem: -10 26<314.464 460.634> 284 26<454.361 523.245 630.397 668.639> 631 27<292.38 445.195> 701 104<316.146 399.062>
VStem: 32 87<214.802 432.033> 305.6 104<711.542 794.458> 540 79<83.4212 274.003>
LayerCount: 2
Fore
SplineSet
465.655273438 753 m 0
 471.606445312 781 500.708007812 805 528.708007812 805 c 0
 556.708007812 805 575.606445312 781 569.655273438 753 c 0
 563.703125 725 534.602539062 701 506.602539062 701 c 0
 478.602539062 701 459.703125 725 465.655273438 753 c 0
513.862304688 658 m 0
 635.862304688 658 662.296875 613 722.296875 613 c 1
 721.844726562 577 718.323242188 527.5 711.563476562 459 c 1
 703.094726562 453.5 696.288085938 453 686.288085938 453 c 1
 678.568359375 539 639.123046875 631 494.123046875 631 c 0
 367.123046875 631 225.703125 502 188.505859375 327 c 0
 160.448242188 195 217.401367188 16 395.401367188 16 c 0
 449.401367188 16 514.927734375 42 555.729492188 74 c 1
 590.163085938 236 l 2
 598.686523438 276.099609375 572.373046875 279.799804688 518.366210938 284 c 1
 513.641601562 290 516.6171875 304 523.892578125 310 c 1
 570.6796875 309 607.830078125 305 646.830078125 305 c 0
 686.830078125 305 700.6796875 309 730.892578125 310 c 1
 735.6171875 304 732.641601562 290 725.366210938 284 c 1
 695.728515625 281 676.645507812 271.200195312 669.163085938 236 c 2
 642.59375 111 l 2
 640.255859375 100 643.555664062 92 652.642578125 83 c 1
 572.313476562 25 484.874023438 -10 366.874023438 -10 c 0
 165.874023438 -10 60.482421875 134 97.2548828125 307 c 0
 144.017578125 527 341.862304688 658 513.862304688 658 c 0
EndSplineSet
Position2: "'cpsp' Versalabstaende 1" dx=2 dy=0 dh=5 dv=0
Colour: ff00ff
EndChar

StartChar: gdotaccent
Encoding: 289 289 53
Width: 483
VWidth: 999
Flags: HW
HStem: -246 25<157.852 273.919> -11 52<170.821 350.015> 127 23<178.526 261.741> 396 23<172.904 254.896> 547 98<179.385 257.791>
VStem: 29 64<-172.874 -61.5916> 55 57<51.3174 134.562> 60 72<198.018 349.579> 171 98<557.729 636.615> 307 72<199.945 352.654> 391 59<-139.244 -48.2085>
LayerCount: 2
Fore
SplineSet
297.321289062 599 m 0
 302.422851562 623 335.524414062 647 359.524414062 647 c 0
 386.524414062 647 401.572265625 619 396.470703125 595 c 0
 391.986328125 573.900390625 362.268554688 547 334.268554688 547 c 0
 310.268554688 547 291.794921875 573 297.321289062 599 c 0
363.540039062 266 m 0
 380.33203125 345 356.172851562 396 296.172851562 396 c 0
 244.172851562 396 207.458007812 355 193.215820312 288 c 0
 180.25 227 175.883789062 150 255.883789062 150 c 0
 290.883789062 150 344.622070312 177 363.540039062 266 c 0
123.874023438 -10 m 1
 88.8603515625 -43 76.6328125 -77 69.8310546875 -109 c 0
 56.015625 -174 100.025390625 -221 164.025390625 -221 c 0
 250.025390625 -221 355.715820312 -166 370.381835938 -97 c 0
 375.696289062 -72 368.584960938 -49 336.048828125 -28 c 0
 311.236328125 -13 279.662109375 -11 231.662109375 -11 c 0
 218.662109375 -11 191.024414062 -14 161.024414062 -14 c 0
 149.024414062 -14 133.236328125 -13 123.874023438 -10 c 1
501.43359375 369 m 0
 491.43359375 369 481.346679688 378 479.046875 386 c 1
 474.959960938 395 469.59765625 398 462.59765625 398 c 0
 450.59765625 398 427.833984375 385 418.708984375 375 c 1
 440.544921875 346 447.23046875 321 437.666015625 276 c 0
 417.897460938 183 329.995117188 127 245.995117188 127 c 0
 208.995117188 127 185.120117188 137 164.883789062 150 c 1
 150.482421875 134 136.018554688 113 131.98046875 94 c 0
 124.541015625 59 155.2265625 34 183.2265625 34 c 0
 188.2265625 34 198.439453125 35 212.65234375 36 c 0
 236.290039062 39 260.71484375 41 277.71484375 41 c 0
 312.71484375 41 379.501953125 40 409.913085938 9 c 0
 433.024414062 -14 441.28515625 -41 434.696289062 -72 c 0
 412.802734375 -175 258.7109375 -246 129.7109375 -246 c 0
 56.7109375 -246 -15.849609375 -211 1.79296875 -128 c 0
 10.5078125 -87 50.7734375 -34 108.362304688 -3 c 1
 81.48828125 7 61.5888671875 31 70.091796875 71 c 0
 78.806640625 112 110.608398438 144 142.497070312 167 c 1
 121.0234375 193 107.400390625 223 118.240234375 274 c 0
 136.9453125 362 224.061523438 419 309.061523438 419 c 0
 365.061523438 419 393.022460938 400 402.322265625 392 c 1
 434.124023438 424 483.524414062 440 508.524414062 440 c 0
 534.524414062 440 549.336914062 425 545.084960938 405 c 0
 541.046875 386 519.43359375 369 501.43359375 369 c 0
EndSplineSet
Colour: ff00ff
EndChar

StartChar: Gcommaaccent
Encoding: 290 290 54
Width: 710
VWidth: 999
Flags: HW
HStem: -226 24<327.919 358.58> -123 82<332.928 397.944> -10 26<314.464 460.634> 284 26<454.361 523.245 630.397 668.639> 631 27<292.38 445.195>
VStem: 32 87<214.802 432.033> 399.6 39<-177.408 -99.958> 540 79<83.4212 274.003>
LayerCount: 2
Fore
SplineSet
367.884765625 -41 m 0
 405.884765625 -41 422.658203125 -75 411.60546875 -127 c 0
 398.8515625 -187 343.475585938 -217 284.5625 -226 c 1
 279.837890625 -220 279.750976562 -211 281.6640625 -202 c 1
 333.001953125 -191 364.103515625 -167 367.928710938 -149 c 0
 372.180664062 -129 360.030273438 -125 342.455078125 -123 c 1
 326.092773438 -120 303.005859375 -111 308.745117188 -84 c 0
 313.846679688 -60 338.884765625 -41 367.884765625 -41 c 0
513.862304688 658 m 0
 635.862304688 658 662.296875 613 722.296875 613 c 1
 721.844726562 577 718.323242188 527.5 711.563476562 459 c 1
 703.094726562 453.5 696.288085938 453 686.288085938 453 c 1
 678.568359375 539 639.123046875 631 494.123046875 631 c 0
 367.123046875 631 225.703125 502 188.505859375 327 c 0
 160.448242188 195 217.401367188 16 395.401367188 16 c 0
 449.401367188 16 514.927734375 42 555.729492188 74 c 1
 590.163085938 236 l 2
 598.686523438 276.099609375 572.373046875 279.799804688 518.366210938 284 c 1
 513.641601562 290 516.6171875 304 523.892578125 310 c 1
 570.6796875 309 607.830078125 305 646.830078125 305 c 0
 686.830078125 305 700.6796875 309 730.892578125 310 c 1
 735.6171875 304 732.641601562 290 725.366210938 284 c 1
 695.728515625 281 676.645507812 271.200195312 669.163085938 236 c 2
 642.59375 111 l 2
 640.255859375 100 643.555664062 92 652.642578125 83 c 1
 572.313476562 25 484.874023438 -10 366.874023438 -10 c 0
 165.874023438 -10 60.482421875 134 97.2548828125 307 c 0
 144.017578125 527 341.862304688 658 513.862304688 658 c 0
EndSplineSet
Position2: "'cpsp' Versalabstaende 1" dx=2 dy=0 dh=5 dv=0
Colour: ff00ff
EndChar

StartChar: gcommaaccent
Encoding: 291 291 55
Width: 483
VWidth: 999
Flags: HW
HStem: -246 25<157.852 273.919> -11 52<170.821 350.015> 127 23<178.526 261.741> 396 23<172.904 254.896> 511 82<200.44 272.661> 673 20<246.927 275.524>
VStem: 29 64<-172.874 -61.5916> 55 57<51.3174 134.562> 60 72<198.018 349.579> 166 34<566 641.371> 307 72<199.945 352.654> 391 59<-139.244 -48.2085>
LayerCount: 2
Fore
SplineSet
336.616210938 511 m 0
 297.616210938 511 282.481445312 548 290.1328125 584 c 0
 295.234375 608 306.91015625 630 327.162109375 650 c 0
 348.546875 671.099609375 380.239257812 688 419.301757812 693 c 1
 422.451171875 689 421.538085938 680 420.05078125 673 c 1
 360.5 661 333.698242188 629 328.809570312 606 c 0
 324.643554688 586.400390625 330.845703125 593 355.045898438 593 c 0
 395.045898438 593 399.944335938 569 396.331054688 552 c 0
 392.930664062 536 371.616210938 511 336.616210938 511 c 0
363.540039062 266 m 0
 380.33203125 345 356.172851562 396 296.172851562 396 c 0
 244.172851562 396 207.458007812 355 193.215820312 288 c 0
 180.25 227 175.883789062 150 255.883789062 150 c 0
 290.883789062 150 344.622070312 177 363.540039062 266 c 0
123.874023438 -10 m 1
 88.8603515625 -43 76.6328125 -77 69.8310546875 -109 c 0
 56.015625 -174 100.025390625 -221 164.025390625 -221 c 0
 250.025390625 -221 355.715820312 -166 370.381835938 -97 c 0
 375.696289062 -72 368.584960938 -49 336.048828125 -28 c 0
 311.236328125 -13 279.662109375 -11 231.662109375 -11 c 0
 218.662109375 -11 191.024414062 -14 161.024414062 -14 c 0
 149.024414062 -14 133.236328125 -13 123.874023438 -10 c 1
501.43359375 369 m 0
 491.43359375 369 481.346679688 378 479.046875 386 c 1
 474.959960938 395 469.59765625 398 462.59765625 398 c 0
 450.59765625 398 427.833984375 385 418.708984375 375 c 1
 440.544921875 346 447.23046875 321 437.666015625 276 c 0
 417.897460938 183 329.995117188 127 245.995117188 127 c 0
 208.995117188 127 185.120117188 137 164.883789062 150 c 1
 150.482421875 134 136.018554688 113 131.98046875 94 c 0
 124.541015625 59 155.2265625 34 183.2265625 34 c 0
 188.2265625 34 198.439453125 35 212.65234375 36 c 0
 236.290039062 39 260.71484375 41 277.71484375 41 c 0
 312.71484375 41 379.501953125 40 409.913085938 9 c 0
 433.024414062 -14 441.28515625 -41 434.696289062 -72 c 0
 412.802734375 -175 258.7109375 -246 129.7109375 -246 c 0
 56.7109375 -246 -15.849609375 -211 1.79296875 -128 c 0
 10.5078125 -87 50.7734375 -34 108.362304688 -3 c 1
 81.48828125 7 61.5888671875 31 70.091796875 71 c 0
 78.806640625 112 110.608398438 144 142.497070312 167 c 1
 121.0234375 193 107.400390625 223 118.240234375 274 c 0
 136.9453125 362 224.061523438 419 309.061523438 419 c 0
 365.061523438 419 393.022460938 400 402.322265625 392 c 1
 434.124023438 424 483.524414062 440 508.524414062 440 c 0
 534.524414062 440 549.336914062 425 545.084960938 405 c 0
 541.046875 386 519.43359375 369 501.43359375 369 c 0
EndSplineSet
Colour: ff00ff
EndChar

StartChar: Hcircumflex
Encoding: 292 292 56
Width: 729
VWidth: 999
Flags: HW
HStem: -5 23<15.6328 83.3104 214.694 282.367 442.633 510.31 641.694 709.367> 329 26<189.098 535.864> 627 23<15.6328 83.3104 214.842 282.367 442.633 510.31 641.842 709.367>
VStem: 110 79<30.3891 325.368 358.471 614.607> 248.9 243 536 79<30.3891 325.24 358.164 614.607>
LayerCount: 2
Fore
SplineSet
214.168945312 109 m 0
 198.526367188 26 211.463867188 21 280.826171875 18 c 1
 285.55078125 12 283.212890625 1 275.9375 -5 c 1
 226.149414062 -4 199 0 149 0 c 0
 98 0 68.1494140625 -4 18.9375 -5 c 1
 14.212890625 1 16.55078125 12 23.826171875 18 c 1
 94.4638671875 21 109.526367188 26 129.168945312 109 c 0
 148.810546875 192 160.588867188 238 178.23046875 321 c 0
 195.873046875 404 204.288085938 453 219.930664062 536 c 0
 235.572265625 619 222.635742188 624 153.2734375 627 c 1
 148.547851562 633 150.88671875 644 158.162109375 650 c 1
 207.94921875 649 234.098632812 645 284.098632812 645 c 0
 335.098632812 645 365.94921875 649 415.162109375 650 c 1
 419.88671875 644 417.547851562 633 410.2734375 627 c 1
 339.635742188 624 324.572265625 619 304.930664062 536 c 0
 288.051757812 466 278.336914062 425 264.9453125 362 c 1
 270.8828125 357 367.458007812 355 427.458007812 355 c 0
 487.458007812 355 604.669921875 356 612.9453125 362 c 1
 626.124023438 424 635.051757812 466 647.930664062 536 c 0
 663.572265625 619 648.635742188 624 579.2734375 627 c 1
 574.547851562 633 576.88671875 644 584.162109375 650 c 1
 633.94921875 649 662.098632812 645 712.098632812 645 c 0
 763.098632812 645 793.94921875 649 843.162109375 650 c 1
 847.88671875 644 845.547851562 633 838.2734375 627 c 1
 767.635742188 624 750.572265625 619 730.930664062 536 c 0
 711.075195312 452 700.66015625 403 683.018554688 320 c 0
 665.375976562 237 655.598632812 191 640.168945312 109 c 0
 624.526367188 26 639.463867188 21 708.826171875 18 c 1
 713.55078125 12 711.212890625 1 703.9375 -5 c 1
 654.149414062 -4 625 0 575 0 c 0
 524 0 494.149414062 -4 444.9375 -5 c 1
 440.212890625 1 442.55078125 12 449.826171875 18 c 1
 520.463867188 21 537.526367188 26 557.168945312 109 c 0
 575.110351562 184 588.776367188 253 604.443359375 322 c 1
 593.71875 328 480.930664062 329 420.930664062 329 c 0
 360.930664062 329 268.505859375 327 256.443359375 322 c 1
 239.438476562 242 230.0234375 193 214.168945312 109 c 0
560.220703125 806 m 1
 582.568359375 770 612.341796875 736 642.602539062 709 c 1
 637.868164062 699.900390625 632.046875 691.799804688 622.138671875 688 c 1
 586.96484375 706 556.791015625 724 529.104492188 749 c 1
 486.366210938 722 450.751953125 705 409.138671875 688 c 1
 401.4140625 694 399.689453125 700 399.602539062 709 c 1
 442.553710938 737 482.994140625 772 521.220703125 806 c 1
 537.005859375 814.400390625 546.45703125 813.700195312 560.220703125 806 c 1
EndSplineSet
Position2: "'cpsp' Versalabstaende 1" dx=2 dy=0 dh=5 dv=0
Colour: ff00ff
EndChar

StartChar: hcircumflex
Encoding: 293 293 57
Width: 511
VWidth: 999
Flags: HW
HStem: -5 23<19.1328 72.242 173.902 219.867 299.777 345.83 449.982 499.223> 389 30<252.357 333.342> 654 19<23.7998 76.1763> 678 20<139 155.5>
VStem: 90 69<26.837 319.786 341.151 649.538> 144 243 362 70<26.8583 366.205>
LayerCount: 2
Fore
SplineSet
461.484375 835 m 1
 483.833007812 799 513.60546875 765 543.8671875 738 c 1
 539.1328125 728.900390625 533.310546875 720.799804688 523.403320312 717 c 1
 488.229492188 735 458.0546875 753 430.369140625 778 c 1
 387.629882812 751 352.016601562 734 310.403320312 717 c 1
 302.678710938 723 300.954101562 729 300.8671875 738 c 1
 343.818359375 766 384.2578125 801 422.484375 835 c 1
 438.270507812 843.400390625 447.721679688 842.700195312 461.484375 835 c 1
215.028320312 273 m 2
 215.028320312 273 189.733398438 154 181.10546875 104 c 0
 167.53515625 25.099609375 172.67578125 22 219.826171875 18 c 1
 224.55078125 12 222.212890625 1 214.9375 -5 c 1
 175.149414062 -4 162 0 125 0 c 0
 84 0 61.1494140625 -4 21.9375 -5 c 1
 17.212890625 1 19.55078125 12 26.826171875 18 c 1
 82.67578125 22 92.7138671875 25 112.10546875 104 c 0
 126.859375 164 201.678710938 516 212.432617188 576 c 0
 226.737304688 656 217.374023438 651 168.01171875 654 c 1
 163.287109375 660 162.350585938 665 166.05078125 673 c 1
 204.688476562 676 273.239257812 688 299.364257812 698 c 1
 308.364257812 698 310.939453125 696 309.451171875 689 c 0
 300.390625 653.900390625 302 661 286.321289062 599 c 0
 273.693359375 549 228.481445312 341 228.481445312 341 c 2
 225.71875 328 234.631835938 337 238.481445312 341 c 0
 310.297851562 406 372.061523438 419 419.061523438 419 c 0
 452.061523438 419 479.510742188 407 491.046875 386 c 0
 506.8828125 357 499.9921875 310 486.83984375 258 c 0
 474.211914062 208 462.733398438 154 454.10546875 104 c 0
 440.647460938 26.099609375 447.888671875 23 499.826171875 18 c 1
 503.55078125 12 501.212890625 1 494.9375 -5 c 1
 454.149414062 -4 437 0 398 0 c 0
 360 0 342.149414062 -4 301.9375 -5 c 1
 298.212890625 1 300.55078125 12 306.826171875 18 c 1
 357.888671875 23 364.447265625 26.099609375 384.10546875 104 c 0
 396.733398438 154 408.849609375 211 417.477539062 261 c 0
 422.44140625 290 429.418945312 336 423.458007812 355 c 0
 417.133789062 377 398.684570312 389 379.684570312 389 c 0
 341.684570312 389 283.182617188 349 239.530273438 313 c 0
 229.830078125 305 219.279296875 293 215.028320312 273 c 2
EndSplineSet
Colour: ff00ff
EndChar

StartChar: Hbar
Encoding: 294 294 58
Width: 729
VWidth: 999
Flags: HW
HStem: -5 23<15.6328 83.3104 214.694 282.367 442.633 510.31 641.694 709.367> 329 26<189.098 535.864> 512 34<33.9385 698.938> 627 23<15.6328 83.3104 214.842 282.367 442.633 510.31 641.842 709.367>
VStem: 110 79<30.3891 325.368 358.471 614.607> 536 79<30.3891 325.24 358.164 614.607>
LayerCount: 2
Fore
SplineSet
214.168945312 109 m 0
 198.526367188 26 211.463867188 21 280.826171875 18 c 1
 285.55078125 12 283.212890625 1 275.9375 -5 c 1
 226.149414062 -4 199 0 149 0 c 0
 98 0 68.1494140625 -4 18.9375 -5 c 1
 14.212890625 1 16.55078125 12 23.826171875 18 c 1
 94.4638671875 21 109.526367188 26 129.168945312 109 c 0
 148.810546875 192 160.588867188 238 178.23046875 321 c 0
 194.108398438 395.700195312 202.520507812 442.799804688 215.428710938 512 c 1
 142.728515625 512 l 1
 149.956054688 546 l 1
 221.755859375 546 l 1
 234.357421875 619.400390625 219.756835938 624.099609375 153.2734375 627 c 1
 148.547851562 633 150.88671875 644 158.162109375 650 c 1
 207.94921875 649 234.098632812 645 284.098632812 645 c 0
 335.098632812 645 365.94921875 649 415.162109375 650 c 1
 419.88671875 644 417.547851562 633 410.2734375 627 c 1
 342.556640625 624.099609375 325.958007812 619.400390625 307.35546875 546 c 1
 649.755859375 546 l 1
 662.2578125 619.400390625 645.756835938 624.099609375 579.2734375 627 c 1
 574.547851562 633 576.88671875 644 584.162109375 650 c 1
 633.94921875 649 662.098632812 645 712.098632812 645 c 0
 763.098632812 645 793.94921875 649 843.162109375 650 c 1
 847.88671875 644 845.547851562 633 838.2734375 627 c 1
 770.556640625 624.099609375 752.057617188 619.400390625 733.35546875 546 c 1
 814.956054688 546 l 1
 807.728515625 512 l 1
 725.329101562 512 l 1
 708.950195312 442 698.916992188 394.799804688 683.018554688 320 c 0
 665.375976562 237 655.598632812 191 640.168945312 109 c 0
 624.526367188 26 639.463867188 21 708.826171875 18 c 1
 713.55078125 12 711.212890625 1 703.9375 -5 c 1
 654.149414062 -4 625 0 575 0 c 0
 524 0 494.149414062 -4 444.9375 -5 c 1
 440.212890625 1 442.55078125 12 449.826171875 18 c 1
 520.463867188 21 537.526367188 26 557.168945312 109 c 0
 575.110351562 184 588.776367188 253 604.443359375 322 c 1
 593.71875 328 480.930664062 329 420.930664062 329 c 0
 360.930664062 329 268.505859375 327 256.443359375 322 c 1
 239.438476562 242 230.0234375 193 214.168945312 109 c 0
643.428710938 512 m 1
 299.12890625 512 l 1
 285.704101562 455.900390625 276.7421875 417.5 264.9453125 362 c 1
 270.8828125 357 367.458007812 355 427.458007812 355 c 0
 487.458007812 355 604.669921875 356 612.9453125 362 c 1
 624.55078125 416.599609375 631.461914062 455.700195312 643.428710938 512 c 1
EndSplineSet
Position2: "'cpsp' Versalabstaende 1" dx=2 dy=0 dh=5 dv=0
Colour: ff9ccc
EndChar

StartChar: hbar
Encoding: 295 295 59
Width: 511
VWidth: 999
Flags: HW
HStem: -5 23<19.1328 72.242 173.902 219.867 299.777 345.83 449.982 499.223> 389 30<252.357 333.342> 538 31<21.75 276.936> 654 19<23.7998 76.1763> 678 20<139 155.5>
VStem: 90 69<26.837 319.786 341.151 649.538> 362 70<26.8583 366.205>
LayerCount: 2
Fore
SplineSet
393.944335938 569 m 2
 398.944335938 569 401.219726562 567 399.668945312 563 c 2
 393.055664062 546 l 2
 390.389648438 539.099609375 379.35546875 538 370.35546875 538 c 2
 272.055664062 538 l 1
 254.036132812 458.400390625 228.481445312 341 228.481445312 341 c 2
 225.71875 328 234.631835938 337 238.481445312 341 c 0
 310.297851562 406 372.061523438 419 419.061523438 419 c 0
 452.061523438 419 479.510742188 407 491.046875 386 c 0
 506.8828125 357 499.9921875 310 486.83984375 258 c 0
 474.211914062 208 462.733398438 154 454.10546875 104 c 0
 440.647460938 26.099609375 447.888671875 23 499.826171875 18 c 1
 503.55078125 12 501.212890625 1 494.9375 -5 c 1
 454.149414062 -4 437 0 398 0 c 0
 360 0 342.149414062 -4 301.9375 -5 c 1
 298.212890625 1 300.55078125 12 306.826171875 18 c 1
 357.888671875 23 364.447265625 26.099609375 384.10546875 104 c 0
 396.733398438 154 408.849609375 211 417.477539062 261 c 0
 422.44140625 290 429.418945312 336 423.458007812 355 c 0
 417.133789062 377 398.684570312 389 379.684570312 389 c 0
 341.684570312 389 283.182617188 349 239.530273438 313 c 0
 229.830078125 305 219.279296875 293 215.028320312 273 c 2
 215.028320312 273 189.733398438 154 181.10546875 104 c 0
 167.53515625 25.099609375 172.67578125 22 219.826171875 18 c 1
 224.55078125 12 222.212890625 1 214.9375 -5 c 1
 175.149414062 -4 162 0 125 0 c 0
 84 0 61.1494140625 -4 21.9375 -5 c 1
 17.212890625 1 19.55078125 12 26.826171875 18 c 1
 82.67578125 22 92.7138671875 25 112.10546875 104 c 0
 124.858398438 156 182.889648438 427.599609375 205.055664062 538 c 1
 139.35546875 538 l 2
 135.35546875 538 133.483398438 538.599609375 135.630859375 544 c 2
 139.96875 555 l 2
 143.502929688 564.099609375 147.944335938 569 164.944335938 569 c 2
 211.14453125 569 l 1
 211.59765625 571.599609375 212.107421875 574 212.432617188 576 c 0
 226.737304688 656 217.374023438 651 168.01171875 654 c 1
 163.287109375 660 162.350585938 665 166.05078125 673 c 1
 204.688476562 676 273.239257812 688 299.364257812 698 c 1
 308.364257812 698 310.939453125 696 309.451171875 689 c 0
 300.390625 653.900390625 302 661 286.321289062 599 c 0
 284.512695312 591.900390625 282.001953125 581.5 279.14453125 569 c 1
 393.944335938 569 l 2
EndSplineSet
Colour: ff9ccc
EndChar

StartChar: Itilde
Encoding: 296 296 60
Width: 303
VWidth: 999
Flags: HW
HStem: -5 23<15.6328 83.3107 214.694 282.367> 627 23<15.6328 83.3107 214.842 282.367> 675 53<157.899 247.924> 726 55<47.197 140.118>
VStem: 109.5 79<33.5092 611.486>
LayerCount: 2
Fore
SplineSet
366.015625 718 m 0
 388.015625 718 401.141601562 728 424.068359375 770 c 1
 435.28125 771 444.643554688 768 449.79296875 764 c 1
 425.040039062 704 387.75 665 341.75 665 c 0
 319.75 665 302.576171875 683 284.551757812 697 c 0
 268.889648438 708 251.590820312 716 234.590820312 716 c 0
 208.590820312 716 195.40234375 701 178.387695312 668 c 1
 166.962890625 666 157.174804688 667 152.450195312 673 c 1
 178.991210938 732 210.28125 771 253.28125 771 c 0
 283.28125 771 301.030273438 751 318.053710938 737 c 0
 331.50390625 725 347.015625 718 366.015625 718 c 0
214.668945312 109 m 0
 199.026367188 26 212.963867188 21 282.326171875 18 c 1
 287.05078125 12 284.712890625 1 277.4375 -5 c 1
 227.649414062 -4 199.799804688 0 149.5 0 c 0
 98.7998046875 0 67.6494140625 -4 18.4375 -5 c 1
 13.712890625 1 16.05078125 12 23.326171875 18 c 1
 93.9638671875 21 110.026367188 26 129.668945312 109 c 0
 149.310546875 192 160.088867188 238 177.73046875 321 c 0
 195.373046875 404 204.788085938 453 220.430664062 536 c 0
 236.072265625 619 222.135742188 624 152.7734375 627 c 1
 148.047851562 633 150.38671875 644 157.662109375 650 c 1
 207.44921875 649 235.298828125 645 285.598632812 645 c 0
 336.298828125 645 367.44921875 649 416.662109375 650 c 1
 421.38671875 644 419.047851562 633 411.7734375 627 c 1
 341.135742188 624 325.572265625 619 305.430664062 536 c 0
 285.075195312 452 274.16015625 403 256.518554688 320 c 0
 238.875976562 237 230.204101562 191.5 214.668945312 109 c 0
EndSplineSet
Position2: "'cpsp' Versalabstaende 1" dx=2 dy=0 dh=5 dv=0
Colour: ff00ff
EndChar

StartChar: itilde
Encoding: 297 297 61
Width: 267
VWidth: 999
Flags: HW
HStem: -5 23<27.1328 83.6629 195.183 251.867> 375 18<35.9609 81.8828> 402 20<154.75 173> 504 53<134.115 215.137> 555 55<34.4831 118.112>
VStem: 105 69<29.5425 365.935>
AnchorPoint: "unten_anhang" 141.575 -2 basechar 0
AnchorPoint: "unten_punkt" 112.619 -110 basechar 0
AnchorPoint: "top_akzent" 307.982 795 basechar 0
LayerCount: 2
Fore
SplineSet
300.368164062 547 m 0
 320.16796875 547 332.194335938 557 353.721679688 599 c 1
 363.833984375 600 372.196289062 597 376.74609375 593 c 1
 353.192382812 533 318.802734375 494 277.403320312 494 c 0
 257.602539062 494 242.529296875 512 226.604492188 526 c 0
 212.743164062 537 197.34375 545 182.04296875 545 c 0
 158.643554688 545 146.455078125 530 130.440429688 497 c 1
 120.115234375 495 111.328125 496 107.203125 502 c 1
 132.34375 561 161.333984375 600 200.034179688 600 c 0
 227.034179688 600 242.583007812 580 257.607421875 566 c 0
 269.456054688 554 283.268554688 547 300.368164062 547 c 0
199.168945312 109 m 0
 183.313476562 25 191.67578125 22 251.826171875 18 c 1
 256.55078125 12 254.212890625 1 246.9375 -5 c 1
 204.149414062 -4 182.200195312 0 140 0 c 0
 97.400390625 0 72.1494140625 -4 29.9375 -5 c 1
 25.212890625 1 27.55078125 12 34.826171875 18 c 1
 96.888671875 23 106.026367188 26 126.168945312 109 c 0
 133.4453125 139 145.4921875 190.5 151.869140625 220.5 c 0
 158.245117188 250.5 162.877929688 277 168.254882812 307 c 0
 178.583007812 365 171.125 369.900390625 117.708984375 375 c 1
 116.984375 381 116.259765625 387 119.53515625 393 c 1
 190.447265625 402 227.860351562 411 258.69921875 422 c 1
 266.69921875 422 271.061523438 419 270.2109375 415 c 2
 270.2109375 415 255.211914062 360.900390625 242.168945312 311.299804688 c 0
 234.228515625 281 227.033203125 249.5 220.65625 219.5 c 0
 214.279296875 189.5 204.845703125 139 199.168945312 109 c 0
EndSplineSet
Colour: ff00ff
EndChar

StartChar: Imacron
Encoding: 298 298 62
Width: 303
VWidth: 999
Flags: HW
HStem: -5 23<15.6328 83.3107 214.694 282.367> 627 23<15.6328 83.3107 214.842 282.367> 745 50<20.3287 277.028>
VStem: 18.4 261<745.239 795> 109.5 79<33.5092 611.486>
LayerCount: 2
Fore
SplineSet
422.681640625 787 m 2
 198.681640625 787 l 2
 189.681640625 787 188.020507812 798 189.5078125 805 c 0
 192.05859375 817 207.309570312 837 218.309570312 837 c 2
 443.309570312 837 l 2
 453.309570312 837 454.971679688 826 453.696289062 820 c 0
 451.145507812 808 435.681640625 787 422.681640625 787 c 2
214.668945312 109 m 0
 199.026367188 26 212.963867188 21 282.326171875 18 c 1
 287.05078125 12 284.712890625 1 277.4375 -5 c 1
 227.649414062 -4 199.799804688 0 149.5 0 c 0
 98.7998046875 0 67.6494140625 -4 18.4375 -5 c 1
 13.712890625 1 16.05078125 12 23.326171875 18 c 1
 93.9638671875 21 110.026367188 26 129.668945312 109 c 0
 149.310546875 192 160.088867188 238 177.73046875 321 c 0
 195.373046875 404 204.788085938 453 220.430664062 536 c 0
 236.072265625 619 222.135742188 624 152.7734375 627 c 1
 148.047851562 633 150.38671875 644 157.662109375 650 c 1
 207.44921875 649 235.298828125 645 285.598632812 645 c 0
 336.298828125 645 367.44921875 649 416.662109375 650 c 1
 421.38671875 644 419.047851562 633 411.7734375 627 c 1
 341.135742188 624 325.572265625 619 305.430664062 536 c 0
 285.075195312 452 274.16015625 403 256.518554688 320 c 0
 238.875976562 237 230.204101562 191.5 214.668945312 109 c 0
EndSplineSet
Position2: "'cpsp' Versalabstaende 1" dx=2 dy=0 dh=5 dv=0
Colour: ff00ff
EndChar

StartChar: imacron
Encoding: 299 299 63
Width: 267
VWidth: 999
Flags: HW
HStem: -5 23<27.1328 83.6629 195.183 251.867> 375 18<35.9609 81.8828> 402 20<154.75 173> 560 50<8.30163 239.331>
VStem: 6.6 234.9<560.239 610> 105 69<29.5425 365.935>
LayerCount: 2
Fore
SplineSet
338.931640625 560 m 2
 137.33203125 560 l 2
 129.231445312 560 127.969726562 571 129.458007812 578 c 0
 132.008789062 590 146.159179688 610 156.059570312 610 c 2
 358.559570312 610 l 2
 367.559570312 610 368.821289062 599 367.545898438 593 c 0
 364.995117188 581 350.631835938 560 338.931640625 560 c 2
199.168945312 109 m 0
 183.313476562 25 191.67578125 22 251.826171875 18 c 1
 256.55078125 12 254.212890625 1 246.9375 -5 c 1
 204.149414062 -4 182.200195312 0 140 0 c 0
 97.400390625 0 72.1494140625 -4 29.9375 -5 c 1
 25.212890625 1 27.55078125 12 34.826171875 18 c 1
 96.888671875 23 106.026367188 26 126.168945312 109 c 0
 133.4453125 139 145.4921875 190.5 151.869140625 220.5 c 0
 158.245117188 250.5 162.877929688 277 168.254882812 307 c 0
 178.583007812 365 171.125 369.900390625 117.708984375 375 c 1
 116.984375 381 116.259765625 387 119.53515625 393 c 1
 190.447265625 402 227.860351562 411 258.69921875 422 c 1
 266.69921875 422 271.061523438 419 270.2109375 415 c 2
 270.2109375 415 255.211914062 360.900390625 242.168945312 311.299804688 c 0
 234.228515625 281 227.033203125 249.5 220.65625 219.5 c 0
 214.279296875 189.5 204.845703125 139 199.168945312 109 c 0
EndSplineSet
Colour: ff00ff
EndChar

StartChar: Ibreve
Encoding: 300 300 64
Width: 303
VWidth: 999
Flags: HW
HStem: -5 23<15.6328 83.3107 214.694 282.367> 627 23<15.6328 83.3107 214.842 282.367> 692 52<70.176 227.926> 785 20<13.438 45.438 253.938 285.438>
VStem: 13.4 28<780.047 805> 109.5 79<33.5092 611.486> 257.4 28<779.76 805>
LayerCount: 2
Fore
SplineSet
456.5078125 805 m 1
 435.416992188 734 362.489257812 692 296.489257812 692 c 0
 223.489257812 692 174.62890625 735 184.5078125 805 c 1
 212.5078125 805 l 1
 212.21875 766 254.541992188 744 307.541992188 744 c 0
 356.541992188 744 413.21875 766 428.5078125 805 c 1
 456.5078125 805 l 1
214.668945312 109 m 0
 199.026367188 26 212.963867188 21 282.326171875 18 c 1
 287.05078125 12 284.712890625 1 277.4375 -5 c 1
 227.649414062 -4 199.799804688 0 149.5 0 c 0
 98.7998046875 0 67.6494140625 -4 18.4375 -5 c 1
 13.712890625 1 16.05078125 12 23.326171875 18 c 1
 93.9638671875 21 110.026367188 26 129.668945312 109 c 0
 149.310546875 192 160.088867188 238 177.73046875 321 c 0
 195.373046875 404 204.788085938 453 220.430664062 536 c 0
 236.072265625 619 222.135742188 624 152.7734375 627 c 1
 148.047851562 633 150.38671875 644 157.662109375 650 c 1
 207.44921875 649 235.298828125 645 285.598632812 645 c 0
 336.298828125 645 367.44921875 649 416.662109375 650 c 1
 421.38671875 644 419.047851562 633 411.7734375 627 c 1
 341.135742188 624 325.572265625 619 305.430664062 536 c 0
 285.075195312 452 274.16015625 403 256.518554688 320 c 0
 238.875976562 237 230.204101562 191.5 214.668945312 109 c 0
EndSplineSet
Position2: "'cpsp' Versalabstaende 1" dx=2 dy=0 dh=5 dv=0
Colour: ff00ff
EndChar

StartChar: ibreve
Encoding: 301 301 65
Width: 267
VWidth: 999
Flags: HW
HStem: -5 23<27.1328 83.6629 195.183 251.867> 375 18<35.9609 81.8828> 402 20<154.75 173> 484 57<67.1628 186.583> 611 20<3.9 33.15 218.1 246.9>
VStem: 3.9 24.3<596.641 622.111> 105 69<29.5425 365.935> 222.6 24.3<595.798 622.111>
LayerCount: 2
Fore
SplineSet
162.323242188 631 m 1
 160.958007812 578 191.79296875 541 240.393554688 541 c 0
 287.193359375 541 335.39453125 573 356.723632812 631 c 1
 378.47265625 619 l 1
 349.392578125 533 281.376953125 484 228.27734375 484 c 0
 165.27734375 484 130.004882812 534 135.47265625 619 c 1
 162.323242188 631 l 1
199.168945312 109 m 0
 183.313476562 25 191.67578125 22 251.826171875 18 c 1
 256.55078125 12 254.212890625 1 246.9375 -5 c 1
 204.149414062 -4 182.200195312 0 140 0 c 0
 97.400390625 0 72.1494140625 -4 29.9375 -5 c 1
 25.212890625 1 27.55078125 12 34.826171875 18 c 1
 96.888671875 23 106.026367188 26 126.168945312 109 c 0
 133.4453125 139 145.4921875 190.5 151.869140625 220.5 c 0
 158.245117188 250.5 162.877929688 277 168.254882812 307 c 0
 178.583007812 365 171.125 369.900390625 117.708984375 375 c 1
 116.984375 381 116.259765625 387 119.53515625 393 c 1
 190.447265625 402 227.860351562 411 258.69921875 422 c 1
 266.69921875 422 271.061523438 419 270.2109375 415 c 2
 270.2109375 415 255.211914062 360.900390625 242.168945312 311.299804688 c 0
 234.228515625 281 227.033203125 249.5 220.65625 219.5 c 0
 214.279296875 189.5 204.845703125 139 199.168945312 109 c 0
EndSplineSet
Colour: ff00ff
EndChar

StartChar: Iogonek
Encoding: 302 302 66
Width: 303
VWidth: 999
Flags: HW
HStem: -200 38<152.957 236.271> -5 23<15.6328 83.3107 214.694 282.367> -2 17<225.122 251.438> 627 23<15.6328 83.3107 214.842 282.367>
VStem: 83.4 62<-155.299 -63.1465> 109.5 79<33.5092 611.486>
AnchorPoint: "top_akzent" 326.673 850 basechar 0
LayerCount: 2
Fore
SplineSet
252.705078125 -135 m 1
 214.139648438 -180 169.888671875 -200 128.888671875 -200 c 0
 78.888671875 -200 45.1396484375 -180 56.6181640625 -126 c 0
 65.396484375 -84.7001953125 113.033203125 -27.599609375 178.693359375 -0.5 c 1
 169.657226562 -0.2001953125 160.099609375 0 149.5 0 c 0
 98.7998046875 0 67.6494140625 -4 18.4375 -5 c 1
 13.712890625 1 16.05078125 12 23.326171875 18 c 1
 93.9638671875 21 110.026367188 26 129.668945312 109 c 0
 149.310546875 192 160.088867188 238 177.73046875 321 c 0
 195.373046875 404 204.788085938 453 220.430664062 536 c 0
 236.072265625 619 222.135742188 624 152.7734375 627 c 1
 148.047851562 633 150.38671875 644 157.662109375 650 c 1
 207.44921875 649 235.298828125 645 285.598632812 645 c 0
 336.298828125 645 367.44921875 649 416.662109375 650 c 1
 421.38671875 644 419.047851562 633 411.7734375 627 c 1
 341.135742188 624 325.572265625 619 305.430664062 536 c 0
 285.075195312 452 274.16015625 403 256.518554688 320 c 0
 238.875976562 237 230.204101562 191.5 214.668945312 109 c 0
 199.026367188 26 212.963867188 21 282.326171875 18 c 1
 287.05078125 12 284.712890625 1 277.4375 -5 c 1
 265.379882812 -4.7998046875 254.5859375 -4.2998046875 244.4921875 -3.7998046875 c 1
 182.232421875 -14.900390625 129.77734375 -73.5 120.956054688 -115 c 0
 115.4296875 -141 123.965820312 -162 160.965820312 -162 c 0
 189.965820312 -162 209.3671875 -146 236.04296875 -124 c 1
 245.04296875 -124 250.192382812 -128 252.705078125 -135 c 1
EndSplineSet
Position2: "'cpsp' Versalabstaende 1" dx=2 dy=0 dh=5 dv=0
Colour: ff9ccc
EndChar

StartChar: iogonek
Encoding: 303 303 67
Width: 267
VWidth: 999
Flags: HW
HStem: -200 38<130.519 213.833> -2 17<202.684 229> -2 33<26.625 88.875 194.125 256.375> 422 20<157.75 176> 547 98<99.3848 177.791>
VStem: 61 62<-155.299 -63.1465> 91 98<557.729 636.615> 102 79<40.8314 380.346>
AnchorPoint: "top_akzent" 296.731 775 basechar 0
LayerCount: 2
Fore
SplineSet
230.3046875 -135 m 1
 191.740234375 -180 147.48828125 -200 106.48828125 -200 c 0
 56.48828125 -200 22.740234375 -180 34.2177734375 -126 c 0
 43.017578125 -84.599609375 90.818359375 -27.2001953125 156.857421875 -0.2001953125 c 1
 151.579101562 -0.099609375 146 0 140 0 c 0
 97.400390625 0 72.1494140625 -4 29.9375 -5 c 1
 25.212890625 1 27.55078125 12 34.826171875 18 c 1
 96.888671875 23 106.026367188 26 126.168945312 109 c 0
 133.4453125 139 145.4921875 190.5 151.869140625 220.5 c 0
 158.245117188 250.5 162.877929688 277 168.254882812 307 c 0
 178.583007812 365 171.125 369.900390625 117.708984375 375 c 1
 116.984375 381 116.259765625 387 119.53515625 393 c 1
 190.447265625 402 227.860351562 411 258.69921875 422 c 1
 266.69921875 422 271.061523438 419 270.2109375 415 c 2
 270.2109375 415 255.211914062 360.900390625 242.168945312 311.299804688 c 0
 234.228515625 281 227.033203125 249.5 220.65625 219.5 c 0
 214.279296875 189.5 204.845703125 139 199.168945312 109 c 0
 183.313476562 25 191.67578125 22 251.826171875 18 c 1
 256.55078125 12 254.212890625 1 246.9375 -5 c 1
 237.479492188 -4.7998046875 229.064453125 -4.400390625 221.25 -4 c 1
 159.326171875 -15.400390625 107.334960938 -73.7001953125 98.5556640625 -115 c 0
 93.029296875 -141 101.565429688 -162 138.565429688 -162 c 0
 167.565429688 -162 186.966796875 -146 213.642578125 -124 c 1
 222.642578125 -124 227.79296875 -128 230.3046875 -135 c 1
217.321289062 599 m 0
 222.422851562 623 255.524414062 647 279.524414062 647 c 0
 306.524414062 647 321.572265625 619 316.470703125 595 c 0
 311.986328125 573.900390625 282.268554688 547 254.268554688 547 c 0
 230.268554688 547 211.794921875 573 217.321289062 599 c 0
EndSplineSet
Colour: ff9ccc
EndChar

StartChar: Idotaccent
Encoding: 304 304 68
Width: 303
VWidth: 999
Flags: HW
HStem: -5 23<15.6328 83.3107 214.694 282.367> 627 23<15.6328 83.3107 214.842 282.367> 701 104<104.98 187.896>
VStem: 94.4 104<711.542 794.458> 109.5 79<33.5092 611.486>
LayerCount: 2
Fore
SplineSet
254.455078125 753 m 0
 260.40625 781 289.5078125 805 317.5078125 805 c 0
 345.5078125 805 364.40625 781 358.455078125 753 c 0
 352.50390625 725 323.40234375 701 295.40234375 701 c 0
 267.40234375 701 248.50390625 725 254.455078125 753 c 0
214.668945312 109 m 0
 199.026367188 26 212.963867188 21 282.326171875 18 c 1
 287.05078125 12 284.712890625 1 277.4375 -5 c 1
 227.649414062 -4 199.799804688 0 149.5 0 c 0
 98.7998046875 0 67.6494140625 -4 18.4375 -5 c 1
 13.712890625 1 16.05078125 12 23.326171875 18 c 1
 93.9638671875 21 110.026367188 26 129.668945312 109 c 0
 149.310546875 192 160.088867188 238 177.73046875 321 c 0
 195.373046875 404 204.788085938 453 220.430664062 536 c 0
 236.072265625 619 222.135742188 624 152.7734375 627 c 1
 148.047851562 633 150.38671875 644 157.662109375 650 c 1
 207.44921875 649 235.298828125 645 285.598632812 645 c 0
 336.298828125 645 367.44921875 649 416.662109375 650 c 1
 421.38671875 644 419.047851562 633 411.7734375 627 c 1
 341.135742188 624 325.572265625 619 305.430664062 536 c 0
 285.075195312 452 274.16015625 403 256.518554688 320 c 0
 238.875976562 237 230.204101562 191.5 214.668945312 109 c 0
EndSplineSet
Substitution2: "'c2sc' Versale nach Kapitaelchen 1" idotaccent.sc
Position2: "'cpsp' Versalabstaende 1" dx=2 dy=0 dh=5 dv=0
Colour: ff00ff
EndChar

StartChar: afii10057
Encoding: 1032 1032 69
Width: 384
VWidth: 999
Flags: HW
HStem: -7.3 40.3<106.417 176.927> 614 33<109.625 191.5 311 375.375>
VStem: 210 85<100.045 600.635>
LayerCount: 2
Fore
SplineSet
406.166992188 523 m 2
 342.825195312 225 l 2
 321.569335938 125 275.577148438 58.7001953125 220.1015625 24 c 0
 182.749023438 0.7001953125 148.1484375 -7.2998046875 121.047851562 -7.2998046875 c 0
 95.3486328125 -7.2998046875 10.9560546875 4.5 21.478515625 54 c 0
 26.154296875 76 53.1298828125 90 67.1298828125 90 c 0
 98.1298828125 90 106.497070312 76.2001953125 113.390625 63 c 0
 118.565429688 53 121.014648438 33 135.014648438 33 c 0
 168.014648438 33 218.927734375 42 253.149414062 203 c 2
 321.166992188 523 l 2
 338.809570312 606 322.872070312 611 243.509765625 614 c 1
 238.78515625 620 243.249023438 641 250.524414062 647 c 1
 300.311523438 646 335.098632812 645 389.098632812 645 c 0
 436.098632812 645 460.311523438 646 509.524414062 647 c 1
 514.249023438 641 509.78515625 620 502.509765625 614 c 1
 441.872070312 611 423.809570312 606 406.166992188 523 c 2
EndSplineSet
EndChar

StartChar: afii10061
Encoding: 1036 1036 70
Width: 606
VWidth: 999
Flags: HW
HStem: -2 29<20 52 246 278 576 599> 324 42<191 293.192> 590 61<425.487 520.042> 618 29<20 52 246 278> 698 122
VStem: 106 85<35.2953 324 366 609.248> 288 201
LayerCount: 2
Fore
SplineSet
601.295898438 820 m 1
 627.069335938 806.700195312 644.071289062 789.299804688 652.243164062 768 c 1
 495.915039062 710 l 2
 473.001953125 701 460.364257812 698 451.364257812 698 c 0
 442.364257812 698 437.852539062 705 439.552734375 713 c 0
 441.041015625 720 444.103515625 725 459.016601562 734 c 2
 601.295898438 820 l 1
18 0 m 1
 22.0390625 19 l 2
 23.1015625 24 26.7392578125 27 30.7392578125 27 c 2
 58.1640625 29 l 2
 100.801757812 32 115.139648438 43 121.091796875 71 c 2
 228.0078125 574 l 2
 234.383789062 604 221.296875 613 182.934570312 616 c 2
 157.360351562 618 l 2
 153.360351562 618 149.998046875 621 151.060546875 626 c 2
 155.098632812 645 l 1
 157.524414062 647 l 1
 207.311523438 646 237.098632812 645 287.098632812 645 c 0
 337.098632812 645 366.311523438 646 415.524414062 647 c 1
 417.098632812 645 l 1
 413.060546875 626 l 2
 411.998046875 621 408.360351562 618 403.360351562 618 c 2
 376.934570312 616 l 2
 336.296875 613 318.958984375 602 313.0078125 574 c 2
 268.795898438 366 l 1
 304.795898438 366 350.0078125 367 376.984375 381 c 0
 442.786132812 413 470.389648438 477 491.29296875 533 c 0
 514.470703125 595 554.374023438 651 633.374023438 651 c 0
 686.374023438 651 698.209960938 622 693.321289062 599 c 0
 687.157226562 570 661.819335938 559 640.819335938 559 c 0
 627.819335938 559 614.881835938 564 607.0078125 574 c 0
 598.345703125 585 591.408203125 590 578.408203125 590 c 0
 548.408203125 590 534.393554688 557 523.229492188 528 c 0
 499.051757812 466 459.771484375 380 377.8203125 352 c 1
 376.756835938 347 l 1
 445.756835938 347 475.6171875 304 487.73828125 234 c 0
 511.04296875 99 547.588867188 31 581.951171875 28 c 2
 597.739257812 27 l 2
 602.739257812 27 605.1015625 24 604.0390625 19 c 2
 600 0 l 1
 598.575195312 -2 l 1
 519.787109375 -1 l 2
 442 0 423.216796875 81 403.598632812 191 c 0
 385.853515625 291 373.868164062 324 259.868164062 324 c 1
 206.091796875 71 l 2
 199.71484375 41 212.801757812 32 252.1640625 29 c 2
 277.739257812 27 l 2
 281.739257812 27 285.1015625 24 284.0390625 19 c 2
 280 0 l 1
 277.575195312 -2 l 1
 230 0 201 0 151 0 c 0
 101 0 69 0 19.5751953125 -2 c 1
 18 0 l 1
EndSplineSet
LCarets2: 1 0 
Colour: ff00ff
EndChar

StartChar: uni040D
Encoding: 1037 1037 71
Width: 710
VWidth: 999
Flags: HW
HStem: -35.5 7.9<7.45864 144.877 149.278 289.17 414.459 551.877 556.278 696.17> -5 23<15.1328 82.8102 214.194 281.867 422.133 489.81 621.194 688.867> 41.4 7.8<5.4415 49.1656 249.001 290.863 412.441 456.166 656.001 697.863> 596.2 7.8<6.98051 48.7468 248.85 292.402 413.98 455.747 655.85 699.402> 627 23<15.1328 82.8102 214.341 281.867 422.133 489.81 621.341 688.867> 668 8<11.3456 287.309 418.346 694.309> 673 8.1<8.67366 148.566 152.967 290.385 415.674 555.566 559.967 697.385> 698 120
VStem: 78 8<84.4885 563.687> 109 79<33.5092 611.486> 211 8<88.047 545.097> 223 212 485 8<84.4885 563.687> 516 79<33.5092 611.486> 618 8<88.047 545.097>
LayerCount: 2
Fore
SplineSet
472.87109375 818 m 1
 576.016601562 734 l 2
 585.31640625 726 588.041015625 720 586.552734375 713 c 0
 584.852539062 705 576.364257812 698 568.364257812 698 c 0
 560.364257812 698 547.001953125 701 527.915039062 710 c 2
 387.306640625 773 l 1
 409.368164062 790.700195312 436.206054688 806.400390625 472.87109375 818 c 1
621.668945312 109 m 0
 606.026367188 26 619.963867188 21 689.326171875 18 c 1
 694.05078125 12 691.712890625 1 684.4375 -5 c 1
 634.649414062 -4 606.799804688 0 556.5 0 c 0
 505.799804688 0 474.649414062 -4 425.4375 -5 c 1
 420.712890625 1 423.05078125 12 430.326171875 18 c 1
 500.963867188 21 517.026367188 26 536.668945312 109 c 0
 556.310546875 192 567.088867188 238 584.73046875 321 c 0
 602.373046875 404 611.788085938 453 627.430664062 536 c 0
 628.372070312 540.900390625 629.149414062 545.5 629.884765625 549.900390625 c 2
 614.6015625 478 l 1
 606.5703125 475.5 600.513671875 471 594.338867188 465 c 2
 248.969726562 125 l 2
 233.860351562 109.900390625 221.916992188 101.700195312 209.766601562 77 c 1
 204.428710938 24.599609375 223.278320312 20.599609375 282.326171875 18 c 1
 287.05078125 12 284.712890625 1 277.4375 -5 c 1
 227.649414062 -4 199.799804688 0 149.5 0 c 0
 98.7998046875 0 67.6494140625 -4 18.4375 -5 c 1
 13.712890625 1 16.05078125 12 23.326171875 18 c 1
 93.9638671875 21 110.026367188 26 129.668945312 109 c 0
 149.310546875 192 160.088867188 238 177.73046875 321 c 0
 195.373046875 404 204.788085938 453 220.430664062 536 c 0
 236.072265625 619 222.135742188 624 152.7734375 627 c 1
 148.047851562 633 150.38671875 644 157.662109375 650 c 1
 207.44921875 649 235.298828125 645 285.598632812 645 c 0
 336.298828125 645 367.44921875 649 416.662109375 650 c 1
 421.38671875 644 419.047851562 633 411.7734375 627 c 1
 341.135742188 624 325.572265625 619 305.430664062 536 c 0
 285.075195312 452 274.16015625 403 256.518554688 320 c 0
 240.40625 244.200195312 231.747070312 199.700195312 218.58984375 129.799804688 c 1
 226.497070312 167 l 1
 231.161132812 167.299804688 237.68359375 170.700195312 246.53515625 178 c 1
 594.029296875 520 l 2
 609.360351562 535.200195312 623.369140625 555 632.682617188 572 c 1
 636.612304688 620.599609375 617.341796875 624.5 559.7734375 627 c 1
 555.047851562 633 557.38671875 644 564.662109375 650 c 1
 614.44921875 649 642.298828125 645 692.598632812 645 c 0
 743.298828125 645 774.44921875 649 823.662109375 650 c 1
 828.38671875 644 826.047851562 633 818.7734375 627 c 1
 748.135742188 624 732.572265625 619 712.430664062 536 c 0
 692.075195312 452 681.16015625 403 663.518554688 320 c 0
 645.875976562 237 637.204101562 191.5 621.668945312 109 c 0
EndSplineSet
LCarets2: 1 0 
Colour: ff00ff
EndChar

StartChar: afii10062
Encoding: 1038 1038 72
Width: 580
VWidth: 999
Flags: HW
HStem: -22 62<133 229.447> 614 33<1.46875 58.6416 176.509 232.375 383.625 442.046 535.176 587.375> 697 31<266.585 357.415>
VStem: 187 69<734.873 803.004> 368 69<736.589 803.004>
LayerCount: 2
Fore
SplineSet
466.741210938 728 m 0
 499.741210938 728 526.354492188 745 529.967773438 762 c 0
 531.03125 767 531.306640625 773 531.731445312 775 c 0
 534.919921875 790 548.108398438 805 571.108398438 805 c 0
 598.108398438 805 605.131835938 791 601.09375 772 c 0
 590.041015625 720 526.15234375 697 460.15234375 697 c 0
 394.15234375 697 340.041015625 720 351.09375 772 c 0
 355.131835938 791 368.108398438 805 395.108398438 805 c 0
 418.108398438 805 424.919921875 790 421.731445312 775 c 0
 421.306640625 773 419.03125 767 417.967773438 762 c 0
 414.354492188 745 433.741210938 728 466.741210938 728 c 0
215.666992188 523 m 2
 198.258789062 594 191.447265625 609 135.509765625 614 c 1
 130.78515625 620 134.249023438 641 141.524414062 647 c 1
 188.311523438 646 205.098632812 645 245.098632812 645 c 0
 284.098632812 645 319.311523438 646 366.524414062 647 c 1
 371.249023438 641 366.78515625 620 359.509765625 614 c 1
 290.021484375 607 287.62109375 591 301.905273438 534 c 2
 375.67578125 229 l 1
 377.67578125 229 l 1
 550.229492188 528 l 2
 582.1328125 584 590.447265625 609 517.509765625 614 c 1
 512.78515625 620 517.249023438 641 524.524414062 647 c 1
 571.311523438 646 610.098632812 645 633.098632812 645 c 0
 656.098632812 645 681.311523438 646 721.524414062 647 c 1
 726.249023438 641 721.78515625 620 714.509765625 614 c 1
 646.809570312 606 622.944335938 569 594.442382812 521 c 2
 376.221679688 161 l 2
 310.052734375 52 239.32421875 -22 149.32421875 -22 c 0
 107.32421875 -22 64.212890625 1 71.0146484375 33 c 0
 76.9658203125 61 100.216796875 81 130.216796875 81 c 0
 144.216796875 81 164.729492188 74 172.178710938 62 c 0
 177.265625 53 189.501953125 40 203.501953125 40 c 0
 235.501953125 40 264.965820312 61 311.907226562 136 c 1
 215.666992188 523 l 2
EndSplineSet
LCarets2: 1 0 
Colour: ff00ff
EndChar

StartChar: afii10020
Encoding: 1043 1043 73
Width: 481
VWidth: 999
Flags: HW
HStem: -2 33<8.625 81.75 201.25 274.375> 605 40<185.978 404.91> 614 33<8.625 81.75>
VStem: 99 85<43.3808 601.619> 452 29<487.513 529.662>
LayerCount: 2
Fore
SplineSet
278.098632812 645 m 1
 483.098632812 645 l 1
 483.098632812 645 564.311523438 646 603.524414062 647 c 1
 601.83984375 613.200195312 598.971679688 574.299804688 585.15234375 490 c 1
 574.5390625 485.700195312 564.747070312 484.799804688 555.302734375 486 c 1
 548.96875 555 546.596679688 605 471.596679688 605 c 2
 348.596679688 605 l 2
 324.596679688 605 310.470703125 595 305.370117188 571 c 2
 209.931640625 122 l 2
 192.290039062 39 208.2265625 34 277.588867188 31 c 1
 282.313476562 25 277.850585938 4 270.575195312 -2 c 1
 220.787109375 -1 192 0 142 0 c 0
 91 0 60.787109375 -1 11.5751953125 -2 c 1
 6.8505859375 4 11.3134765625 25 18.5888671875 31 c 1
 89.2265625 34 107.290039062 39 124.931640625 122 c 2
 210.166992188 523 l 2
 227.809570312 606 211.872070312 611 142.509765625 614 c 1
 137.78515625 620 142.249023438 641 149.524414062 647 c 1
 199.311523438 646 278.098632812 645 278.098632812 645 c 1
EndSplineSet
Colour: ff00ff
EndChar

StartChar: afii10021
Encoding: 1044 1044 74
Width: 659
VWidth: 999
Flags: HW
HStem: 0 39<182.009 462.022> 605 40<269.132 462.578> 618 29<151 187 586 621>
VStem: 34 27<-140 -94.0922> 464 85<40.4891 603.884> 599 27<-140 -98.3137>
LayerCount: 2
Fore
SplineSet
121.990234375 47 m 0
 153.637695312 73.099609375 186.8203125 145 251.979492188 301 c 1
 298.2109375 415 332.104492188 518 345.495117188 581 c 0
 349.958984375 602 343.169921875 612.400390625 317.72265625 615 c 2
 288.360351562 618 l 2
 283.360351562 618 280.78515625 620 281.635742188 624 c 2
 286.098632812 645 l 1
 288.524414062 647 l 1
 288.524414062 647 358.098632812 645 388.098632812 645 c 2
 649.098632812 645 l 2
 679.098632812 645 758.524414062 647 758.524414062 647 c 1
 760.098632812 645 l 1
 756.060546875 626 l 2
 754.78515625 620 750.423828125 618.299804688 746.360351562 618 c 2
 716.934570312 616 l 2
 684.267578125 613.799804688 676.74609375 601 669.094726562 565 c 2
 565.579101562 78 l 2
 557.71484375 41 577.876953125 30 594.739257812 27 c 0
 615.65234375 23.2998046875 622.651367188 20 620.700195312 8 c 2
 596.2421875 -140 l 1
 569.2421875 -140 569.029296875 -141 569.029296875 -141 c 1
 568.932617188 -85 551 0 471 0 c 2
 181 0 l 2
 98 0 53.08203125 -89 31.029296875 -141 c 1
 4.2421875 -140 l 1
 42.7001953125 8 l 2
 45.8515625 20 57.5205078125 25.5 67.7392578125 27 c 0
 87.876953125 30 104.408203125 32.5 121.990234375 47 c 0
555.596679688 605 m 2
 432.596679688 605 l 2
 405.596679688 605 392.62109375 591 385.306640625 566 c 0
 355.838867188 465 317.733398438 361 291.279296875 293 c 0
 244.41015625 176 198.3671875 77 193.903320312 56 c 0
 191.352539062 44 203.290039062 39 217.290039062 39 c 2
 436.290039062 39 l 2
 460.290039062 39 472.927734375 42 480.791992188 79 c 2
 584.306640625 566 l 2
 590.896484375 597 586.596679688 605 555.596679688 605 c 2
EndSplineSet
EndChar

StartChar: afii10024
Encoding: 1046 1046 75
Width: 863
Flags: HW
HStem: -2 29<6 28 303 335 529 561 835 856> 324 42<294.678 389 474 568.322> 590 61<79.7859 169.758 693.242 783.214> 618 29<303 335 529 561>
VStem: 389 85<35.2953 324 366 609.248>
LayerCount: 2
Fore
SplineSet
6 0 m 1
 10.0390625 19 l 2
 11.1015625 24 13.7392578125 27 18.7392578125 27 c 2
 33.951171875 28 l 2
 66.5888671875 31 128.04296875 99 204.73828125 234 c 1
 245.6171875 304 291.756835938 347 357.756835938 347 c 1
 358.8203125 352 l 1
 292.771484375 380 290.051757812 466 293.229492188 528 c 0
 294.393554688 557 295.408203125 590 267.408203125 590 c 0
 255.408203125 590 246.345703125 585 234.0078125 574 c 0
 222.881835938 564 208.819335938 559 196.819335938 559 c 0
 176.819335938 559 158.157226562 570 164.321289062 599 c 0
 169.209960938 622 192.374023438 651 242.374023438 651 c 0
 317.374023438 651 331.470703125 595 327.29296875 533 c 0
 323.389648438 477 323.786132812 413 371.984375 381 c 1
 391.0078125 367 432.795898438 366 466.795898438 366 c 1
 511.0078125 574 l 2
 517.383789062 604 504.296875 613 465.934570312 616 c 2
 440.360351562 618 l 2
 436.360351562 618 432.998046875 621 434.060546875 626 c 2
 438.098632812 645 l 1
 440.524414062 647 l 1
 490.311523438 646 518.098632812 645 568.098632812 645 c 0
 618.098632812 645 649.311523438 646 698.524414062 647 c 1
 700.098632812 645 l 1
 696.060546875 626 l 2
 694.998046875 621 691.360351562 618 686.360351562 618 c 2
 659.934570312 616 l 2
 619.296875 613 601.958984375 602 596.0078125 574 c 2
 551.795898438 366 l 1
 585.795898438 366 628.0078125 367 652.984375 381 c 1
 714.786132812 413 742.389648438 477 762.29296875 533 c 0
 784.470703125 595 822.374023438 651 897.374023438 651 c 0
 947.374023438 651 958.209960938 622 953.321289062 599 c 0
 947.157226562 570 923.819335938 559 903.819335938 559 c 0
 891.819335938 559 879.881835938 564 873.0078125 574 c 0
 865.345703125 585 858.408203125 590 846.408203125 590 c 0
 818.408203125 590 805.393554688 557 794.229492188 528 c 0
 771.051757812 466 731.771484375 380 653.8203125 352 c 1
 652.756835938 347 l 1
 718.756835938 347 746.6171875 304 757.73828125 234 c 1
 777.04296875 99 809.588867188 31 840.951171875 28 c 2
 855.739257812 27 l 2
 860.739257812 27 862.1015625 24 861.0390625 19 c 2
 857 0 l 1
 855.575195312 -2 l 1
 781.787109375 -1 l 2
 708 0 691.216796875 81 673.598632812 191 c 1
 658.853515625 291 647.868164062 324 542.868164062 324 c 1
 489.091796875 71 l 2
 482.71484375 41 495.801757812 32 535.1640625 29 c 2
 560.739257812 27 l 2
 564.739257812 27 568.1015625 24 567.0390625 19 c 2
 563 0 l 1
 560.575195312 -2 l 1
 513 0 482 0 432 0 c 0
 382 0 352 0 302.575195312 -2 c 1
 301 0 l 1
 305.0390625 19 l 2
 306.1015625 24 309.739257812 27 313.739257812 27 c 2
 341.1640625 29 l 2
 383.801757812 32 398.139648438 43 404.091796875 71 c 2
 457.868164062 324 l 1
 352.868164062 324 327.853515625 291 270.598632812 191 c 1
 206.216796875 81 155 0 80.787109375 -1 c 2
 5.5751953125 -2 l 1
 6 0 l 1
EndSplineSet
Colour: ff9ccc
EndChar

StartChar: afii10025
Encoding: 1047 1047 76
Width: 578
Flags: HW
HStem: -12 36<200.078 368.458> 317 49<169.194 379.155> 624 34<212.7 364.797>
VStem: 68 30<465.533 503.865> 421 88<427.266 574.759> 445 92<91.578 257.488>
LayerCount: 2
Fore
SplineSet
68.4443359375 115 m 0
 73.544921875 139 89.9462890625 155 109.946289062 155 c 0
 137.946289062 155 147.419921875 129 154.893554688 103 c 0
 169.903320312 56 214.1015625 24 292.1015625 24 c 0
 391.1015625 24 463.067382812 85 482.41015625 176 c 0
 497.926757812 249 476.65625 323 355.65625 323 c 0
 322.65625 323 292.380859375 317 265.380859375 317 c 0
 253.380859375 317 237.443359375 322 241.694335938 342 c 0
 245.9453125 362 263.795898438 366 275.795898438 366 c 0
 302.795898438 366 337.520507812 360 364.520507812 360 c 0
 470.520507812 360 512.186523438 429 526.853515625 498 c 0
 541.732421875 568 514.635742188 624 428.635742188 624 c 0
 314.635742188 624 241.331054688 552 196.625976562 464 c 1
 167.051757812 466 l 1
 225.060546875 626 l 1
 297.547851562 633 368.862304688 658 443.862304688 658 c 0
 582.862304688 658 633.770507812 587 616.340820312 505 c 0
 598.486328125 421 527.071289062 372 452.8203125 352 c 1
 451.544921875 346 l 1
 542.356445312 331 592.689453125 262 574.622070312 177 c 0
 546.77734375 46 412.44921875 -12 285.44921875 -12 c 0
 185.44921875 -12 122.55078125 12 98.2900390625 39 c 0
 76.390625 63 61.4296875 82 68.4443359375 115 c 0
EndSplineSet
EndChar

StartChar: afii10026
Encoding: 1048 1048 77
Width: 710
VWidth: 999
Flags: HW
HStem: -35.5 7.9<7.45864 144.877 149.278 289.17 414.459 551.877 556.278 696.17> -5 23<15.1328 82.8102 214.194 281.867 422.133 489.81 621.194 688.867> 41.4 7.8<5.4415 49.1656 249.001 290.863 412.441 456.166 656.001 697.863> 596.2 7.8<6.98051 48.7468 248.85 292.402 413.98 455.747 655.85 699.402> 627 23<15.1328 82.8102 214.341 281.867 422.133 489.81 621.341 688.867> 668 8<11.3456 287.309 418.346 694.309> 673 8.1<8.67366 148.566 152.967 290.385 415.674 555.566 559.967 697.385>
VStem: 78 8<84.4885 563.687> 109 79<33.5092 611.486> 211 8<88.047 545.097> 485 8<84.4885 563.687> 516 79<33.5092 611.486> 618 8<88.047 545.097>
LayerCount: 2
Fore
SplineSet
226.497070312 167 m 1
 231.161132812 167.299804688 237.68359375 170.700195312 246.53515625 178 c 1
 594.029296875 520 l 2
 609.360351562 535.200195312 623.369140625 555 632.682617188 572 c 1
 636.612304688 620.599609375 617.341796875 624.5 559.7734375 627 c 1
 555.047851562 633 557.38671875 644 564.662109375 650 c 1
 614.44921875 649 642.298828125 645 692.598632812 645 c 0
 743.298828125 645 774.44921875 649 823.662109375 650 c 1
 828.38671875 644 826.047851562 633 818.7734375 627 c 1
 748.135742188 624 732.572265625 619 712.430664062 536 c 0
 692.075195312 452 681.16015625 403 663.518554688 320 c 0
 645.875976562 237 637.204101562 191.5 621.668945312 109 c 0
 606.026367188 26 619.963867188 21 689.326171875 18 c 1
 694.05078125 12 691.712890625 1 684.4375 -5 c 1
 634.649414062 -4 606.799804688 0 556.5 0 c 0
 505.799804688 0 474.649414062 -4 425.4375 -5 c 1
 420.712890625 1 423.05078125 12 430.326171875 18 c 1
 500.963867188 21 517.026367188 26 536.668945312 109 c 0
 556.310546875 192 567.088867188 238 584.73046875 321 c 0
 602.373046875 404 611.788085938 453 627.430664062 536 c 0
 628.372070312 540.900390625 629.149414062 545.5 629.884765625 549.900390625 c 2
 614.6015625 478 l 1
 606.5703125 475.5 600.513671875 471 594.338867188 465 c 2
 248.969726562 125 l 2
 233.860351562 109.900390625 221.916992188 101.700195312 209.766601562 77 c 1
 204.428710938 24.599609375 223.278320312 20.599609375 282.326171875 18 c 1
 287.05078125 12 284.712890625 1 277.4375 -5 c 1
 227.649414062 -4 199.799804688 0 149.5 0 c 0
 98.7998046875 0 67.6494140625 -4 18.4375 -5 c 1
 13.712890625 1 16.05078125 12 23.326171875 18 c 1
 93.9638671875 21 110.026367188 26 129.668945312 109 c 0
 149.310546875 192 160.088867188 238 177.73046875 321 c 0
 195.373046875 404 204.788085938 453 220.430664062 536 c 0
 236.072265625 619 222.135742188 624 152.7734375 627 c 1
 148.047851562 633 150.38671875 644 157.662109375 650 c 1
 207.44921875 649 235.298828125 645 285.598632812 645 c 0
 336.298828125 645 367.44921875 649 416.662109375 650 c 1
 421.38671875 644 419.047851562 633 411.7734375 627 c 1
 341.135742188 624 325.572265625 619 305.430664062 536 c 0
 285.075195312 452 274.16015625 403 256.518554688 320 c 0
 240.40625 244.200195312 231.747070312 199.700195312 218.58984375 129.799804688 c 1
 226.497070312 167 l 1
EndSplineSet
EndChar

StartChar: afii10027
Encoding: 1049 1049 78
Width: 710
VWidth: 999
Flags: HW
HStem: -35.5 7.9<7.45864 144.877 149.278 289.17 414.459 551.877 556.278 696.17> -5 23<15.1328 82.8102 214.194 281.867 422.133 489.81 621.194 688.867> 41.4 7.8<5.4415 49.1656 249.001 290.863 412.441 456.166 656.001 697.863> 596.2 7.8<6.98051 48.7468 248.85 292.402 413.98 455.747 655.85 699.402> 627 23<15.1328 82.8102 214.341 281.867 422.133 489.81 621.341 688.867> 668 8<11.3456 287.309 418.346 694.309> 673 8.1<8.67366 148.566 152.967 290.385 415.674 555.566 559.967 697.385> 697 31<305.585 396.415>
VStem: 78 8<84.4885 563.687> 109 79<33.5092 611.486> 211 8<88.047 545.097> 226 69<734.873 803.004> 407 69<736.589 803.004> 485 8<84.4885 563.687> 516 79<33.5092 611.486> 618 8<88.047 545.097>
LayerCount: 2
Fore
SplineSet
505.741210938 728 m 0
 538.741210938 728 565.354492188 745 568.967773438 762 c 0
 570.03125 767 570.306640625 773 570.731445312 775 c 0
 573.919921875 790 587.108398438 805 610.108398438 805 c 0
 637.108398438 805 644.131835938 791 640.09375 772 c 0
 629.041015625 720 565.15234375 697 499.15234375 697 c 0
 433.15234375 697 379.041015625 720 390.09375 772 c 0
 394.131835938 791 407.108398438 805 434.108398438 805 c 0
 457.108398438 805 463.919921875 790 460.731445312 775 c 0
 460.306640625 773 458.03125 767 456.967773438 762 c 0
 453.354492188 745 472.741210938 728 505.741210938 728 c 0
226.497070312 167 m 1
 231.161132812 167.299804688 237.68359375 170.700195312 246.53515625 178 c 1
 594.029296875 520 l 2
 609.360351562 535.200195312 623.369140625 555 632.682617188 572 c 1
 636.612304688 620.599609375 617.341796875 624.5 559.7734375 627 c 1
 555.047851562 633 557.38671875 644 564.662109375 650 c 1
 614.44921875 649 642.298828125 645 692.598632812 645 c 0
 743.298828125 645 774.44921875 649 823.662109375 650 c 1
 828.38671875 644 826.047851562 633 818.7734375 627 c 1
 748.135742188 624 732.572265625 619 712.430664062 536 c 0
 692.075195312 452 681.16015625 403 663.518554688 320 c 0
 645.875976562 237 637.204101562 191.5 621.668945312 109 c 0
 606.026367188 26 619.963867188 21 689.326171875 18 c 1
 694.05078125 12 691.712890625 1 684.4375 -5 c 1
 634.649414062 -4 606.799804688 0 556.5 0 c 0
 505.799804688 0 474.649414062 -4 425.4375 -5 c 1
 420.712890625 1 423.05078125 12 430.326171875 18 c 1
 500.963867188 21 517.026367188 26 536.668945312 109 c 0
 556.310546875 192 567.088867188 238 584.73046875 321 c 0
 602.373046875 404 611.788085938 453 627.430664062 536 c 0
 628.372070312 540.900390625 629.149414062 545.5 629.884765625 549.900390625 c 2
 614.6015625 478 l 1
 606.5703125 475.5 600.513671875 471 594.338867188 465 c 2
 248.969726562 125 l 2
 233.860351562 109.900390625 221.916992188 101.700195312 209.766601562 77 c 1
 204.428710938 24.599609375 223.278320312 20.599609375 282.326171875 18 c 1
 287.05078125 12 284.712890625 1 277.4375 -5 c 1
 227.649414062 -4 199.799804688 0 149.5 0 c 0
 98.7998046875 0 67.6494140625 -4 18.4375 -5 c 1
 13.712890625 1 16.05078125 12 23.326171875 18 c 1
 93.9638671875 21 110.026367188 26 129.668945312 109 c 0
 149.310546875 192 160.088867188 238 177.73046875 321 c 0
 195.373046875 404 204.788085938 453 220.430664062 536 c 0
 236.072265625 619 222.135742188 624 152.7734375 627 c 1
 148.047851562 633 150.38671875 644 157.662109375 650 c 1
 207.44921875 649 235.298828125 645 285.598632812 645 c 0
 336.298828125 645 367.44921875 649 416.662109375 650 c 1
 421.38671875 644 419.047851562 633 411.7734375 627 c 1
 341.135742188 624 325.572265625 619 305.430664062 536 c 0
 285.075195312 452 274.16015625 403 256.518554688 320 c 0
 240.40625 244.200195312 231.747070312 199.700195312 218.58984375 129.799804688 c 1
 226.497070312 167 l 1
EndSplineSet
LCarets2: 1 0 
Colour: ff00ff
EndChar

StartChar: afii10033
Encoding: 1055 1055 79
Width: 667
VWidth: 999
Flags: HW
HStem: -2 33<13.625 86.75 206.25 279.375 387.625 460.75 580.25 653.375> 605 40<199.245 467.755> 614 33<13.625 86.75 580.25 653.375>
VStem: 104 85<43.3808 598.5> 478 85<43.3808 598.5>
LayerCount: 2
Fore
SplineSet
658.098632812 645 m 2
 685.098632812 645 733.94921875 649 784.162109375 650 c 1
 788.88671875 644 786.547851562 633 779.2734375 627 c 1
 708.635742188 624 689.934570312 616 672.29296875 533 c 2
 582.806640625 112 l 2
 565.1640625 29 580.463867188 21 649.826171875 18 c 1
 654.55078125 12 652.212890625 1 644.9375 -5 c 1
 596.149414062 -4 569.200195312 0 520 0 c 0
 471.200195312 0 444.149414062 -4 393.9375 -5 c 1
 389.212890625 1 391.55078125 12 398.826171875 18 c 1
 469.463867188 21 488.1640625 29 505.806640625 112 c 2
 596.993164062 541 l 2
 610.171875 603 590.72265625 615 566.72265625 615 c 2
 361.72265625 615 l 2
 337.72265625 615 313.171875 603 299.993164062 541 c 2
 208.806640625 112 l 2
 191.1640625 29 206.463867188 21 275.826171875 18 c 1
 280.55078125 12 278.212890625 1 270.9375 -5 c 1
 221.149414062 -4 195.799804688 0 147 0 c 0
 97.7998046875 0 69.1494140625 -4 19.9375 -5 c 1
 15.212890625 1 17.55078125 12 24.826171875 18 c 1
 95.4638671875 21 114.1640625 29 131.806640625 112 c 2
 221.29296875 533 l 2
 238.934570312 616 223.635742188 624 154.2734375 627 c 1
 149.547851562 633 151.88671875 644 159.162109375 650 c 1
 208.94921875 649 260.098632812 645 283.098632812 645 c 2
 658.098632812 645 l 2
EndSplineSet
Colour: ff00ff
EndChar

StartChar: afii10034
Encoding: 1056 1056 80
Width: 529
VWidth: 999
Flags: HW
HStem: -2 33<-225.409 -152.284 -28.284 55.341> 282 34<-49.249 108.506> 618 34<-223.33 -156.175 -59.729 115.041>
VStem: -135 85<47.6546 292 318.199 600.635> 175 93<395.93 561.649>
LayerCount: 2
Fore
SplineSet
249.916992188 296 m 1
 234.612304688 224 222.008789062 160 207.067382812 85 c 0
 195.739257812 27 227.67578125 22 295.826171875 18 c 1
 300.55078125 12 298.212890625 1 290.9375 -5 c 1
 241.149414062 -4 206 0 150 0 c 0
 99 0 68.1494140625 -4 18.9375 -5 c 1
 14.212890625 1 16.55078125 12 23.826171875 18 c 1
 94.4638671875 21 109.313476562 25 129.168945312 109 c 0
 148.810546875 192 158.588867188 238 176.23046875 321 c 0
 193.873046875 404 203.288085938 453 219.930664062 536 c 0
 236.572265625 619 222.635742188 624 153.2734375 627 c 1
 148.547851562 633 150.88671875 644 158.162109375 650 c 1
 207.94921875 649 235.098632812 645 285.098632812 645 c 0
 325.098632812 645 397.224609375 655 423.224609375 655 c 0
 608.224609375 655 621.84375 545 609.302734375 486 c 0
 591.235351562 401 515.00390625 287 333.00390625 287 c 0
 299.00390625 287 270.428710938 289 249.916992188 296 c 1
312.920898438 583 m 0
 294.278320312 500 272.873046875 404 255.23046875 321 c 2
 254.16796875 316 l 1
 266.530273438 313 308.10546875 311 332.10546875 311 c 0
 429.10546875 311 494.520507812 360 517.4765625 468 c 0
 544.470703125 595 481.123046875 631 412.123046875 631 c 0
 340.123046875 631 320.084960938 612 312.920898438 583 c 0
EndSplineSet
Colour: ff00ff
EndChar

StartChar: afii10035
Encoding: 1057 1057 81
Width: 648
VWidth: 999
Flags: HW
HStem: -10 41<268.215 458.261> 621 37<270.584 441.041>
VStem: 33 91<201.241 442.946> 562 33<454.756 496.422>
LayerCount: 2
Fore
SplineSet
356.874023438 -10 m 0
 141.874023438 -10 69.7333984375 154 103.955078125 315 c 0
 126.125 419.299804688 185.471679688 512.200195312 264.794921875 573 c 0
 335.2734375 627 414.862304688 658 499.862304688 658 c 0
 622.862304688 658 659.360351562 618 709.296875 613 c 1
 706.606445312 558 704.404296875 510 698.350585938 458 c 1
 690.130859375 453.200195312 683.318359375 452.200195312 674.288085938 453 c 1
 666.568359375 539 627.123046875 631 489.123046875 631 c 0
 437.123046875 631 361.346679688 601 298.780273438 540 c 0
 252.736328125 495.099609375 214.337890625 420.299804688 195.994140625 334 c 0
 164.9609375 188 207.463867188 21 362.463867188 21 c 0
 455.463867188 21 532.178710938 62 619.7578125 140 c 1
 630.7578125 140 636.482421875 134 639.569335938 125 c 1
 552.65234375 36 453.874023438 -10 356.874023438 -10 c 0
EndSplineSet
Colour: ff00ff
EndChar

StartChar: afii10036
Encoding: 1058 1058 82
Width: 597
VWidth: 999
Flags: HW
HStem: -2 33<164.625 246.5 368.5 450.375> 606 39<98.3488 251.688 363.118 494.389>
VStem: 3 34<502.785 541.578> 265 85<44.3649 597.249> 557 34<505.143 543.266>
LayerCount: 2
Fore
SplineSet
379.930664062 536 m 0
 391.196289062 597 385.934570312 616 348.934570312 616 c 2
 289.934570312 616 l 2
 223.934570312 616 170.283203125 580 133.278320312 500 c 1
 121.278320312 500 119.491210938 501 110.340820312 505 c 1
 131.543945312 553 153.234375 608 166.799804688 653 c 0
 167.01171875 654 169.4375 656 171.4375 656 c 0
 208.799804688 653 325.098632812 645 402.098632812 645 c 2
 488.098632812 645 l 2
 567.098632812 645 679.799804688 653 714.4375 656 c 0
 715.4375 656 717.01171875 654 716.799804688 653 c 0
 708.234375 608 701.755859375 554 698.978515625 508 c 1
 689.12890625 504 684.916015625 503 673.916015625 503 c 1
 673.283203125 580 633.934570312 616 558.934570312 616 c 2
 526.934570312 616 l 2
 490.934570312 616 478.534179688 600 462.930664062 536 c 0
 442.2265625 451.299804688 432.66015625 403 415.018554688 320 c 0
 397.375976562 237 387.704101562 191.5 372.168945312 109 c 0
 356.526367188 26 381.463867188 21 450.826171875 18 c 1
 455.55078125 12 453.212890625 1 445.9375 -5 c 1
 396.149414062 -4 362.200195312 0 308 0 c 0
 253.400390625 0 216.149414062 -4 166.9375 -5 c 1
 162.212890625 1 164.55078125 12 171.826171875 18 c 1
 242.463867188 21 269.526367188 26 289.168945312 109 c 0
 308.810546875 192 318.588867188 238 336.23046875 321 c 0
 353.873046875 404 364.737304688 453.700195312 379.930664062 536 c 0
EndSplineSet
Colour: ff00ff
EndChar

StartChar: afii10037
Encoding: 1059 1059 83
Width: 580
VWidth: 999
Flags: HW
HStem: -22 62<133 229.447> 614 33<1.46875 58.6416 176.509 232.375 383.625 442.046 535.176 587.375>
LayerCount: 2
Fore
SplineSet
215.666992188 523 m 2
 198.258789062 594 191.447265625 609 135.509765625 614 c 1
 130.78515625 620 134.249023438 641 141.524414062 647 c 1
 188.311523438 646 205.098632812 645 245.098632812 645 c 0
 284.098632812 645 319.311523438 646 366.524414062 647 c 1
 371.249023438 641 366.78515625 620 359.509765625 614 c 1
 290.021484375 607 287.62109375 591 301.905273438 534 c 2
 375.67578125 229 l 1
 377.67578125 229 l 1
 550.229492188 528 l 2
 582.1328125 584 590.447265625 609 517.509765625 614 c 1
 512.78515625 620 517.249023438 641 524.524414062 647 c 1
 571.311523438 646 610.098632812 645 633.098632812 645 c 0
 656.098632812 645 681.311523438 646 721.524414062 647 c 1
 726.249023438 641 721.78515625 620 714.509765625 614 c 1
 646.809570312 606 622.944335938 569 594.442382812 521 c 2
 376.221679688 161 l 2
 310.052734375 52 239.32421875 -22 149.32421875 -22 c 0
 107.32421875 -22 64.212890625 1 71.0146484375 33 c 0
 76.9658203125 61 100.216796875 81 130.216796875 81 c 0
 144.216796875 81 164.729492188 74 172.178710938 62 c 0
 177.265625 53 189.501953125 40 203.501953125 40 c 0
 235.501953125 40 264.965820312 61 311.907226562 136 c 1
 215.666992188 523 l 2
EndSplineSet
EndChar

StartChar: afii10039
Encoding: 1061 1061 84
Width: 677
VWidth: 999
Flags: HW
HStem: -2 29<-157.242 -97.2241 16.7578 38.7578 258.758 281.758 439.54 488.758> 618 29<-144.242 -96.5547 271.758 306.758 403.989 467.758>
DStem2: -32.2422 104 1.75781 77 0.593199 0.805056<-37.1488 242.53 346.726 618.122> 39.7578 572 100.758 344 0.578967 -0.815351<-37.4198 228.231 307.823 589.683>
LayerCount: 2
Fore
SplineSet
573.180664062 102 m 2
 603.188476562 43.7001953125 626.963867188 21 668.326171875 18 c 1
 673.05078125 12 671.712890625 1 664.4375 -5 c 1
 634.649414062 -4 602.5 0 563.5 0 c 0
 523.5 0 482.649414062 -4 442.4375 -5 c 1
 437.712890625 1 440.05078125 12 447.326171875 18 c 1
 503.963867188 21 497.84375 44.900390625 478.109375 85.2001953125 c 2
 391.977539062 261 l 2
 386.887695312 271.400390625 384.377929688 277 380.377929688 277 c 0
 377.377929688 277 370.049804688 268.400390625 360.33984375 258 c 2
 189.016601562 73 l 2
 157.58984375 39 167.6640625 21 211.326171875 18 c 1
 216.05078125 12 213.712890625 1 206.4375 -5 c 1
 166.649414062 -4 125.5 0 102.5 0 c 0
 79.5 0 41.6494140625 -4 11.4375 -5 c 1
 6.712890625 1 9.05078125 12 16.326171875 18 c 1
 61.9404296875 22.2998046875 114.2109375 47.099609375 158.267578125 93 c 2
 348.353515625 291 l 2
 357.087890625 300.099609375 359.967773438 308 361.243164062 314 c 0
 363.368164062 324 362.200195312 326.5 353.619140625 344 c 2
 254.46875 547 l 2
 225.745117188 605.700195312 198.135742188 624 156.7734375 627 c 1
 152.047851562 633 153.38671875 644 160.662109375 650 c 1
 190.44921875 649 222.598632812 645 261.598632812 645 c 0
 301.598632812 645 342.44921875 649 382.662109375 650 c 1
 387.38671875 644 385.047851562 633 377.7734375 627 c 1
 321.135742188 624 327.291015625 599.799804688 346.989257812 559.799804688 c 1
 422.672851562 396 l 2
 427.927734375 384.5 432.696289062 382 435.696289062 382 c 0
 439.696289062 382 440.494140625 383.400390625 452.884765625 397 c 2
 613.08203125 572 l 2
 643.681640625 605.400390625 634.435546875 624 590.7734375 627 c 1
 586.047851562 633 588.38671875 644 595.662109375 650 c 1
 635.44921875 649 676.598632812 645 699.598632812 645 c 0
 722.598632812 645 760.44921875 649 790.662109375 650 c 1
 795.38671875 644 793.047851562 633 785.7734375 627 c 1
 740.159179688 622.700195312 688.075195312 596.900390625 643.831054688 552 c 2
 469.208984375 375 l 2
 454.541992188 360.099609375 453.958007812 355 452.044921875 346 c 0
 450.408203125 338.299804688 457.866210938 325.400390625 464.817382812 312 c 2
 573.180664062 102 l 2
EndSplineSet
Colour: ff00ff
EndChar

StartChar: afii10040
Encoding: 1062 1062 85
Width: 674
VWidth: 487
Flags: HW
HStem: -2 33<10.625 83.75> 0 39<194.443 469.051> 614 33<10.625 83.75 203.25 276.375 382.625 455.75 575.25 648.375>
VStem: 101 85<45.451 601.619> 473 85<39.9611 601.619> 609 33<-144.75 -92.9922>
LayerCount: 2
Fore
SplineSet
669.166992188 523 m 2
 583.931640625 122 l 2
 566.290039062 39 589.2265625 34 612.588867188 31 c 0
 636.73046875 27.900390625 639.250976562 20 638.337890625 11 c 0
 632.135742188 -37 622.870117188 -90 612.029296875 -141 c 1
 601.520507812 -148.099609375 586.329101562 -149 578.817382812 -142 c 1
 579.908203125 -71 547 0 470 0 c 2
 144 0 l 2
 124 0 62.787109375 -1 13.5751953125 -2 c 1
 8.8505859375 4 13.3134765625 25 20.5888671875 31 c 1
 91.2265625 34 109.290039062 39 126.931640625 122 c 2
 212.166992188 523 l 2
 229.809570312 606 213.872070312 611 144.509765625 614 c 1
 139.78515625 620 144.249023438 641 151.524414062 647 c 1
 201.311523438 646 230.098632812 645 280.098632812 645 c 0
 331.098632812 645 361.311523438 646 410.524414062 647 c 1
 415.249023438 641 410.78515625 620 403.509765625 614 c 1
 332.872070312 611 314.809570312 606 297.166992188 523 c 2
 204.91796875 89 l 2
 198.328125 58 212.290039062 39 241.290039062 39 c 2
 444.290039062 39 l 2
 476.225585938 38.7001953125 482.352539062 44 498.931640625 122 c 2
 584.166992188 523 l 2
 601.809570312 606 585.872070312 611 516.509765625 614 c 1
 511.78515625 620 516.249023438 641 523.524414062 647 c 1
 573.311523438 646 602.098632812 645 652.098632812 645 c 0
 703.098632812 645 733.311523438 646 782.524414062 647 c 1
 787.249023438 641 782.78515625 620 775.509765625 614 c 1
 704.872070312 611 686.809570312 606 669.166992188 523 c 2
EndSplineSet
EndChar

StartChar: afii10041
Encoding: 1063 1063 86
Width: 650
VWidth: 999
Flags: HW
HStem: -2 33<362.625 435.75 555.25 628.375> 250 58<220.92 371.066> 614 33<11.625 84.75 204.25 277.375 362.625 435.75 555.25 628.375>
VStem: 102 85<340.483 601.619> 453 85<43.3808 314.922 340.809 601.619>
LayerCount: 2
Fore
SplineSet
213.166992188 523 m 2
 230.809570312 606 214.872070312 611 145.509765625 614 c 1
 140.78515625 620 145.249023438 641 152.524414062 647 c 1
 202.311523438 646 231.098632812 645 281.098632812 645 c 0
 332.098632812 645 362.311523438 646 411.524414062 647 c 1
 416.249023438 641 411.78515625 620 404.509765625 614 c 1
 333.872070312 611 315.809570312 606 298.166992188 523 c 2
 275.635742188 417 l 2
 258.206054688 335 292.467773438 308 364.467773438 308 c 0
 392.967773438 308 456.296875 311.900390625 528.032226562 353 c 1
 564.166992188 523 l 2
 581.809570312 606 565.872070312 611 496.509765625 614 c 1
 491.78515625 620 496.249023438 641 503.524414062 647 c 1
 553.311523438 646 582.098632812 645 632.098632812 645 c 0
 683.098632812 645 713.311523438 646 762.524414062 647 c 1
 767.249023438 641 762.78515625 620 755.509765625 614 c 1
 684.872070312 611 666.809570312 606 649.166992188 523 c 2
 563.931640625 122 l 2
 546.290039062 39 562.2265625 34 631.588867188 31 c 1
 636.313476562 25 631.850585938 4 624.575195312 -2 c 1
 574.787109375 -1 546 0 496 0 c 0
 445 0 414.787109375 -1 365.575195312 -2 c 1
 360.850585938 4 365.313476562 25 372.588867188 31 c 1
 443.2265625 34 461.290039062 39 478.931640625 122 c 2
 519.93359375 314.900390625 l 1
 437.534179688 265.5 367.338867188 250 310.138671875 250 c 0
 196.138671875 250 171.930664062 329 192.974609375 428 c 2
 213.166992188 523 l 2
EndSplineSet
EndChar

StartChar: afii10042
Encoding: 1064 1064 87
Width: 969
VWidth: 487
Flags: HW
HStem: 0 37<18.1958 95.1693 200.678 431.849 534.377 768.806 873.831 950.804> 614 33<15.625 88.75 208.25 281.375 349.625 422.75 542.25 615.375 687.625 760.75 880.25 953.375>
VStem: 106 85<43.3808 601.619> 440 85<41.6898 601.619> 778 85<43.3808 601.619>
LayerCount: 2
Fore
SplineSet
820 0 m 2
 149 0 l 1
 149 0 67.787109375 -1 18.5751953125 -2 c 1
 13.8505859375 4 18.3134765625 25 25.5888671875 31 c 1
 96.2265625 34 114.290039062 39 131.931640625 122 c 2
 217.166992188 523 l 2
 234.809570312 606 218.872070312 611 149.509765625 614 c 1
 144.78515625 620 149.249023438 641 156.524414062 647 c 1
 206.311523438 646 235.098632812 645 285.098632812 645 c 0
 336.098632812 645 366.311523438 646 415.524414062 647 c 1
 420.249023438 641 415.78515625 620 408.509765625 614 c 1
 337.872070312 611 319.809570312 606 302.166992188 523 c 2
 216.931640625 122 l 2
 199.501953125 40 215.864257812 37 257.864257812 37 c 2
 396.864257812 37 l 2
 433.864257812 37 448.501953125 40 465.931640625 122 c 2
 551.166992188 523 l 2
 568.809570312 606 552.872070312 611 483.509765625 614 c 1
 478.78515625 620 483.249023438 641 490.524414062 647 c 1
 540.311523438 646 569.098632812 645 619.098632812 645 c 0
 670.098632812 645 700.311523438 646 749.524414062 647 c 1
 754.249023438 641 749.78515625 620 742.509765625 614 c 1
 671.872070312 611 653.809570312 606 636.166992188 523 c 2
 550.931640625 122 l 2
 533.501953125 40 549.864257812 37 587.864257812 37 c 2
 716.864257812 37 l 2
 772.864257812 37 786.501953125 40 803.931640625 122 c 2
 889.166992188 523 l 2
 906.809570312 606 890.872070312 611 821.509765625 614 c 1
 816.78515625 620 821.249023438 641 828.524414062 647 c 1
 877.311523438 646 907.098632812 645 958.098632812 645 c 0
 1008.09863281 645 1037.31152344 646 1087.52441406 647 c 1
 1092.24902344 641 1087.78515625 620 1080.50976562 614 c 1
 1009.87207031 611 991.809570312 606 974.166992188 523 c 2
 888.931640625 122 l 2
 871.290039062 39 887.2265625 34 956.588867188 31 c 1
 961.313476562 25 956.850585938 4 949.575195312 -2 c 1
 900.787109375 -1 868 0 820 0 c 2
EndSplineSet
EndChar

StartChar: afii10043
Encoding: 1065 1065 88
Width: 979
VWidth: 487
Flags: HW
HStem: 0 37<18.1958 95.1693 200.678 431.849 534.377 768.806> 614 33<15.625 88.75 208.25 281.375 349.625 422.75 542.25 615.375 687.625 760.75 880.25 953.375>
VStem: 106 85<43.3808 601.619> 440 85<41.6898 601.619> 778 85<43.3808 601.619> 914 33<-144.75 -92.9922>
LayerCount: 2
Fore
SplineSet
775 0 m 2
 149 0 l 1
 149 0 67.787109375 -1 18.5751953125 -2 c 1
 13.8505859375 4 18.3134765625 25 25.5888671875 31 c 1
 96.2265625 34 114.290039062 39 131.931640625 122 c 2
 217.166992188 523 l 2
 234.809570312 606 218.872070312 611 149.509765625 614 c 1
 144.78515625 620 149.249023438 641 156.524414062 647 c 1
 206.311523438 646 235.098632812 645 285.098632812 645 c 0
 336.098632812 645 366.311523438 646 415.524414062 647 c 1
 420.249023438 641 415.78515625 620 408.509765625 614 c 1
 337.872070312 611 319.809570312 606 302.166992188 523 c 2
 216.931640625 122 l 2
 199.501953125 40 215.864257812 37 257.864257812 37 c 2
 396.864257812 37 l 2
 433.864257812 37 448.501953125 40 465.931640625 122 c 2
 551.166992188 523 l 2
 568.809570312 606 552.872070312 611 483.509765625 614 c 1
 478.78515625 620 483.249023438 641 490.524414062 647 c 1
 540.311523438 646 569.098632812 645 619.098632812 645 c 0
 670.098632812 645 700.311523438 646 749.524414062 647 c 1
 754.249023438 641 749.78515625 620 742.509765625 614 c 1
 671.872070312 611 653.809570312 606 636.166992188 523 c 2
 550.931640625 122 l 2
 533.501953125 40 549.864257812 37 587.864257812 37 c 2
 716.864257812 37 l 2
 772.864257812 37 786.501953125 40 803.931640625 122 c 2
 889.166992188 523 l 2
 906.809570312 606 890.872070312 611 821.509765625 614 c 1
 816.78515625 620 821.249023438 641 828.524414062 647 c 1
 877.311523438 646 907.098632812 645 958.098632812 645 c 0
 1008.09863281 645 1037.31152344 646 1087.52441406 647 c 1
 1092.24902344 641 1087.78515625 620 1080.50976562 614 c 1
 1009.87207031 611 991.809570312 606 974.166992188 523 c 2
 888.931640625 122 l 2
 871.290039062 39 894.2265625 34 917.588867188 31 c 0
 941.73046875 27.900390625 944.250976562 20 943.337890625 11 c 0
 937.135742188 -37 927.870117188 -90 917.029296875 -141 c 1
 906.520507812 -148.099609375 891.329101562 -149 883.817382812 -142 c 1
 884.908203125 -71 852 0 775 0 c 2
EndSplineSet
EndChar

StartChar: afii10044
Encoding: 1066 1066 89
Width: 723
VWidth: 999
Flags: HW
HStem: -2 33<174.625 247.75 371.537 520.434> 333 40<350 518.724> 605 40<115.773 256.866> 614 33<367.25 440.375>
VStem: 26 30<470.147 516.776> 265 85<46.5258 333 373 599.457> 594 93<87.5271 266.225>
LayerCount: 2
Fore
SplineSet
439.588867188 31 m 0
 591.588867188 31 619.719726562 121 632.897460938 183 c 0
 645.651367188 243 636.78125 333 507.78125 333 c 2
 420.78125 333 l 1
 370.830078125 98 l 2
 363.81640625 65 369.588867188 31 439.588867188 31 c 0
453.575195312 -2 m 0
 364.575195312 -2 351 0 308 0 c 0
 257 0 226.787109375 -1 177.575195312 -2 c 1
 172.850585938 4 177.313476562 25 184.588867188 31 c 1
 255.2265625 34 273.290039062 39 290.931640625 122 c 2
 376.166992188 523 l 2
 392.108398438 598 381.596679688 605 334.596679688 605 c 2
 292.596679688 605 l 2
 226.596679688 605 172.829101562 512 155.689453125 469 c 1
 141.051757812 466 133.283203125 468.5 126.751953125 474 c 1
 142.655273438 530 159.708007812 582 179.098632812 645 c 1
 266.098632812 645 444.098632812 645 444.098632812 645 c 2
 494.098632812 645 525.311523438 646 574.524414062 647 c 1
 579.249023438 641 574.78515625 620 567.509765625 614 c 1
 496.872070312 611 478.809570312 606 461.166992188 523 c 2
 429.283203125 373 l 1
 489.283203125 373 l 2
 735.283203125 373 744.815429688 272 725.897460938 183 c 0
 690.401367188 16 574.575195312 -2 453.575195312 -2 c 0
EndSplineSet
EndChar

StartChar: afii10045
Encoding: 1067 1067 90
Width: 796
VWidth: 999
Flags: HW
HStem: -4 23<517.633 585.311 716.694 784.367> -2 33<13.625 86.75 203.821 338.719> 333 40<189 350.404> 614 33<13.625 86.75 206.25 279.375> 628 23<517.633 585.311 716.842 784.367>
VStem: 104 85<43.498 333 373 601.619> 429 93<101.953 262.707> 611.5 79<34.5092 612.486>
LayerCount: 2
Fore
SplineSet
716.880859375 110 m 0
 701.239257812 27 715.17578125 22 784.5390625 19 c 1
 789.263671875 13 786.924804688 2 779.649414062 -4 c 1
 729.862304688 -3 702.012695312 1 651.712890625 1 c 0
 601.012695312 1 569.862304688 -3 520.649414062 -4 c 1
 515.924804688 2 518.263671875 13 525.5390625 19 c 1
 596.17578125 22 612.239257812 27 631.880859375 110 c 0
 651.5234375 193 662.30078125 239 679.943359375 322 c 0
 697.584960938 405 707.000976562 454 722.642578125 537 c 0
 738.28515625 620 724.34765625 625 654.985351562 628 c 1
 650.260742188 634 652.598632812 645 659.874023438 651 c 1
 709.662109375 650 737.51171875 646 787.811523438 646 c 0
 838.51171875 646 869.662109375 650 918.874023438 651 c 1
 923.598632812 645 921.260742188 634 913.985351562 628 c 1
 843.34765625 625 827.78515625 620 807.642578125 537 c 0
 787.288085938 453 776.373046875 404 758.73046875 321 c 0
 741.088867188 238 732.416992188 192.5 716.880859375 110 c 0
252.588867188 31 m 0
 404.588867188 31 454.719726562 121 467.897460938 183 c 0
 480.651367188 243 462.78125 333 334.78125 333 c 2
 259.78125 333 l 1
 209.830078125 98 l 2
 202.81640625 65 204.588867188 31 252.588867188 31 c 0
129.931640625 122 m 2
 215.166992188 523 l 2
 232.809570312 606 216.872070312 611 147.509765625 614 c 1
 142.78515625 620 147.249023438 641 154.524414062 647 c 1
 204.311523438 646 233.098632812 645 283.098632812 645 c 0
 334.098632812 645 364.311523438 646 413.524414062 647 c 1
 418.249023438 641 413.78515625 620 406.509765625 614 c 1
 335.872070312 611 317.809570312 606 300.166992188 523 c 2
 268.283203125 373 l 1
 356.283203125 373 l 2
 575.283203125 373 579.815429688 272 560.897460938 183 c 0
 532.606445312 49.900390625 435.075195312 -2 243.575195312 -2 c 0
 207.575195312 -2 176 0 147 0 c 0
 96 0 65.787109375 -1 16.5751953125 -2 c 1
 11.8505859375 4 16.3134765625 25 23.5888671875 31 c 1
 94.2265625 34 112.290039062 39 129.931640625 122 c 2
EndSplineSet
Colour: ff00ff
EndChar

StartChar: afii10046
Encoding: 1068 1068 91
Width: 558
VWidth: 999
Flags: HW
HStem: -2 33<13.625 86.75 203.821 338.719> 333 40<189 350.404> 614 33<13.625 86.75 206.25 279.375>
VStem: 104 85<43.498 333 373 601.619> 429 93<101.953 262.707>
LayerCount: 2
Fore
SplineSet
252.588867188 31 m 0
 404.588867188 31 454.719726562 121 467.897460938 183 c 0
 480.651367188 243 462.78125 333 334.78125 333 c 2
 259.78125 333 l 1
 209.830078125 98 l 2
 202.81640625 65 204.588867188 31 252.588867188 31 c 0
129.931640625 122 m 2
 215.166992188 523 l 2
 232.809570312 606 216.872070312 611 147.509765625 614 c 1
 142.78515625 620 147.249023438 641 154.524414062 647 c 1
 204.311523438 646 233.098632812 645 283.098632812 645 c 0
 334.098632812 645 364.311523438 646 413.524414062 647 c 1
 418.249023438 641 413.78515625 620 406.509765625 614 c 1
 335.872070312 611 317.809570312 606 300.166992188 523 c 2
 268.283203125 373 l 1
 356.283203125 373 l 2
 575.283203125 373 579.815429688 272 560.897460938 183 c 0
 532.606445312 49.900390625 435.075195312 -2 243.575195312 -2 c 0
 207.575195312 -2 176 0 147 0 c 0
 96 0 65.787109375 -1 16.5751953125 -2 c 1
 11.8505859375 4 16.3134765625 25 23.5888671875 31 c 1
 94.2265625 34 112.290039062 39 129.931640625 122 c 2
EndSplineSet
EndChar

StartChar: afii10047
Encoding: 1069 1069 92
Width: 622
Flags: HMW
HStem: -10 35<188.603 354.115> 291 50<151.594 280.008> 323 56<306.833 443.595> 621 37<205.922 372.452>
VStem: 46 91<72.2243 143.539> 53 30<457.067 493.656> 498 87<334 461.696>
LayerCount: 2
Fore
SplineSet
268.874023438 -10 m 0
 171.874023438 -10 56.6279296875 50 72.357421875 124 c 0
 76.6083984375 144 89.646484375 163 114.646484375 163 c 0
 143.646484375 163 152.907226562 136 158.04296875 99 c 0
 163.541015625 59 196.313476562 25 272.313476562 25 c 0
 420.313476562 25 517.395507812 143 560.979492188 301 c 1
 531.16796875 316 503.65625 323 465.65625 323 c 0
 407.65625 323 371.853515625 291 304.853515625 291 c 0
 245.853515625 291 189.018554688 320 194.33203125 345 c 0
 196.032226562 353 201.8828125 357 205.8828125 357 c 0
 213.8828125 357 226.481445312 341 264.481445312 341 c 0
 323.481445312 341 374.55859375 379 437.55859375 379 c 0
 450.55859375 379 514.0078125 367 567.78125 333 c 1
 568.994140625 334 l 1
 614.268554688 547 514.998046875 621 435.998046875 621 c 0
 297.998046875 621 223.780273438 540 179.500976562 454 c 1
 150.350585938 458 l 1
 171.404296875 510 189.819335938 559 205.296875 613 c 1
 262.934570312 616 311.862304688 658 438.862304688 658 c 0
 604.862304688 658 698.504882812 534 654.081054688 325 c 0
 614.7578125 140 483.874023438 -10 268.874023438 -10 c 0
EndSplineSet
EndChar

StartChar: afii10048
Encoding: 1070 1070 93
Width: 905
VWidth: 999
Flags: HW
HStem: -35.5 7.9<7.45864 144.877 149.278 289.17> -10 38<517.016 661.795> -5 23<15.1328 82.8102 214.194 281.867> 41.4 7.8<5.4415 49.1656 249.001 290.863> 305 39<187 285> 596.2 7.8<6.98051 48.7468 248.85 292.402> 619 39<495.06 647.995> 627 23<15.1328 82.8102 214.341 281.867> 668 8<11.3456 287.309> 673 8.1<8.67366 148.566 152.967 290.385>
VStem: 78 8<84.4885 563.687> 109 79<33.5092 611.486> 211 8<88.047 545.097> 285 93<192.404 305 344 446.869> 773 93<191.039 458.298>
LayerCount: 2
Fore
SplineSet
693.572265625 619 m 0
 609.572265625 619 492.142578125 537 447.505859375 327 c 0
 406.6953125 135 489.951171875 28 597.951171875 28 c 0
 700.951171875 28 800.844726562 131 838.892578125 310 c 0
 883.104492188 518 818.572265625 619 693.572265625 619 c 0
214.668945312 109 m 0
 199.026367188 26 212.963867188 21 282.326171875 18 c 1
 287.05078125 12 284.712890625 1 277.4375 -5 c 1
 227.649414062 -4 199.799804688 0 149.5 0 c 0
 98.7998046875 0 67.6494140625 -4 18.4375 -5 c 1
 13.712890625 1 16.05078125 12 23.326171875 18 c 1
 93.9638671875 21 110.026367188 26 129.668945312 109 c 0
 149.310546875 192 160.088867188 238 177.73046875 321 c 0
 195.373046875 404 204.788085938 453 220.430664062 536 c 0
 236.072265625 619 222.135742188 624 152.7734375 627 c 1
 148.047851562 633 150.38671875 644 157.662109375 650 c 1
 207.44921875 649 235.298828125 645 285.598632812 645 c 0
 336.298828125 645 367.44921875 649 416.662109375 650 c 1
 421.38671875 644 419.047851562 633 411.7734375 627 c 1
 341.135742188 624 325.572265625 619 305.430664062 536 c 0
 287.161132812 460.400390625 276.428710938 413.200195312 261.619140625 344 c 1
 359.119140625 344 l 1
 410.166992188 523 556.862304688 658 712.862304688 658 c 0
 880.862304688 658 978.017578125 527 935.930664062 329 c 0
 893.419921875 129 749.874023438 -10 571.874023438 -10 c 0
 413.874023438 -10 310.59375 111 349.830078125 305 c 1
 253.330078125 305 l 1
 237.743164062 231.200195312 229.220703125 186.400390625 214.668945312 109 c 0
EndSplineSet
EndChar

StartChar: afii10049
Encoding: 1071 1071 94
Width: 580
Flags: HW
HStem: -2 29<7 22 305 337 527 560> 329 33<233.803 237 311.619 392> 611 35<218.954 390.324> 618 28<526 563>
VStem: 88 81<416.839 570.598> 392 81<35.8445 324 362 607.704>
LayerCount: 2
Fore
SplineSet
275.703125 502 m 0
 253.172851562 396 307.9453125 362 390.9453125 362 c 2
 468.9453125 362 l 1
 514.219726562 575 l 2
 521.234375 608 517.872070312 611 430.872070312 611 c 0
 374.872070312 611 295.470703125 595 275.703125 502 c 0
6 0 m 1
 10.0390625 19 l 2
 11.1015625 24 14.7392578125 27 18.7392578125 27 c 2
 27.951171875 28 l 2
 60.8017578125 32 121.96484375 86.400390625 201.762695312 220 c 0
 240.579101562 285 275.892578125 310 306.29296875 326 c 1
 306.930664062 329 l 1
 241.056640625 339 170.684570312 389 192.365234375 491 c 0
 207.03125 560 259.311523438 646 445.311523438 646 c 0
 480.311523438 646 539.098632812 645 572.098632812 645 c 0
 603.098632812 645 700.311523438 646 700.311523438 646 c 1
 695.84765625 625 l 2
 694.998046875 621 692.360351562 618 687.360351562 618 c 2
 656.934570312 616 l 2
 614.296875 613 601.809570312 606 594.58203125 572 c 2
 488.516601562 73 l 2
 482.139648438 43 492.801757812 32 533.1640625 29 c 2
 559.739257812 27 l 2
 563.739257812 27 567.1015625 24 566.0390625 19 c 2
 562 0 l 1
 559.575195312 -2 l 1
 559.575195312 -2 473 0 434 0 c 0
 398 0 304.575195312 -2 304.575195312 -2 c 1
 303 0 l 1
 307.0390625 19 l 2
 308.1015625 24 311.739257812 27 316.739257812 27 c 2
 343.1640625 29 l 2
 385.801757812 32 401.565429688 45 407.516601562 73 c 2
 460.868164062 324 l 1
 354.868164062 324 328.704101562 295 264.172851562 189 c 0
 198.110351562 80.5 144 0 72.787109375 -1 c 2
 6.5751953125 -2 l 1
 6 0 l 1
EndSplineSet
EndChar

StartChar: afii10089
Encoding: 1095 1095 95
Width: 510
VWidth: 999
Flags: HW
HStem: -2 29<274 294 450 470> 146 35<165.488 293.187> 402 29<18 30 186 206 275 294 415.352 480>
VStem: 71 75<194.637 397.49> 335 75<32.4718 189 207.909 398.291>
LayerCount: 2
Fore
SplineSet
410.032226562 353 m 2
 418.322265625 392 413.545898438 398.700195312 379.235351562 401 c 2
 364.447265625 402 l 2
 360.51171875 402.299804688 358.66015625 403 359.510742188 407 c 2
 364.186523438 429 l 1
 366.612304688 431 l 1
 366.612304688 431 422.88671875 429 459.186523438 429 c 0
 502.88671875 429 571.612304688 431 571.612304688 431 c 1
 572.186523438 429 l 1
 567.510742188 407 l 2
 566.873046875 404 564.46875 402.099609375 561.447265625 402 c 2
 535.235351562 401 l 2
 504.080078125 399.799804688 493.747070312 394 485.032226562 353 c 2
 426.579101562 78 l 2
 418.501953125 40 420.478515625 33.2998046875 456.1640625 29 c 2
 472.739257812 27 l 2
 475.654296875 26.599609375 477.313476562 25 476.67578125 22 c 2
 472 0 l 1
 469.575195312 -2 l 1
 469.575195312 -2 411 0 374 0 c 0
 333 0 273.575195312 -2 273.575195312 -2 c 1
 272 0 l 1
 276.463867188 21 l 2
 277.313476562 25 279.6328125 26.5 283.739257812 27 c 2
 300.1640625 29 l 2
 337.3203125 33.5 343.290039062 39 351.579101562 78 c 2
 375.172851562 189 l 1
 330.008789062 160 295.033203125 146 235.033203125 146 c 0
 137.033203125 146 111.598632812 191 134.12890625 297 c 2
 146.245117188 354 l 2
 154.322265625 392 148.62109375 396.700195312 115.235351562 401 c 2
 107.447265625 402 l 2
 104.533203125 402.400390625 102.66015625 403 103.510742188 407 c 2
 108.186523438 429 l 1
 109.612304688 431 l 1
 109.612304688 431 162.88671875 429 197.186523438 429 c 0
 236.186523438 429 297.612304688 431 297.612304688 431 c 1
 298.186523438 429 l 1
 293.72265625 408 l 2
 292.873046875 404 290.51171875 402.299804688 286.447265625 402 c 2
 271.235351562 401 l 2
 237.967773438 398.799804688 229.109375 391 222.307617188 359 c 2
 208.279296875 293 l 2
 191.69921875 215 191.47265625 181 253.47265625 181 c 0
 302.47265625 181 344.0234375 193 382.825195312 225 c 1
 410.032226562 353 l 2
EndSplineSet
EndChar

StartChar: afii10090
Encoding: 1096 1096 96
Width: 818
VWidth: 999
Flags: HW
HStem: -2 29<33 63 750 784> 0 34<182.117 365.221 449.273 630.268> 402 29<33 63 219 242 305 329 484 513 565 594 750 775>
VStem: 103 75<35.9712 397.122> 369 75<36.284 396.916> 635 75<36.4002 397.278>
CounterMasks: 1 1c
LayerCount: 2
Fore
SplineSet
785.032226562 353 m 2
 725.091796875 71 l 2
 717.439453125 35 723.7109375 31.099609375 756.1640625 29 c 2
 786.739257812 27 l 2
 790.674804688 26.7001953125 792.1015625 24 791.463867188 21 c 2
 787 0 l 1
 783.575195312 -2 l 1
 783.575195312 -2 700 0 670 0 c 2
 137 0 l 2
 107 0 32.5751953125 -2 32.5751953125 -2 c 1
 32 0 l 1
 36.67578125 22 l 2
 37.3134765625 25 38.6328125 26.5 42.7392578125 27 c 2
 69.1640625 29 l 2
 104.538085938 31.7001953125 111.290039062 39 118.303710938 72 c 2
 178.032226562 353 l 2
 186.109375 391 183.327148438 397.200195312 148.022460938 400 c 2
 122.447265625 402 l 2
 119.490234375 402.200195312 117.66015625 403 118.510742188 407 c 2
 123.186523438 429 l 1
 124.612304688 431 l 1
 232.186523438 429 l 1
 333.612304688 431 l 1
 335.186523438 429 l 1
 330.72265625 408 l 2
 329.873046875 404 327.533203125 402.400390625 323.447265625 402 c 2
 304.022460938 400 l 2
 269.87890625 396.5 261.747070312 394 253.032226562 353 c 2
 196.067382812 85 l 2
 187.565429688 45 191.2265625 34 226.2265625 34 c 2
 336.2265625 34 l 2
 371.2265625 34 378.990234375 47 386.854492188 84 c 2
 443.8203125 352 l 2
 452.109375 391 446.12109375 396.700195312 414.022460938 400 c 2
 394.447265625 402 l 2
 391.51171875 402.299804688 389.66015625 403 390.510742188 407 c 2
 395.186523438 429 l 1
 396.612304688 431 l 1
 496.186523438 429 l 1
 604.612304688 431 l 1
 605.186523438 429 l 1
 600.510742188 407 l 2
 599.873046875 404 597.51171875 402.299804688 593.447265625 402 c 2
 569.022460938 400 l 2
 537.870117188 397.400390625 527.53515625 393 518.8203125 352 c 2
 462.067382812 85 l 2
 453.139648438 43 463.2265625 34 491.2265625 34 c 2
 602.2265625 34 l 2
 639.2265625 34 646.478515625 54 653.067382812 85 c 2
 710.032226562 353 l 2
 718.109375 391 714.985351562 397 679.022460938 400 c 2
 655.447265625 402 l 2
 651.51171875 402.299804688 649.66015625 403 650.510742188 407 c 2
 655.186523438 429 l 1
 656.612304688 431 l 1
 760.186523438 429 l 1
 866.612304688 431 l 1
 867.186523438 429 l 1
 862.72265625 408 l 2
 861.873046875 404 859.51171875 402.299804688 856.447265625 402 c 2
 835.022460938 400 l 2
 802.78515625 397 793.747070312 394 785.032226562 353 c 2
EndSplineSet
EndChar

StartChar: afii10091
Encoding: 1097 1097 97
Width: 809
VWidth: 999
Flags: HMW
HStem: -2 29<33 63> 0 34<181.744 365.221 448.881 630.687> 402 29<33 63 219 242 305 329 484 513 565 594 750 775>
VStem: 104 74<35.7845 397.151> 369 75<36.1619 397.035> 635 74<36.5977 397.021>
CounterMasks: 1 1c
LayerCount: 2
Fore
SplineSet
784.032226562 353 m 2
 724.729492188 74 l 2
 719.415039062 49 729.376953125 30 751.739257812 27 c 0
 764.27734375 25.2998046875 777.888671875 23 775.0625 5 c 2
 752.79296875 -128 l 1
 727.580078125 -129 l 1
 725.995117188 -80 716 0 636 0 c 2
 137 0 l 2
 107 0 32.5751953125 -2 32.5751953125 -2 c 1
 32 0 l 1
 36.4638671875 21 l 2
 37.3134765625 25 38.6328125 26.5 42.7392578125 27 c 2
 69.1640625 29 l 2
 103.1171875 31.599609375 111.864257812 37 119.303710938 72 c 2
 179.032226562 353 l 2
 187.109375 391 182.348632812 397.299804688 148.022460938 400 c 2
 122.447265625 402 l 2
 119.490234375 402.200195312 117.66015625 403 118.510742188 407 c 2
 123.186523438 429 l 1
 124.612304688 431 l 1
 231.186523438 429 l 1
 333.612304688 431 l 1
 335.186523438 429 l 1
 330.72265625 408 l 2
 329.873046875 404 327.533203125 402.400390625 323.447265625 402 c 2
 304.022460938 400 l 2
 269.87890625 396.5 261.747070312 394 253.032226562 353 c 2
 195.642578125 83 l 2
 187.352539062 44 191.2265625 34 226.2265625 34 c 2
 336.2265625 34 l 2
 371.2265625 34 378.77734375 46 386.642578125 83 c 2
 443.8203125 352 l 2
 452.109375 391 446.821289062 396.700195312 414.022460938 400 c 2
 394.447265625 402 l 2
 391.51171875 402.299804688 389.66015625 403 390.510742188 407 c 2
 395.186523438 429 l 1
 396.612304688 431 l 1
 497.186523438 429 l 1
 604.612304688 431 l 1
 605.186523438 429 l 1
 600.510742188 407 l 2
 599.873046875 404 597.51171875 402.299804688 593.447265625 402 c 2
 569.022460938 400 l 2
 533.40625 397.099609375 527.53515625 393 518.8203125 352 c 2
 461.642578125 83 l 2
 452.927734375 42 463.2265625 34 492.2265625 34 c 2
 601.2265625 34 l 2
 638.2265625 34 645.840820312 51 652.854492188 84 c 2
 710.032226562 353 l 2
 718.109375 391 711.048828125 397.299804688 679.022460938 400 c 2
 655.447265625 402 l 2
 651.51171875 402.299804688 649.66015625 403 650.510742188 407 c 2
 655.186523438 429 l 1
 656.612304688 431 l 1
 758.186523438 429 l 1
 866.612304688 431 l 1
 867.186523438 429 l 1
 862.72265625 408 l 2
 861.873046875 404 859.51171875 402.299804688 856.447265625 402 c 2
 835.022460938 400 l 2
 799.420898438 396.700195312 792.747070312 394 784.032226562 353 c 2
EndSplineSet
EndChar

StartChar: afii10092
Encoding: 1098 1098 98
Width: 537
VWidth: 999
Flags: HMW
HStem: -2 31<128 153 280.978 394.853> 224 32<271 396.312> 392 37<95.6091 193.705> 402 29<311 345>
VStem: 196 75<35.7372 224 256 391.315> 431 75<61.062 196.916>
LayerCount: 2
Fore
SplineSet
211.729492188 74 m 2
 269.756835938 347 l 2
 277.622070312 384 272.322265625 392 250.322265625 392 c 0
 168.322265625 392 145.8828125 357 111.453125 275 c 1
 85.515625 280 l 1
 102.29296875 326 115.858398438 371 129.186523438 429 c 1
 325.186523438 429 l 1
 436.612304688 431 l 1
 438.186523438 429 l 1
 433.510742188 407 l 2
 432.66015625 403 430.490234375 402.200195312 427.447265625 402 c 2
 396.022460938 400 l 2
 359.633789062 397.700195312 354.322265625 392 346.8828125 357 c 2
 325.4140625 256 l 1
 382.4140625 256 l 2
 478.4140625 256 554.887695312 230 534.907226562 136 c 0
 517.052734375 52 444.575195312 -2 332.575195312 -2 c 1
 332.575195312 -2 270.799804688 0 231 0 c 0
 190.799804688 0 127.575195312 -2 127.575195312 -2 c 1
 126 0 l 1
 130.0390625 19 l 2
 131.1015625 24 134.6328125 26.5 139.739257812 27 c 2
 159.1640625 29 l 2
 195.771484375 32.7998046875 205.565429688 45 211.729492188 74 c 2
457.782226562 126 m 0
 469.047851562 179 456.612304688 224 385.612304688 224 c 2
 318.612304688 224 l 1
 287.579101562 78 l 2
 279.927734375 42 294.1640625 29 340.1640625 29 c 0
 390.1640625 29 440.352539062 44 457.782226562 126 c 0
EndSplineSet
EndChar

StartChar: afii10093
Encoding: 1099 1099 99
Width: 681
VWidth: 999
Flags: HW
HStem: -2 31<38 63 188.805 304.466> -2 33<432.625 494.875 600.125 662.375> 224 32<181 306.312> 398 33<432.625 494.875 600.125 662.375> 401 29<38 63 224 249>
VStem: 106 75<34.4717 224 256 394.233> 341 75<61.062 196.916> 508 79<40.8314 388.169>
LayerCount: 2
Fore
SplineSet
643.192382812 302 m 0
 630.564453125 252 610.159179688 156 601.53125 106 c 0
 587.959960938 27.099609375 593.463867188 21 650.61328125 17 c 1
 655.337890625 11 653.212890625 1 645.9375 -5 c 1
 605.149414062 -4 583 0 542 0 c 0
 500.200195312 0 474.149414062 -4 433.9375 -5 c 1
 429.212890625 1 431.337890625 11 438.61328125 17 c 1
 497.67578125 22 505.560546875 27.099609375 525.53125 106 c 0
 538.159179688 156 558.564453125 252 567.192382812 302 c 0
 580.762695312 380.900390625 575.259765625 387 518.109375 391 c 1
 513.384765625 397 515.72265625 408 522.998046875 414 c 1
 563.786132812 413 586.53515625 409 627.935546875 409 c 0
 669.3359375 409 694.786132812 413 734.998046875 414 c 1
 739.72265625 408 737.384765625 397 730.109375 391 c 1
 671.046875 386 663.163085938 380.900390625 643.192382812 302 c 0
367.782226562 126 m 0
 379.047851562 179 366.612304688 224 295.612304688 224 c 2
 228.612304688 224 l 1
 196.729492188 74 l 2
 189.290039062 39 204.1640625 29 250.1640625 29 c 0
 300.1640625 29 350.352539062 44 367.782226562 126 c 0
121.729492188 74 m 2
 181.458007812 355 l 2
 187.622070312 384 182.624023438 395.299804688 147.810546875 399 c 2
 129.235351562 401 l 2
 124.341796875 401.5 121.873046875 404 123.1484375 410 c 2
 126.974609375 428 l 1
 129.399414062 430 l 1
 129.399414062 430 197.186523438 429 233.186523438 429 c 0
 272.186523438 429 340.399414062 430 340.399414062 430 c 1
 341.974609375 428 l 1
 338.1484375 410 l 2
 336.873046875 404 332.3203125 401.400390625 328.235351562 401 c 2
 308.810546875 399 l 2
 275.387695312 395.599609375 262.622070312 384 256.458007812 355 c 2
 235.4140625 256 l 1
 292.4140625 256 l 2
 388.4140625 256 464.887695312 230 444.907226562 136 c 0
 427.052734375 52 353.575195312 -2 242.575195312 -2 c 0
 203.174804688 -2 181.400390625 0 142 0 c 0
 101.400390625 0 37.5751953125 -2 37.5751953125 -2 c 1
 36 0 l 1
 40.0390625 19 l 2
 41.1015625 24 44.6328125 26.5 49.7392578125 27 c 2
 69.1640625 29 l 2
 106.372070312 32.7998046875 115.565429688 45 121.729492188 74 c 2
EndSplineSet
Colour: ff00ff
EndChar

StartChar: afii10094
Encoding: 1100 1100 100
Width: 447
VWidth: 999
Flags: HW
HStem: -2 31<38 63 188.805 304.466> 224 32<181 306.312> 401 29<38 63 224 249>
VStem: 106 75<34.4717 224 256 394.233> 341 75<61.062 196.916>
LayerCount: 2
Fore
SplineSet
367.782226562 126 m 0
 379.047851562 179 366.612304688 224 295.612304688 224 c 2
 228.612304688 224 l 1
 196.729492188 74 l 2
 189.290039062 39 204.1640625 29 250.1640625 29 c 0
 300.1640625 29 350.352539062 44 367.782226562 126 c 0
121.729492188 74 m 2
 181.458007812 355 l 2
 187.622070312 384 182.624023438 395.299804688 147.810546875 399 c 2
 129.235351562 401 l 2
 124.341796875 401.5 121.873046875 404 123.1484375 410 c 2
 126.974609375 428 l 1
 129.399414062 430 l 1
 129.399414062 430 197.186523438 429 233.186523438 429 c 0
 272.186523438 429 340.399414062 430 340.399414062 430 c 1
 341.974609375 428 l 1
 338.1484375 410 l 2
 336.873046875 404 332.3203125 401.400390625 328.235351562 401 c 2
 308.810546875 399 l 2
 275.387695312 395.599609375 262.622070312 384 256.458007812 355 c 2
 235.4140625 256 l 1
 292.4140625 256 l 2
 388.4140625 256 464.887695312 230 444.907226562 136 c 0
 427.052734375 52 353.575195312 -2 242.575195312 -2 c 0
 203.174804688 -2 181.400390625 0 142 0 c 0
 101.400390625 0 37.5751953125 -2 37.5751953125 -2 c 1
 36 0 l 1
 40.0390625 19 l 2
 41.1015625 24 44.6328125 26.5 49.7392578125 27 c 2
 69.1640625 29 l 2
 106.372070312 32.7998046875 115.565429688 45 121.729492188 74 c 2
EndSplineSet
EndChar

StartChar: afii10095
Encoding: 1101 1101 101
Width: 432
Flags: HMW
HStem: -10 33<135.868 248.983> 188 40<96.8259 189.858> 210 46<168.145 303.228> 408 31<137.092 253.245>
VStem: 35 72<45.2656 105.438> 51 25<298.88 331.675> 315 81<106.985 208.09 230 333.791>
LayerCount: 2
Fore
SplineSet
52.4296875 82 m 0
 55.830078125 98 69.59375 111 87.59375 111 c 0
 104.59375 111 115.53125 106 122.729492188 74 c 0
 128.990234375 47 150.888671875 23 190.888671875 23 c 0
 274.888671875 23 332.4296875 82 357.723632812 201 c 1
 346.787109375 206 334.63671875 210 321.63671875 210 c 0
 283.63671875 210 260.9609375 188 215.9609375 188 c 0
 172.9609375 188 130.787109375 206 133.762695312 220 c 0
 134.612304688 224 138.73828125 234 144.73828125 234 c 0
 151.73828125 234 162.462890625 228 175.462890625 228 c 0
 210.462890625 228 243.4140625 256 286.4140625 256 c 0
 315.4140625 256 339.864257812 244 362.462890625 228 c 1
 365.887695312 230 l 1
 385.443359375 322 373.72265625 408 284.72265625 408 c 0
 210.72265625 408 169.520507812 360 138.916992188 296 c 1
 114.766601562 300 l 1
 134.969726562 348 147.196289062 382 158.2734375 420 c 1
 207.911132812 423 252.3125 439 299.3125 439 c 0
 432.3125 439 468.694335938 342 442.974609375 221 c 0
 408.752929688 60 293.874023438 -10 194.874023438 -10 c 0
 103.874023438 -10 41.1640625 29 52.4296875 82 c 0
EndSplineSet
EndChar

StartChar: afii10096
Encoding: 1102 1102 102
Width: 686
VWidth: 999
Flags: HW
HStem: -10 35<422.78 523.403> -2 29<29 54 214 240> 198 39<171 268> 402 29<29 54 214 240> 406 33<403.08 503.112>
VStem: 97 74<33.7976 198 237 394.785> 268 80<113.871 198 237 323.327> 569 80<107.111 329.997>
LayerCount: 2
Fore
SplineSet
535.297851562 406 m 0
 461.297851562 406 414.530273438 313 396.038085938 226 c 0
 379.670898438 149 386.313476562 25 480.313476562 25 c 0
 521.313476562 25 580.265625 53 608.323242188 185 c 0
 639.356445312 331 613.297851562 406 535.297851562 406 c 0
319.375976562 237 m 1
 354.669921875 356 437.3125 439 552.3125 439 c 0
 696.3125 439 717.23046875 321 695.125 217 c 0
 673.869140625 117 594.874023438 -10 455.874023438 -10 c 0
 327.874023438 -10 290.618164062 97 310.0859375 198 c 1
 213.0859375 198 l 1
 186.729492188 74 l 2
 180.565429688 45 188.487304688 32.400390625 220.1640625 29 c 2
 238.739257812 27 l 2
 243.6328125 26.5 247.1015625 24 246.0390625 19 c 2
 242 0 l 1
 239.575195312 -2 l 1
 239.575195312 -2 171 0 132 0 c 0
 97 0 28.5751953125 -2 28.5751953125 -2 c 1
 27 0 l 1
 31.0390625 19 l 2
 32.1015625 24 35.6328125 26.5 40.7392578125 27 c 2
 60.1640625 29 l 2
 93.287109375 32.400390625 106.565429688 45 112.729492188 74 c 2
 172.669921875 356 l 2
 178.622070312 384 171.079101562 396.5 139.022460938 400 c 2
 120.447265625 402 l 2
 115.553710938 402.5 113.084960938 405 114.1484375 410 c 2
 118.186523438 429 l 1
 120.612304688 431 l 1
 120.612304688 431 188.186523438 429 223.186523438 429 c 0
 262.186523438 429 331.612304688 431 331.612304688 431 c 1
 333.186523438 429 l 1
 329.1484375 410 l 2
 328.084960938 405 323.553710938 402.5 318.447265625 402 c 2
 299.022460938 400 l 2
 267.541992188 396.799804688 252.622070312 384 246.669921875 356 c 2
 221.375976562 237 l 1
 319.375976562 237 l 1
EndSplineSet
EndChar

StartChar: afii10097
Encoding: 1103 1103 103
Width: 439
Flags: HW
HStem: -2 29<17 32 224 245 360.133 408> 196 34<214.641 280> 204 26<167.232 185> 402 29<162.408 277.495 380 406>
VStem: 57 75<253.842 376.353> 280 75<29.6205 196 230 399.607>
LayerCount: 2
Fore
SplineSet
14 0 m 1
 18.0390625 19 l 2
 19.5263671875 26 25.7392578125 27 29.7392578125 27 c 2
 37.951171875 28 l 2
 65.5888671875 31 111.98046875 94 134.844726562 131 c 0
 160.559570312 172 198.661132812 196 227.723632812 201 c 1
 228.361328125 204 l 1
 173.361328125 204 107.80078125 239 122.892578125 310 c 0
 129.056640625 339 157.612304688 431 328.612304688 431 c 0
 404.612304688 431 378.186523438 429 410.186523438 429 c 0
 444.186523438 429 497.612304688 431 497.612304688 431 c 1
 499.186523438 429 l 1
 494.084960938 405 l 2
 493.66015625 403 492.447265625 402 490.447265625 402 c 2
 465.022460938 400 l 2
 446.810546875 399 438.109375 391 433.645507812 370 c 2
 371.3671875 77 l 2
 365.840820312 51 366.1640625 29 381.951171875 28 c 2
 403.739257812 27 l 2
 411.739257812 27 412.250976562 20 411.826171875 18 c 2
 407.575195312 -2 l 1
 407.575195312 -2 352 0 317 0 c 0
 281 0 223.575195312 -2 223.575195312 -2 c 1
 228.250976562 20 l 2
 229.1015625 24 231.739257812 27 235.739257812 27 c 2
 250.951171875 28 l 2
 284.376953125 30 288.077148438 38 296.3671875 77 c 2
 321.661132812 196 l 1
 296.661132812 196 l 2
 256.661132812 196 219.946289062 155 181.91796875 89 c 0
 153.501953125 40 112 0 79.787109375 -1 c 2
 16.5751953125 -2 l 1
 14 0 l 1
200.23046875 321 m 0
 189.602539062 271 204.887695312 230 261.887695312 230 c 2
 328.887695312 230 l 1
 357.795898438 366 l 2
 364.59765625 398 358.447265625 402 319.447265625 402 c 0
 233.447265625 402 210.220703125 368 200.23046875 321 c 0
EndSplineSet
EndChar

StartChar: uni04AE
Encoding: 1198 1198 104
Width: 610
VWidth: 999
Flags: HW
HStem: -2 33<-43.1539 38.7211 160.721 242.596> 614 33<-192.31 -132.801 -28.2999 29.5961 197.145 254.331 311.006 377.297>
VStem: 57.2 85<44.3649 325.991>
DStem2: -19.7789 576 -95.1134 547 0.510948 -0.859612<-29.6148 264.07> 247.221 576 159.753 334 0.483796 0.875181<-260.327 28.8238>
LayerCount: 2
Fore
SplineSet
382.168945312 109 m 2
 366.451171875 28 380.463867188 21 459.826171875 18 c 1
 464.55078125 12 462.212890625 1 454.9375 -5 c 1
 405.149414062 -4 371.200195312 0 317 0 c 0
 262.400390625 0 225.149414062 -4 175.9375 -5 c 1
 171.212890625 1 173.55078125 12 180.826171875 18 c 1
 261.463867188 21 278.3515625 28 297.168945312 109 c 2
 332.051757812 259 l 2
 339.916992188 296 333.623046875 296.5 322.393554688 326 c 2
 237.96875 547 l 2
 211.907226562 615.400390625 182.635742188 624 141.2734375 627 c 1
 136.547851562 633 137.88671875 644 145.162109375 650 c 1
 174.94921875 649 217.098632812 645 256.098632812 645 c 0
 296.098632812 645 334.94921875 649 375.162109375 650 c 1
 379.88671875 644 377.547851562 633 370.2734375 627 c 1
 313.635742188 624 298.287109375 618.599609375 313.432617188 576 c 2
 392.4453125 354 l 2
 397.84375 338 404.306640625 335 416.919921875 352 c 2
 583.432617188 576 l 2
 614.681640625 618.099609375 590.935546875 624 547.2734375 627 c 1
 542.547851562 633 544.673828125 643 551.94921875 649 c 1
 591.736328125 648 624.098632812 645 647.098632812 645 c 0
 670.098632812 645 710.736328125 648 740.94921875 649 c 1
 745.673828125 643 743.547851562 633 736.2734375 627 c 1
 690.659179688 622.700195312 655.170898438 615.700195312 616.39453125 565 c 2
 439.59375 334 l 2
 430.037109375 321.5 421.361328125 307.5 412.901367188 267.700195312 c 2
 382.168945312 109 l 2
EndSplineSet
Colour: ff00ff
EndChar

StartChar: uni04C0
Encoding: 1216 1216 105
Width: 303
VWidth: 999
Flags: HW
HStem: -35.5 7.9<-152.104 -14.6855 -10.2845 129.608> -5 23<-144.43 -76.7523 54.6315 122.305> 41.4 7.8<-154.121 -110.397 89.4385 131.301> 596.2 7.8<-152.582 -110.816 89.2875 132.84> 627 23<-144.43 -76.7523 54.7785 122.305> 668 8<-148.217 127.746> 673 8.1<-150.889 -10.9965 -6.5955 130.823>
VStem: -81.6 8<84.4885 563.687> -50.6 79<33.5092 611.486> 51.4 8<88.047 545.097>
CounterMasks: 1 01c0
LayerCount: 2
Fore
SplineSet
214.668945312 109 m 0
 199.026367188 26 212.963867188 21 282.326171875 18 c 1
 287.05078125 12 284.712890625 1 277.4375 -5 c 1
 227.649414062 -4 199.799804688 0 149.5 0 c 0
 98.7998046875 0 67.6494140625 -4 18.4375 -5 c 1
 13.712890625 1 16.05078125 12 23.326171875 18 c 1
 93.9638671875 21 110.026367188 26 129.668945312 109 c 0
 149.310546875 192 160.088867188 238 177.73046875 321 c 0
 195.373046875 404 204.788085938 453 220.430664062 536 c 0
 236.072265625 619 222.135742188 624 152.7734375 627 c 1
 148.047851562 633 150.38671875 644 157.662109375 650 c 1
 207.44921875 649 235.298828125 645 285.598632812 645 c 0
 336.298828125 645 367.44921875 649 416.662109375 650 c 1
 421.38671875 644 419.047851562 633 411.7734375 627 c 1
 341.135742188 624 325.572265625 619 305.430664062 536 c 0
 285.075195312 452 274.16015625 403 256.518554688 320 c 0
 238.875976562 237 230.204101562 191.5 214.668945312 109 c 0
EndSplineSet
Colour: ff00ff
EndChar

StartChar: uni04D0
Encoding: 1232 1232 106
Width: 699
VWidth: 999
Flags: HW
HStem: -2 33<-151.73 -87.2642 3.726 72.02 281.27 358.596 465.793 533.02> 241 42<85.664 284.645> 638 20<226.145 240.848> 698 31<158.23 249.06>
VStem: 78.6 69<735.873 804.004> 259.6 69<737.589 804.004>
DStem2: -48.372 102 -0.354996 79 0.390001 0.920814<-30.5131 181.817 227.512 466.368> 178.645 638 184.645 555 0.390001 0.920814<-561.337 -408.806 -359.549 -74.0876> 233.645 658 190.645 555 0.338836 -0.940845<82.3371 370.098 415.035 619.885>
LayerCount: 2
Fore
SplineSet
517.553710938 729 m 0
 550.553710938 729 577.166992188 746 580.780273438 763 c 0
 581.84375 768 582.119140625 774 582.543945312 776 c 0
 585.732421875 791 598.920898438 806 621.920898438 806 c 0
 648.920898438 806 655.944335938 792 651.90625 773 c 0
 640.853515625 721 576.96484375 698 510.96484375 698 c 0
 444.96484375 698 390.853515625 721 401.90625 773 c 0
 405.944335938 792 418.920898438 806 445.920898438 806 c 0
 468.920898438 806 475.732421875 791 472.543945312 776 c 0
 472.119140625 774 469.84375 768 468.780273438 763 c 0
 465.166992188 746 484.553710938 729 517.553710938 729 c 0
319.590820312 278 m 2
 498.590820312 278 l 1
 461.46875 555 l 1
 458.46875 555 l 1
 298.280273438 296.299804688 l 2
 291.912109375 286.099609375 297.590820312 278 319.590820312 278 c 2
162.166015625 69 m 2
 137.102539062 27.2998046875 183.278320312 20.599609375 220.326171875 18 c 1
 225.05078125 12 222.712890625 1 215.4375 -5 c 1
 178.649414062 -4 149.5 0 108.5 0 c 0
 69.5 0 45.6494140625 -4 8.4375 -5 c 1
 3.712890625 1 6.05078125 12 13.326171875 18 c 1
 57.4638671875 21 90.3525390625 31.2998046875 129.055664062 92 c 2
 477.111328125 638 l 1
 490.111328125 638 516.44921875 649 533.362304688 658 c 1
 618.654296875 76 l 2
 625.813476562 25 658.26953125 21.5 696.326171875 18 c 1
 701.05078125 12 698.712890625 1 691.4375 -5 c 1
 654.649414062 -4 612.5 0 571.5 0 c 0
 532.5 0 476.649414062 -4 439.4375 -5 c 1
 434.712890625 1 437.05078125 12 444.326171875 18 c 1
 492.6484375 21.400390625 533.063476562 21 527.678710938 62 c 2
 503.2890625 246 l 1
 294.7890625 246 l 2
 270.7890625 246 262.875976562 237 255.112304688 224 c 2
 162.166015625 69 l 2
EndSplineSet
LCarets2: 1 0 
Colour: ff00ff
EndChar

StartChar: uni04D1
Encoding: 1233 1233 107
Width: 454
VWidth: 999
Flags: HW
HStem: -10 41<139.654 240.143 343.315 429.949> 406 33<144.709 258.364> 503 31<171.971 246.548>
VStem: 36 83<50.144 160.39> 55 74<295.655 377.387> 88 73<540.553 619.612> 257 73<541.079 620.243> 293 78<68.9033 233 264.049 372.119>
DStem2: 201 243 214 212 0.971457 0.237216<-61.6983 87.0019>
LayerCount: 2
Fore
SplineSet
455.408203125 590 m 0
 443.717773438 535 378.916015625 503 314.916015625 503 c 0
 249.916015625 503 201.930664062 536 213.408203125 590 c 0
 217.234375 608 236.422851562 623 259.422851562 623 c 0
 281.422851562 623 290.447265625 609 287.045898438 593 c 0
 286.408203125 590 285.983398438 588 284.345703125 585 c 0
 282.708007812 582 282.0703125 579 281.645507812 577 c 0
 276.96875 555 292.504882812 534 322.504882812 534 c 0
 351.504882812 534 376.755859375 554 381.432617188 576 c 0
 382.0703125 579 382.708007812 582 382.345703125 585 c 0
 381.770507812 587 382.196289062 589 382.833007812 592 c 0
 386.447265625 609 406.422851562 623 424.422851562 623 c 0
 448.422851562 623 459.447265625 609 455.408203125 590 c 0
338.061523438 212 m 1
 251.810546875 192 l 2
 176.912109375 174.599609375 142.526367188 129.5 134.555664062 92 c 0
 128.178710938 62 145.250976562 20 193.250976562 20 c 0
 220.250976562 20 260.840820312 51 290.091796875 71 c 0
 299.3671875 77 305.163085938 83.099609375 308.193359375 95 c 2
 338.061523438 212 l 1
297.77734375 46 m 1
 295.77734375 46 l 1
 273.588867188 31 l 2
 224.787109375 -1 202.874023438 -10 158.874023438 -10 c 0
 91.8740234375 -10 45.1884765625 15 60.705078125 88 c 0
 74.521484375 153 149.208984375 201.400390625 246.1875 222 c 2
 340.438476562 242 l 2
 343.651367188 243 348.4140625 256 349.90234375 263 c 0
 372.858398438 371 335.384765625 397 303.384765625 397 c 0
 267.384765625 397 223.196289062 382 216.8203125 352 c 0
 214.694335938 342 214.418945312 336 214.78125 333 c 0
 215.930664062 329 215.65625 323 214.16796875 316 c 0
 211.6171875 304 190.303710938 279 162.303710938 279 c 0
 140.303710938 279 127.704101562 295 132.592773438 318 c 0
 143.43359375 369 238.061523438 419 316.061523438 419 c 0
 386.061523438 419 450.767578125 390.799804688 417.626953125 257 c 2
 382.444335938 115 l 2
 368.853515625 60 367.376953125 30 404.376953125 30 c 0
 424.376953125 30 430.77734375 46 436.77734375 46 c 0
 440.77734375 46 449.501953125 40 448.014648438 33 c 0
 446.951171875 28 404.874023438 -10 357.874023438 -10 c 0
 306.874023438 -10 299.526367188 26 297.77734375 46 c 1
EndSplineSet
LCarets2: 1 0 
Colour: ff00ff
EndChar

